<?xml version="1.0" encoding="utf-8"?>
<!-- Generator: Adobe Illustrator 24.2.3, SVG Export Plug-In . SVG Version: 6.00 Build 0)  -->
<svg version="1.1" id="Layer_1" xmlns="http://www.w3.org/2000/svg" xmlns:xlink="http://www.w3.org/1999/xlink" x="0px" y="0px"
	 viewBox="0 0 170.7 137.3" style="enable-background:new 0 0 170.7 137.3;" xml:space="preserve">
<style type="text/css">
	.st0{fill:#FFFFFF;}
	.st1{fill:url(#SVGID_1_);}
	.st2{fill:#BE58CC;}
</style>
<path class="st0" d="M537.4,216.4c-16.1,2.1-32.2,4.2-48.7,6.3c-8.4-27-16.7-53.7-24.8-79.7C488,167.1,512.5,191.6,537.4,216.4z"/>
<path class="st0" d="M425.4,235.4c16.8,0,33.2,0,50,0c-8.3,22-16.5,43.9-25,66.7C441.8,279.4,433.6,257.4,425.4,235.4z"/>
<linearGradient id="SVGID_1_" gradientUnits="userSpaceOnUse" x1="0" y1="68.6575" x2="170.6711" y2="68.6575">
	<stop  offset="0" style="stop-color:#989898"/>
	<stop  offset="1" style="stop-color:#191919"/>
</linearGradient>
<path class="st1" d="M1,135.7c-0.8-0.7-1.2-1.9-0.9-3c0.1-0.7,0.3-1.3,0.3-1.5C4.8,112.8,9.2,94.4,13.6,76
	C19.3,52.2,25,28.3,30.7,4.5c0.9-3.8,2-4.5,6.6-4.5c18.3,0,36.6,0,54.9,0c3.1,0,5,0.9,6.5,3c23.4,33,46.8,66,70.2,99
	c3,4.2,1.9,6.5-3.9,8c-29.6,8-59.1,16-88.7,24c-4.6,1.2-9.3,3-14.1,3.1c-18.6,0.4-37.2,0.1-55.8,0.2C4.2,137.3,2.4,136.9,1,135.7z
	 M74.4,126.2c27-7.3,53.5-14.5,80.2-21.7c2.1-0.6,3-3.1,1.8-4.9c-18.7-26.4-37.3-52.5-56.1-78.9c-1.6-2.2-5.1-1.6-5.7,1.1
	c-8.1,33.8-16.1,67.1-24.1,100.7C69.9,124.7,72.1,126.8,74.4,126.2z"/>
<path class="st2" d="M60,562.6C2.6,563.1-44.9,515.8-45.5,457.6c-0.5-57.8,46.4-105.8,104-106.3c58.6-0.5,106.3,46.3,106.8,104.7
	C165.8,514.7,119,562,60,562.6z M29.9,501.2c3.7,15.5,7.7,30.1,17.8,42.1c1.2,1.4,2.6,2.7,4.1,3.8c5.4,4,10.6,4.3,15.8,0.1
	c3.3-2.6,6.2-5.8,8.5-9.3c6-8.9,9.3-19,12-29.3c0.6-2.3,1-4.7,1.6-7.4C69.7,503.9,50.2,504,29.9,501.2z M89.5,412
	c-1.5-11.2-7.9-28.1-14-36.9c-1.5-2.1-3.2-4.2-5-6c-7-6.8-14-6.8-21-0.1c-2,1.9-3.7,4-5.2,6.3c-7.1,10.8-11,22.8-13.7,35.3
	c-0.1,0.4,0,0.9,0,1.3c10-0.5,19.7-1.3,29.4-1.3C69.6,410.7,79.4,411.5,89.5,412z M85.2,367.3c0.1,0.4,0.1,0.8,0.3,1
	c8.4,13.4,14,27.8,16.4,43.4c0.4,2.5,1.9,2.8,3.8,3.2c14.8,2.6,28.5,7.9,41.2,15.8c0.7,0.5,1.6,0.8,2.6,1.2
	C142.1,400.6,113.5,373.5,85.2,367.3z M149.5,481.4c-13.8,8.9-28.1,14.7-43.7,17.3c-2.9,0.5-3.5,1.8-4.1,4.2
	c-1.8,7.1-3.3,14.4-5.9,21.2c-2.9,7.6-6.8,14.9-10.2,22.1C114.6,539.9,142.7,511.5,149.5,481.4z M34.7,367.3
	c-25.8,3.6-64.6,42.3-63.7,64c13.8-8.5,28.6-14.1,44.4-16.9c1-0.2,2.1-1.7,2.4-2.9c2.6-8.4,4.5-17.1,7.6-25.4
	C27.9,379.7,31.6,373.6,34.7,367.3z M-29.2,482.7c2.3,24.4,41.9,63.8,63.9,63.4c-8.7-13.9-14.3-28.8-17.1-44.8
	c-0.1-0.9-1.7-1.8-2.8-2.2c-8.7-2.6-17.5-4.7-26-7.7C-17.4,489.1-23.2,485.7-29.2,482.7z"/>
</svg>
