<?xml version="1.0" encoding="utf-8"?>
<!-- Generator: Adobe Illustrator 24.2.3, SVG Export Plug-In . SVG Version: 6.00 Build 0)  -->
<svg version="1.1" id="Layer_1" xmlns="http://www.w3.org/2000/svg" xmlns:xlink="http://www.w3.org/1999/xlink" x="0px" y="0px"
	 viewBox="0 0 211.9 212.2" style="enable-background:new 0 0 211.9 212.2;" xml:space="preserve">
<style type="text/css">
	.st0{fill:#FF6399;}
	.st1{fill:#FFFFFF;}
</style>
<path class="st0" d="M105.8,0c2.3,1.6,4.4,2.7,6,4.3c18.6,18.4,37.2,36.9,55.8,55.4c13.6,13.6,27.2,27.1,40.9,40.7
	c4.6,4.6,4.6,7.3,0,11.9c-32.2,32.1-64.3,64.2-96.5,96.3c-4.8,4.8-7.2,4.7-11.9,0C67.7,176.4,35.5,144.2,3.3,112
	c-4.4-4.4-4.4-7-0.1-11.3c32.3-32.2,64.6-64.3,96.9-96.4C101.6,2.7,103.6,1.6,105.8,0z M19.2,103c0.4,0.2,0.7,0.4,1.1,0.4
	c14.8,2,29.7,3.9,44.5,6c3,0.4,3.5-1.2,4.2-3.3C76.1,83,83.4,60,90.6,37c0.8-2.5,1.5-5.1,2.2-7.5C68.3,54,43.8,78.4,19.2,103z
	 M192.9,103.5c-24.8-24.8-49.3-49.3-73.5-73.4c8.1,26,16.4,52.7,24.8,79.7C160.7,107.6,176.9,105.5,192.9,103.5z M80.9,122.5
	c8.2,22,16.4,43.9,25,66.7c8.6-22.8,16.8-44.7,25-66.7C114.1,122.5,97.7,122.5,80.9,122.5z"/>
<path class="st1" d="M666.9-33.2c-16.1,2.1-32.2,4.2-48.7,6.3c-8.4-27-16.7-53.7-24.8-79.7C617.6-82.4,642.1-58,666.9-33.2z"/>
<path class="st1" d="M554.9-14.1c16.8,0,33.2,0,50,0c-8.3,22-16.5,43.9-25,66.7C571.4,29.8,563.2,7.9,554.9-14.1z"/>
</svg>
