<?xml version="1.0" encoding="utf-8"?>
<!-- Generator: Adobe Illustrator 24.2.3, SVG Export Plug-In . SVG Version: 6.00 Build 0)  -->
<svg version="1.1" id="Layer_1" xmlns="http://www.w3.org/2000/svg" xmlns:xlink="http://www.w3.org/1999/xlink" x="0px" y="0px"
	 viewBox="0 0 4717 4717" style="enable-background:new 0 0 4717 4717;" xml:space="preserve">
<style type="text/css">
	.st0{fill:#212121;}
	.st1{fill:#F0F0FF;}
	.st2{fill:#7C4DFF;}
	.st3{fill:#9D9D9D;}
	.st4{fill:none;stroke:#676767;stroke-width:4;stroke-linecap:round;stroke-linejoin:round;stroke-miterlimit:10;}
	.st5{fill:#D8D8D8;}
	.st6{fill:#909090;}
	.st7{fill:#7A7A7A;}
	.st8{fill:#676767;}
	.st9{fill:#BFBFBF;}
	.st10{fill:#F0F0F0;}
	.st11{fill:#C8C8C8;}
	.st12{fill:#8B8B8B;}
	.st13{fill:#B9B9B9;}
	.st14{fill:#8A8A8A;}
	.st15{fill:#717171;}
	.st16{fill:#ADADAD;}
	.st17{fill:#651FFF;}
	.st18{fill:#311B92;}
	.st19{fill:none;}
	.st20{fill:#512ADD;}
	.st21{fill:#FFFFFF;}
	.st22{fill:#272333;}
</style>
<rect x="-951.83" y="5954.81" class="st0" width="1766.59" height="1804.17"/>
<rect x="814.76" y="5954.81" class="st1" width="1804.17" height="1804.17"/>
<rect x="-970" y="7758.98" class="st2" width="1803.76" height="1808.02"/>
<rect x="814.76" y="7758.98" class="st0" width="1808.24" height="1808.24"/>
<g>
	<path class="st1" d="M1224.67,8504h23.83l64.93,96.7V8504h25.22v138.79h-23.83l-64.93-96.9v96.9h-25.22V8504z"/>
	<path class="st1" d="M1362.47,8504h93.92v20.85h-68.7v38.12h51.03v20.85h-51.03v38.12h68.7v20.85h-93.92V8504z"/>
	<path class="st1" d="M1469.3,8504h26.81l40.9,105.04l41.1-105.04h26.61l-55.4,138.79h-24.42L1469.3,8504z"/>
	<path class="st1" d="M1620.14,8504h95.35v20.85h-69.75v38.12h51.81v20.85h-51.81v38.12h69.75v20.85h-95.35V8504z"/>
	<path class="st1" d="M1735.82,8504h57.98c15.35,0,27.2,3.77,35.54,11.32c8.34,7.55,12.51,18.47,12.51,32.76
		c0,10.2-2.52,18.86-7.55,26.01c-5.03,7.15-12.18,12.25-21.44,15.29l28.2,53.41h-25.81l-26.81-50.83h-27.4v50.83h-25.22V8504z
		 M1789.23,8571.11c8.21,0,14.82-1.92,19.86-5.76c5.03-3.84,7.55-9.6,7.55-17.28c0-15.49-9.13-23.23-27.4-23.23h-28.2v46.26H1789.23
		z"/>
	<path class="st1" d="M1369.91,8787.33c-11.25-5.89-19.99-14.3-26.21-25.22c-6.22-10.92-9.33-23.66-9.33-38.22
		c0-14.56,3.11-27.3,9.33-38.22c6.22-10.92,14.96-19.36,26.21-25.32c11.25-5.96,24.16-8.94,38.72-8.94
		c19.19,0,35.21,4.57,48.05,13.7v24.03c-11.52-9.79-26.81-14.69-45.87-14.69c-10.19,0-19.13,2.02-26.81,6.06
		c-7.68,4.04-13.64,9.76-17.87,17.17c-4.24,7.42-6.35,16.15-6.35,26.21c0,10.06,2.15,18.8,6.45,26.21
		c4.3,7.42,10.29,13.14,17.97,17.18c7.68,4.04,16.55,6.06,26.61,6.06c9.79,0,18.53-1.22,26.21-3.67
		c7.68-2.45,14.76-6.38,21.25-11.81v24.03c-12.18,9.53-28.73,14.3-49.64,14.3C1394.07,8796.17,1381.16,8793.22,1369.91,8787.33z"/>
	<path class="st1" d="M1604.72,8792.92h-26.81l-40.9-105.04l-41.1,105.04h-26.61l55.4-138.79h24.42L1604.72,8792.92z"/>
	<path class="st1" d="M2212.1,8713.84c-0.11-0.93-0.29-1.87-0.52-2.79c-1.83-7.13-10.43-46.28,0.42-115.89
		c4.39-28.15-1.62-67.96-36.48-88.07c-18.59-10.72-47.76-19.09-96.42-19.09c-0.13,0-0.25,0-0.38,0c-0.13,0-0.25,0-0.38,0
		c-48.65,0-81.26,3.08-102.66,6.96c-23.66,4.28-47.49,24.2-43.1,52.35c12.06,77.34,0,166.54,0,166.54
		c-4.36,25.02,16.56,43.92,42.64,52.34c9.31,3.01,59.64,9.2,64.45,9.78c7.54,0.92,19.27,1.83,48.9-0.63
		c7.16-0.59,15.32,1.59,18.4,6.8c3.47,5.86,5.5,19.55,20.35,22.55c10.28,2.08,11.26-8.94,21.02-7.56
		c8.35,1.17,10.13,12.47,8.73,16.07c-8.09,20.87,19.5,30.46,34.24,23.59c20.19-9.41,17.55-20.71,13.41-32.58
		c-1.96-5.63-4.26-11.38-4.63-17.12c-0.48-7.57-3.09-30.79,7.48-47.62c0.49-0.78,3.83-7.81,4.35-10.96
		c0.27-1.64,0.44-3.34,0.53-5.09c0,0,0,0-0.01-0.01C2212.59,8720.39,2212.48,8717.2,2212.1,8713.84z M1991.9,8659.79
		c-14.25,0-25.8-11.43-25.8-25.53s11.55-25.53,25.8-25.53s25.8,11.43,25.8,25.53S2006.15,8659.79,1991.9,8659.79z M2072.15,8674.7
		c-22.59,0-40.91-18.12-40.91-40.48s18.31-40.47,40.91-40.47c22.59,0,40.9,18.12,40.9,40.47S2094.74,8674.7,2072.15,8674.7z"/>
	<path class="st1" d="M1620,8654.47h24.51l46.26,101.21l46.26-101.21h24.51v138.18h-23.72v-89.75l-41.12,89.75h-11.86l-41.12-89.75
		v89.75H1620V8654.47z"/>
	<path class="st1" d="M1785.26,8654.47h55.35c15.15,0,27.31,4.02,36.47,12.06c9.16,8.04,13.74,19.04,13.74,33.01
		c0,14.5-4.55,25.53-13.64,33.11c-9.09,7.58-21.35,11.37-36.77,11.37h-30.05v48.63h-25.1V8654.47z M1837.44,8723.26
		c18.84,0,28.27-7.91,28.27-23.72c0-16.21-9.42-24.31-28.27-24.31h-27.08v48.04H1837.44z"/>
</g>
<g>
	<path class="st1" d="M-543.33,8502h23.83l64.93,96.7V8502h25.22v138.79h-23.83l-64.93-96.9v96.9h-25.22V8502z"/>
	<path class="st1" d="M-405.53,8502h93.92v20.85h-68.7v38.12h51.03v20.85h-51.03v38.12h68.7v20.85h-93.92V8502z"/>
	<path class="st1" d="M-298.7,8502h26.81l40.9,105.04l41.1-105.04h26.61l-55.4,138.79h-24.42L-298.7,8502z"/>
	<path class="st1" d="M-147.86,8502h95.35v20.85h-69.75v38.12h51.81v20.85h-51.81v38.12h69.75v20.85h-95.35V8502z"/>
	<path class="st1" d="M-32.18,8502H25.8c15.35,0,27.2,3.77,35.54,11.32c8.34,7.55,12.51,18.47,12.51,32.76
		c0,10.2-2.52,18.86-7.55,26.01c-5.03,7.15-12.18,12.25-21.44,15.29l28.2,53.41H47.24l-26.81-50.83h-27.4v50.83h-25.22V8502z
		 M21.23,8569.11c8.21,0,14.82-1.92,19.86-5.76c5.03-3.84,7.55-9.6,7.55-17.28c0-15.49-9.13-23.23-27.4-23.23h-28.2v46.26H21.23z"/>
	<path class="st1" d="M-398.09,8785.33c-11.25-5.89-19.99-14.3-26.21-25.22c-6.22-10.92-9.33-23.66-9.33-38.22
		c0-14.56,3.11-27.3,9.33-38.22c6.22-10.92,14.96-19.36,26.21-25.32c11.25-5.96,24.16-8.94,38.72-8.94
		c19.19,0,35.21,4.57,48.05,13.7v24.03c-11.52-9.79-26.81-14.69-45.87-14.69c-10.19,0-19.13,2.02-26.81,6.06
		c-7.68,4.04-13.64,9.76-17.87,17.17c-4.24,7.42-6.35,16.15-6.35,26.21c0,10.06,2.15,18.8,6.45,26.21
		c4.3,7.42,10.29,13.14,17.97,17.18c7.68,4.04,16.55,6.06,26.61,6.06c9.79,0,18.53-1.22,26.21-3.67
		c7.68-2.45,14.76-6.38,21.25-11.81v24.03c-12.18,9.53-28.73,14.3-49.64,14.3C-373.93,8794.17-386.84,8791.22-398.09,8785.33z"/>
	<path class="st1" d="M-163.28,8790.92h-26.81l-40.9-105.04l-41.1,105.04h-26.61l55.4-138.79h24.42L-163.28,8790.92z"/>
	<path class="st1" d="M444.1,8711.84c-0.11-0.93-0.29-1.87-0.52-2.79c-1.83-7.13-10.43-46.28,0.42-115.89
		c4.39-28.15-1.62-67.96-36.48-88.07c-18.59-10.72-47.76-19.09-96.42-19.09c-0.13,0-0.25,0-0.38,0c-0.13,0-0.25,0-0.38,0
		c-48.65,0-81.26,3.08-102.66,6.96c-23.66,4.28-47.49,24.2-43.1,52.35c12.06,77.34,0,166.54,0,166.54
		c-4.36,25.02,16.56,43.92,42.64,52.34c9.31,3.01,59.64,9.2,64.45,9.78c7.54,0.92,19.27,1.83,48.9-0.63
		c7.16-0.59,15.31,1.59,18.4,6.8c3.47,5.86,5.5,19.55,20.35,22.55c10.28,2.08,11.26-8.94,21.02-7.56
		c8.35,1.17,10.13,12.47,8.73,16.07c-8.09,20.87,19.5,30.46,34.24,23.59c20.19-9.41,17.55-20.71,13.41-32.58
		c-1.96-5.63-4.26-11.38-4.63-17.12c-0.48-7.57-3.09-30.79,7.48-47.62c0.49-0.78,3.83-7.81,4.35-10.96
		c0.27-1.64,0.44-3.34,0.53-5.09c0,0,0,0-0.01-0.01C444.59,8718.39,444.48,8715.2,444.1,8711.84z M223.9,8657.79
		c-14.25,0-25.8-11.43-25.8-25.53s11.55-25.53,25.8-25.53c14.25,0,25.8,11.43,25.8,25.53S238.15,8657.79,223.9,8657.79z
		 M304.15,8672.7c-22.59,0-40.91-18.12-40.91-40.48s18.31-40.47,40.91-40.47c22.59,0,40.9,18.12,40.9,40.47
		S326.74,8672.7,304.15,8672.7z"/>
	<path class="st1" d="M-148,8652.47h24.51l46.26,101.21l46.26-101.21h24.51v138.18h-23.72v-89.75l-41.12,89.75h-11.86l-41.12-89.75
		v89.75H-148V8652.47z"/>
	<path class="st1" d="M17.26,8652.47h55.35c15.15,0,27.31,4.02,36.47,12.06c9.16,8.04,13.74,19.04,13.74,33.01
		c0,14.5-4.55,25.53-13.64,33.11c-9.09,7.58-21.35,11.37-36.77,11.37H42.36v48.63h-25.1V8652.47z M69.44,8721.26
		c18.84,0,28.27-7.91,28.27-23.72c0-16.21-9.42-24.31-28.27-24.31H42.36v48.04H69.44z"/>
</g>
<g>
	<path class="st2" d="M-562.33,6693h23.83l64.93,96.7V6693h25.22v138.79h-23.83l-64.93-96.9v96.9h-25.22V6693z"/>
	<path class="st2" d="M-424.53,6693h93.92v20.85h-68.7v38.12h51.03v20.85h-51.03v38.12h68.7v20.85h-93.92V6693z"/>
	<path class="st2" d="M-317.7,6693h26.81l40.9,105.04l41.1-105.04h26.61l-55.4,138.79h-24.42L-317.7,6693z"/>
	<path class="st2" d="M-166.86,6693h95.35v20.85h-69.75v38.12h51.81v20.85h-51.81v38.12h69.75v20.85h-95.35V6693z"/>
	<path class="st2" d="M-51.18,6693H6.8c15.35,0,27.2,3.77,35.54,11.32c8.34,7.55,12.51,18.47,12.51,32.76
		c0,10.2-2.52,18.86-7.55,26.01c-5.03,7.15-12.18,12.25-21.44,15.29l28.2,53.41H28.24l-26.81-50.83h-27.4v50.83h-25.22V6693z
		 M2.23,6760.11c8.21,0,14.82-1.92,19.86-5.76c5.03-3.84,7.55-9.6,7.55-17.27c0-15.49-9.13-23.23-27.4-23.23h-28.2v46.27H2.23z"/>
	<path class="st2" d="M-417.09,6976.33c-11.25-5.89-19.99-14.3-26.21-25.22c-6.22-10.92-9.33-23.66-9.33-38.22
		c0-14.56,3.11-27.3,9.33-38.22c6.22-10.92,14.96-19.36,26.21-25.32c11.25-5.96,24.16-8.94,38.72-8.94
		c19.19,0,35.21,4.57,48.05,13.7v24.03c-11.52-9.79-26.81-14.69-45.87-14.69c-10.19,0-19.13,2.02-26.81,6.06
		c-7.68,4.04-13.64,9.76-17.87,17.18c-4.24,7.42-6.35,16.15-6.35,26.21c0,10.06,2.15,18.8,6.45,26.21
		c4.3,7.42,10.29,13.14,17.97,17.18c7.68,4.04,16.55,6.06,26.61,6.06c9.79,0,18.53-1.22,26.21-3.67
		c7.68-2.45,14.76-6.38,21.25-11.81v24.02c-12.18,9.53-28.73,14.3-49.64,14.3C-392.93,6985.17-405.84,6982.22-417.09,6976.33z"/>
	<path class="st2" d="M-182.28,6981.92h-26.81l-40.9-105.04l-41.1,105.04h-26.61l55.4-138.79h24.42L-182.28,6981.92z"/>
	<path class="st2" d="M425.1,6902.84c-0.11-0.93-0.29-1.87-0.52-2.78c-1.83-7.13-10.43-46.28,0.42-115.89
		c4.39-28.15-1.62-67.96-36.48-88.07c-18.59-10.72-47.76-19.09-96.42-19.09c-0.13,0-0.25,0-0.38,0c-0.13,0-0.25,0-0.38,0
		c-48.65,0-81.26,3.08-102.66,6.95c-23.66,4.28-47.49,24.2-43.1,52.35c12.06,77.34,0,166.54,0,166.54
		c-4.36,25.02,16.56,43.92,42.64,52.34c9.31,3.01,59.64,9.2,64.45,9.78c7.54,0.92,19.27,1.82,48.9-0.63
		c7.16-0.59,15.31,1.59,18.4,6.8c3.47,5.86,5.5,19.55,20.35,22.55c10.28,2.08,11.26-8.94,21.02-7.56
		c8.35,1.17,10.13,12.47,8.73,16.07c-8.09,20.87,19.5,30.46,34.24,23.59c20.19-9.41,17.55-20.71,13.41-32.58
		c-1.96-5.63-4.26-11.38-4.63-17.12c-0.48-7.57-3.09-30.79,7.48-47.62c0.49-0.78,3.83-7.81,4.35-10.96
		c0.27-1.64,0.44-3.34,0.53-5.09c0,0,0,0-0.01-0.01C425.59,6909.39,425.48,6906.2,425.1,6902.84z M204.9,6848.79
		c-14.25,0-25.8-11.43-25.8-25.53s11.55-25.53,25.8-25.53c14.25,0,25.8,11.43,25.8,25.53S219.15,6848.79,204.9,6848.79z
		 M285.15,6863.69c-22.59,0-40.91-18.12-40.91-40.48c0-22.35,18.31-40.48,40.91-40.48c22.59,0,40.9,18.12,40.9,40.48
		C326.05,6845.57,307.74,6863.69,285.15,6863.69z"/>
	<path class="st2" d="M-167,6843.47h24.51l46.26,101.21l46.26-101.21h24.51v138.18h-23.72v-89.75l-41.12,89.75h-11.86l-41.12-89.75
		v89.75H-167V6843.47z"/>
	<path class="st2" d="M-1.74,6843.47h55.35c15.15,0,27.31,4.02,36.47,12.06c9.16,8.04,13.74,19.04,13.74,33.01
		c0,14.5-4.55,25.53-13.64,33.11c-9.09,7.58-21.35,11.37-36.77,11.37H23.36v48.63h-25.1V6843.47z M50.44,6912.26
		c18.84,0,28.27-7.91,28.27-23.72c0-16.21-9.42-24.31-28.27-24.31H23.36v48.04H50.44z"/>
</g>
<g>
	<path class="st2" d="M1221.67,6697h23.83l64.93,96.7V6697h25.22v138.79h-23.83l-64.93-96.9v96.9h-25.22V6697z"/>
	<path class="st2" d="M1359.47,6697h93.92v20.85h-68.7v38.12h51.03v20.85h-51.03v38.12h68.7v20.85h-93.92V6697z"/>
	<path class="st2" d="M1466.3,6697h26.81l40.9,105.04l41.1-105.04h26.61l-55.4,138.79h-24.42L1466.3,6697z"/>
	<path class="st2" d="M1617.14,6697h95.35v20.85h-69.75v38.12h51.81v20.85h-51.81v38.12h69.75v20.85h-95.35V6697z"/>
	<path class="st2" d="M1732.82,6697h57.98c15.35,0,27.2,3.77,35.54,11.32c8.34,7.55,12.51,18.47,12.51,32.76
		c0,10.2-2.52,18.86-7.55,26.01c-5.03,7.15-12.18,12.25-21.44,15.29l28.2,53.41h-25.81l-26.81-50.83h-27.4v50.83h-25.22V6697z
		 M1786.23,6764.11c8.21,0,14.82-1.92,19.86-5.76c5.03-3.84,7.55-9.6,7.55-17.27c0-15.49-9.13-23.23-27.4-23.23h-28.2v46.27H1786.23
		z"/>
	<path class="st2" d="M1366.91,6980.33c-11.25-5.89-19.99-14.3-26.21-25.22c-6.22-10.92-9.33-23.66-9.33-38.22
		c0-14.56,3.11-27.3,9.33-38.22c6.22-10.92,14.96-19.36,26.21-25.32c11.25-5.96,24.16-8.94,38.72-8.94
		c19.19,0,35.21,4.57,48.05,13.7v24.03c-11.52-9.79-26.81-14.69-45.87-14.69c-10.19,0-19.13,2.02-26.81,6.06
		c-7.68,4.04-13.64,9.76-17.87,17.18c-4.24,7.42-6.35,16.15-6.35,26.21c0,10.06,2.15,18.8,6.45,26.21
		c4.3,7.42,10.29,13.14,17.97,17.18c7.68,4.04,16.55,6.06,26.61,6.06c9.79,0,18.53-1.22,26.21-3.67
		c7.68-2.45,14.76-6.38,21.25-11.81v24.02c-12.18,9.53-28.73,14.3-49.64,14.3C1391.07,6989.17,1378.16,6986.22,1366.91,6980.33z"/>
	<path class="st2" d="M1601.72,6985.92h-26.81l-40.9-105.04l-41.1,105.04h-26.61l55.4-138.79h24.42L1601.72,6985.92z"/>
	<path class="st2" d="M2209.1,6906.84c-0.11-0.93-0.29-1.87-0.52-2.78c-1.83-7.13-10.43-46.28,0.42-115.89
		c4.39-28.15-1.62-67.96-36.48-88.07c-18.59-10.72-47.76-19.09-96.42-19.09c-0.13,0-0.25,0-0.38,0c-0.13,0-0.25,0-0.38,0
		c-48.65,0-81.26,3.08-102.66,6.95c-23.66,4.28-47.49,24.2-43.1,52.35c12.06,77.34,0,166.54,0,166.54
		c-4.36,25.02,16.56,43.92,42.64,52.34c9.31,3.01,59.64,9.2,64.45,9.78c7.54,0.92,19.27,1.82,48.9-0.63
		c7.16-0.59,15.32,1.59,18.4,6.8c3.47,5.86,5.5,19.55,20.35,22.55c10.28,2.08,11.26-8.94,21.02-7.56
		c8.35,1.17,10.13,12.47,8.73,16.07c-8.09,20.87,19.5,30.46,34.24,23.59c20.19-9.41,17.55-20.71,13.41-32.58
		c-1.96-5.63-4.26-11.38-4.63-17.12c-0.48-7.57-3.09-30.79,7.48-47.62c0.49-0.78,3.83-7.81,4.35-10.96
		c0.27-1.64,0.44-3.34,0.53-5.09c0,0,0,0-0.01-0.01C2209.59,6913.39,2209.48,6910.2,2209.1,6906.84z M1988.9,6852.79
		c-14.25,0-25.8-11.43-25.8-25.53s11.55-25.53,25.8-25.53s25.8,11.43,25.8,25.53S2003.15,6852.79,1988.9,6852.79z M2069.15,6867.69
		c-22.59,0-40.91-18.12-40.91-40.48c0-22.35,18.31-40.48,40.91-40.48c22.59,0,40.9,18.12,40.9,40.48
		C2110.05,6849.57,2091.74,6867.69,2069.15,6867.69z"/>
	<path class="st2" d="M1617,6847.47h24.51l46.26,101.21l46.26-101.21h24.51v138.18h-23.72v-89.75l-41.12,89.75h-11.86l-41.12-89.75
		v89.75H1617V6847.47z"/>
	<path class="st2" d="M1782.26,6847.47h55.35c15.15,0,27.31,4.02,36.47,12.06c9.16,8.04,13.74,19.04,13.74,33.01
		c0,14.5-4.55,25.53-13.64,33.11c-9.09,7.58-21.35,11.37-36.77,11.37h-30.05v48.63h-25.1V6847.47z M1834.44,6916.26
		c18.84,0,28.27-7.91,28.27-23.72c0-16.21-9.42-24.31-28.27-24.31h-27.08v48.04H1834.44z"/>
</g>
<path class="st3" d="M5390.56,8213.02c-0.04-0.35-0.11-0.71-0.2-1.06c-0.69-2.71-3.96-17.56,0.16-43.98
	c1.67-10.68-0.62-25.79-13.84-33.42c-7.05-4.07-18.12-7.25-36.59-7.25c-0.05,0-0.1,0-0.15,0c-0.05,0-0.1,0-0.14,0
	c-18.46,0-30.84,1.17-38.96,2.64c-8.98,1.63-18.02,9.18-16.35,19.87c4.58,29.35,0,63.2,0,63.2c-1.66,9.49,6.29,16.66,16.18,19.86
	c3.53,1.14,22.63,3.49,24.46,3.71c2.86,0.35,7.31,0.69,18.56-0.24c2.72-0.23,5.81,0.6,6.98,2.58c1.32,2.22,2.09,7.42,7.72,8.56
	c3.9,0.79,4.27-3.39,7.98-2.87c3.17,0.44,3.84,4.73,3.31,6.1c-3.07,7.92,7.4,11.56,12.99,8.95c7.66-3.57,6.66-7.86,5.09-12.36
	c-0.75-2.14-1.62-4.32-1.76-6.5c-0.18-2.87-1.17-11.68,2.84-18.07c0.19-0.29,1.45-2.96,1.65-4.16c0.1-0.62,0.17-1.27,0.2-1.93
	c0,0,0,0,0,0C5390.75,8215.51,5390.71,8214.29,5390.56,8213.02z M5307.01,8192.51c-5.41,0-9.79-4.34-9.79-9.69
	c0-5.35,4.38-9.69,9.79-9.69s9.79,4.34,9.79,9.69C5316.8,8188.17,5312.41,8192.51,5307.01,8192.51z M5337.46,8198.17
	c-8.57,0-15.52-6.88-15.52-15.36c0-8.48,6.95-15.36,15.52-15.36s15.52,6.88,15.52,15.36
	C5352.98,8191.29,5346.03,8198.17,5337.46,8198.17z"/>
<rect x="5320.69" y="8163.05" class="st3" width="41.19" height="35.12"/>
<path class="st4" d="M5327.83,8183.45c5.51,2.17,11.92,1.92,17.24-0.67"/>
<path class="st5" d="M5280.66,8164.67c-7.58,7.58-7.97,19.49-0.86,26.6c7.11,7.11,19.01,6.72,26.6-0.86s7.97-19.49,0.87-26.6
	C5300.15,8156.7,5288.25,8157.08,5280.66,8164.67L5280.66,8164.67z"/>
<path class="st6" d="M5258.92,8162.44l21.94,21.94c5.39,5.39,14.12,5.39,19.51,0s5.39-14.12,0-19.51l-21.94-21.94L5258.92,8162.44z"
	/>
<path class="st7" d="M5244.91,8157.93l14.51,14.51c8.01,8.01,21.01,8.01,29.02,0c8.01-8.01,8.01-21.01,0-29.02l-14.51-14.51
	L5244.91,8157.93z"/>
<path class="st8" d="M5225.73,8143.89l34.16-34.16l17.15,17.15c7.72,7.72,6.32,21.62-3.11,31.05c-9.43,9.43-23.33,10.82-31.05,3.11
	L5225.73,8143.89z"/>
<path class="st5" d="M5228.84,8112.84c9.43-9.43,23.33-10.82,31.05-3.11c7.72,7.72,6.32,21.62-3.11,31.05
	c-9.43,9.43-23.33,10.82-31.05,3.11S5219.41,8122.28,5228.84,8112.84L5228.84,8112.84z"/>
<path class="st9" d="M5253.67,8115.27c5.06,5.06,4.15,14.18-2.04,20.37c-6.19,6.19-15.31,7.1-20.37,2.04
	c-5.06-5.06-4.15-14.18,2.04-20.37C5239.49,8111.12,5248.61,8110.21,5253.67,8115.27z"/>
<path class="st10" d="M5250.39,8122.94c0.37,0,0.74,0.07,1.1,0.23c1.4,0.61,2.04,2.24,1.44,3.64c-1,2.29-2.43,4.38-4.27,6.2
	c-1.19,1.18-2.51,2.21-3.92,3.05c-1.31,0.78-3.01,0.36-3.8-0.96c-0.78-1.31-0.36-3.01,0.96-3.8c1.02-0.61,1.98-1.36,2.85-2.23
	c1.34-1.33,2.38-2.84,3.09-4.49C5248.29,8123.56,5249.32,8122.94,5250.39,8122.94L5250.39,8122.94z"/>
<path class="st8" d="M5236.14,8165.94c0-0.21,0.01-0.42,0.02-0.63c0.35-5.06,4.73-8.87,9.79-8.52c3.6,0.25,6.73,2.59,7.98,5.98
	c0.3,0.82,0.48,1.67,0.54,2.54c0.01,0.21,0.02,0.42,0.02,0.63c0,5.07-4.11,9.18-9.17,9.18S5236.14,8171.01,5236.14,8165.94
	C5236.14,8165.94,5236.14,8165.94,5236.14,8165.94z"/>
<path class="st11" d="M5236.16,8165.31c0.06-0.86,0.24-1.72,0.54-2.53h2.12c1.81,0,3.56-0.58,5.01-1.66
	c0.72-0.55,1.68-0.87,2.75-0.87s2.03,0.33,2.75,0.87c1.33,1,2.93,1.57,4.59,1.65c0.3,0.82,0.48,1.67,0.54,2.54h-0.12
	c-1.54,0-3.04,0.52-4.2,1.52c-0.74,0.63-1.77,1.02-2.93,1.02c-1.2,0-2.26-0.41-3.01-1.08c-1.02-0.92-2.33-1.45-3.71-1.45H5236.16z"
	/>
<g>
	<path class="st12" d="M5236.71,8169.13c0.38-0.02,0.82-0.03,1.33-0.03c4.11,0,5.38,1.58,9.49,1.58c2.06,0,4.29-0.32,5.99-0.64
		c-0.7,1.4-1.75,2.59-3.04,3.47c-3.7-0.13-5.03-1.57-8.96-1.57c-1.44,0-2.34,0.08-2.98,0.18
		C5237.75,8171.26,5237.12,8170.24,5236.71,8169.13L5236.71,8169.13z"/>
	<path class="st12" d="M5241.5,8157.59c2.97-1.35,6.43-1.04,9.1,0.84c-1.1,0.14-2.26,0.23-3.38,0.23
		C5244.67,8158.66,5243.21,8158.06,5241.5,8157.59z"/>
	<ellipse class="st12" cx="5247.53" cy="8164.04" rx="2.21" ry="1.58"/>
</g>
<path class="st13" d="M5275.25,8104.82c12.57-7.04,21.13-15.66,19.12-19.25c-2.01-3.59-13.83-0.8-26.41,6.24
	c8.98-5.03,17.48-6.92,18.99-4.23c1.51,2.69-4.55,8.95-13.53,13.98c-8.98,5.03-17.48,6.92-18.99,4.23
	c-1.51-2.69,4.55-8.96,13.53-13.98c-12.57,7.04-21.14,15.66-19.12,19.25C5250.85,8114.65,5262.67,8111.86,5275.25,8104.82z"/>
<circle class="st14" cx="5271.61" cy="8098.31" r="13.18"/>
<path class="st15" d="M5278.93,8102.76c-1.8,1.01-4.07,0.37-5.07-1.43c0,0,0,0,0,0c-1.01-1.8-3.28-2.44-5.07-1.43
	c-1.8,1.01-4.07,0.37-5.07-1.43c-1.01-1.8-0.37-4.07,1.43-5.07l6.5-3.64c1.56-0.89,2.24-2.77,1.63-4.45
	c-6.5-0.84-12.63,3.23-14.38,9.54c-1.95,7.01,2.16,14.28,9.17,16.23c7.01,1.95,14.28-2.16,16.23-9.17c0.14-0.57,0.24-1.15,0.31-1.73
	c-0.84,0.12-1.66,0.38-2.41,0.78L5278.93,8102.76z"/>
<path class="st13" d="M5261.58,8110.93c4.1-1.33,8.82-3.39,13.67-6.11c4.85-2.71,9.07-5.66,12.35-8.46l-2.27-4.05
	c-2.29,2.85-6.56,6.27-11.9,9.26c-5.34,2.99-10.48,4.84-14.12,5.31L5261.58,8110.93L5261.58,8110.93z"/>
<g>
	<g>
		<path class="st16" d="M5186.44,8127.73c-1.28,3.29,3.87,8.37,11.5,11.35c7.64,2.98,14.87,2.74,16.15-0.54
			c0.8-2.04-0.89-4.78-4.13-7.28c-0.02,1.04-0.23,2.06-0.61,3.04c-0.16,0.42-0.54,0.99-1.39,1.33c-0.5,0.2-1.12,0.3-1.84,0.3
			c-1.87,0-4.55-0.67-7.19-1.8c-1.26-0.54-2.43-1.15-3.38-1.77c-1.09-0.71-1.89-1.43-2.36-2.13c-0.71-1.03-0.61-1.88-0.4-2.4
			c0.38-0.98,0.93-1.87,1.61-2.65C5190.34,8124.81,5187.24,8125.68,5186.44,8127.73z M5211.3,8137.07c0.35-0.26,0.9-0.11,1.23,0.34
			c0.33,0.45,0.31,1.02-0.04,1.28c-0.35,0.26-0.9,0.11-1.23-0.34C5210.93,8137.9,5210.95,8137.33,5211.3,8137.07z M5197.65,8136.81
			c0.18-0.45,0.78-0.64,1.35-0.42c0.57,0.22,0.88,0.77,0.71,1.22s-0.78,0.64-1.34,0.42
			C5197.79,8137.81,5197.47,8137.26,5197.65,8136.81z M5188.6,8129.49c-0.54,0.11-1.05-0.16-1.13-0.59
			c-0.08-0.43,0.29-0.86,0.83-0.97c0.54-0.11,1.05,0.16,1.13,0.59C5189.51,8128.95,5189.14,8129.38,5188.6,8129.49z"/>
		<path class="st16" d="M5206.13,8134.84c1.14,0,1.97-0.28,2.23-0.94c0.44-1.13,0.6-2.31,0.51-3.45c-0.23-2.9-2.06-5.55-4.95-6.68
			c-0.93-0.37-1.9-0.54-2.84-0.54c-1.98,0-3.88,0.76-5.32,2.09c-0.84,0.78-1.52,1.75-1.96,2.88
			C5192.81,8130.74,5201.76,8134.84,5206.13,8134.84z"/>
	</g>
</g>
<g>
	<polygon class="st17" points="796.02,10413.76 1164.95,10053.04 1592.97,9968.81 992.27,10840.41 	"/>
	<polygon class="st18" points="788.49,10566.28 1552.12,10198.61 1484.23,10518.55 	"/>
	<polygon class="st2" points="826.13,10184.31 783.71,10587.45 1009.51,10443.62 	"/>
	<polygon class="st2" points="1201.17,10581.41 1343.66,9839.75 1021.09,9962.54 803.75,10468.26 	"/>
	<polygon class="st17" points="866.92,10110.79 637.02,10478.62 882.68,10524.01 986.06,10459.59 	"/>
	<polygon class="st18" points="1169.08,10157.92 772.84,10059.51 954.14,10512.54 	"/>
</g>
<g>
	<polygon class="st17" points="796.02,10413.76 1164.95,10053.04 1592.97,9968.81 992.27,10840.41 	"/>
	<polygon class="st18" points="788.49,10566.28 1552.12,10198.61 1484.23,10518.55 	"/>
	<polygon class="st2" points="826.13,10184.31 783.71,10587.45 1009.51,10443.62 	"/>
	<polygon class="st2" points="1201.17,10581.41 1343.66,9839.75 1021.09,9962.54 803.75,10468.26 	"/>
	<polygon class="st17" points="866.92,10110.79 637.02,10478.62 882.68,10524.01 986.06,10459.59 	"/>
	<polygon class="st18" points="1169.08,10157.92 772.84,10059.51 954.14,10512.54 	"/>
</g>
<g>
	<path class="st19" d="M-2821.59,7148.02c-14.57-10.36-34.86-15.55-60.9-15.55h-82.08v137.67h82.08c5.62,0,10.93-0.32,16.04-0.83
		l54.08-24.99c8.41-10.7,12.62-25.02,12.62-43C-2799.76,7176.13-2807.05,7158.38-2821.59,7148.02z"/>
	<polygon class="st2" points="-4672.78,7211.88 -4478.85,7511.03 -4381.57,7511.03 -4381.57,7048.42 -4482.18,7048.42 
		-4482.18,7347.57 -4675.45,7048.42 -4773.39,7048.42 -4773.39,7511.03 -4672.78,7511.03 	"/>
	<polygon class="st2" points="-3991.74,7426.98 -4212.14,7426.98 -4212.14,7320.43 -4049.97,7320.43 -4049.97,7239.68 
		-4212.14,7239.68 -4212.14,7132.47 -3991.74,7132.47 -3991.74,7048.42 -4312.75,7048.42 -4312.75,7511.03 -3991.74,7511.03 	"/>
	<polygon class="st2" points="-3675.37,7511.03 -3490.73,7048.42 -3597.28,7048.42 -3725.03,7377.35 -3852.08,7048.42 
		-3959.32,7048.42 -3774,7511.03 	"/>
	<polygon class="st2" points="-3334.53,7426.98 -3334.53,7320.43 -3172.39,7320.43 -3172.39,7239.68 -3334.53,7239.68 
		-3334.53,7132.47 -3114.12,7132.47 -3114.12,7048.42 -3435.14,7048.42 -3435.14,7511.03 -3389.81,7511.03 -3207.84,7426.98 	"/>
	<path class="st2" d="M-2882.5,7270.11h-82.08v-137.64h82.08c26.02,0,46.33,5.19,60.9,15.55c14.57,10.38,21.83,28.14,21.83,53.27
		c0,17.99-4.22,32.3-12.62,43l114.35-52.81c-1.84-44.64-16.44-79.21-43.81-103.71c-29.35-26.25-70.28-39.39-122.78-39.39h-200.56
		v312.67l198.69-91.8C-2871.57,7269.83-2876.88,7270.11-2882.5,7270.11z"/>
	<path class="st2" d="M-4251.82,7889.71c-28.23-26.68-42.37-63.2-42.37-109.53c0-45.87,14-82.16,42.03-108.87
		c28-26.68,66.07-40.05,114.18-40.05c31.76,0,60.1,3.64,85.06,10.93c24.93,7.29,47.11,19.08,66.53,35.4v-95.3
		c-42.8-29.12-96.19-43.69-160.16-43.69c-49.43,0-93.09,9.81-131.05,29.46c-37.95,19.65-67.3,47.65-88.04,84.06
		s-31.1,79.09-31.1,128.06c0,48.97,10.36,91.57,31.1,127.75c8.46,14.77,18.42,28.17,29.75,40.19l99.4-45.93
		C-4241.86,7898.4-4247,7894.24-4251.82,7889.71z"/>
	<polygon class="st2" points="-3677.29,7549.16 -3775.92,7549.16 -3844.54,7721.11 -3645.3,7629.08 	"/>
	<polygon class="st20" points="-3114.12,7426.98 -3207.84,7426.98 -3389.81,7511.03 -3114.12,7511.03 	"/>
	<path class="st20" d="M-2964.57,7511.03v-156.86h78.75l81.42,156.86h103.25l-88.04-169.43c29.12-11.02,51.61-28.57,67.5-52.61
		c15.89-24.04,23.84-53.27,23.84-87.7c0-3.33-0.09-6.6-0.2-9.81l-114.35,52.81c-2.73,3.47-5.91,6.57-9.55,9.29
		c-11.53,8.61-26.42,13.8-44.52,15.69l-198.69,91.8v149.98h100.61V7511.03z"/>
	<path class="st20" d="M-4277.61,7991.64c37.95,19.62,81.62,29.46,131.05,29.46c69.71,0,124.85-15,165.47-45.01v-95.3
		c-21.63,17.21-45.01,29.69-70.14,37.38c-25.16,7.72-54.05,11.59-86.69,11.59c-39.53,0-72.35-9.21-98.51-27.57l-99.4,45.93
		C-4319.46,7965.5-4300.07,7980.02-4277.61,7991.64z"/>
	<polygon class="st20" points="-3205.41,7858.27 -3347.73,7548.5 -3446.99,7548.5 -3446.99,8011.15 -3350.37,8011.15 
		-3350.37,7748.4 -3228.59,8011.15 -3182.26,8011.15 -3059.82,7748.4 -3059.82,8011.15 -2963.83,8011.15 -2963.83,7548.5 
		-3062.46,7548.5 	"/>
	<path class="st20" d="M-2574.02,7589.87c-31.33-27.57-73.24-41.37-125.74-41.37h-194.59v462.65h100.61v-150.24h93.98
		c52.96,0,94.98-13.45,126.08-40.36c31.1-26.91,46.67-65.52,46.67-115.81C-2527.03,7655.73-2542.69,7617.47-2574.02,7589.87z
		 M-2714.33,7776.85h-79.44v-144.3h79.44c26.48,0,47.33,5.31,62.54,15.89c15.23,10.59,22.84,29.35,22.84,56.26
		C-2628.96,7752.81-2657.41,7776.85-2714.33,7776.85z"/>
	<polygon class="st20" points="-3854.01,8011.81 -3726.29,7682.87 -3599.2,8011.81 -3492,8011.81 -3645.3,7629.08 -3844.54,7721.11 
		-3960.58,8011.81 	"/>
</g>
<path class="st18" d="M-4656.27,7920.55c-31.77,2.63-44.34,1.66-52.43,0.67c-5.15-0.63-59.12-7.27-69.1-10.49
	c-1.83-0.59-3.63-1.23-5.4-1.91c7.62,5.94,16.97,10.64,27.03,13.89c9.98,3.22,63.95,9.86,69.1,10.49c6.77,0.83,16.7,1.64,38.4,0.34
	c-3.8-3.98-5.83-8.95-7.52-13C-4656.22,7920.55-4656.25,7920.55-4656.27,7920.55z"/>
<path class="st17" d="M-4708.7,7921.23c8.09,0.99,20.67,1.96,52.43-0.67c0.02,0,0.05,0,0.07,0c-0.75-1.79-1.44-3.41-2.19-4.68
	c-3.31-5.59-12.05-7.93-19.73-7.29c-31.77,2.63-44.34,1.66-52.43,0.67c-4.34-0.53-43.29-5.32-61.44-8.74
	c-3.4-0.64-6.08-1.24-7.65-1.75c-1.68-0.54-3.33-1.12-4.96-1.75c6.19,4.79,13.51,8.76,21.41,11.81c1.77,0.68,3.58,1.32,5.4,1.91
	C-4767.82,7913.96-4713.85,7920.6-4708.7,7921.23z"/>
<g>
	<path class="st18" d="M-4502.2,7866.59c-0.11-1-0.31-2.01-0.56-2.99c-1.96-7.65-11.19-49.62,0.45-124.26
		c4.71-30.18-1.74-72.86-39.11-94.42c-3.99-2.31-8.45-4.51-13.43-6.56c30.11,22.73,35.25,61.18,30.91,89
		c-11.64,74.63-2.42,116.61-0.45,124.26c0.25,0.98,0.45,1.99,0.56,2.99c0.41,3.6,0.53,7.03,0.36,10.27c0,0,0.01,0,0.01,0.01
		c-0.09,1.88-0.28,3.71-0.57,5.46c-0.56,3.38-4.14,10.92-4.67,11.75c-11.33,18.04-8.53,42.94-8.02,51.05
		c0.39,6.15,2.85,12.32,4.96,18.36c4.44,12.72,7.28,24.85-14.38,34.93c-4.23,1.97-9.46,2.68-14.67,2.22
		c-3-0.26-8.03-1.77-13.51-3.92c14.93,8.29,40.02,15.04,48.52,11.08c21.65-10.08,20.11-19.62,15.67-32.34
		c-2.11-6.04-4.57-12.21-4.96-18.36c-0.51-8.12-3.31-33.01,8.02-51.05c0.52-0.83,4.1-8.37,4.67-11.75c0.29-1.75,0.48-3.58,0.57-5.46
		c0,0-0.01,0-0.01-0.01C-4501.67,7873.61-4501.79,7870.19-4502.2,7866.59z"/>
	<path class="st17" d="M-4546.12,7986.45c21.65-10.08,18.82-22.21,14.38-34.93c-2.11-6.04-4.57-12.21-4.96-18.36
		c-0.51-8.12-3.31-33.02,8.02-51.05c0.52-0.83,4.1-8.37,4.67-11.75c0.29-1.75,0.48-3.58,0.57-5.46c0,0-0.01,0-0.01-0.01
		c0.16-3.24,0.05-6.66-0.36-10.27c-0.11-1-0.31-2.01-0.56-2.99c-1.96-7.65-11.19-49.62,0.45-124.26c4.34-27.82-0.8-66.27-30.91-89
		c-2.55-1.92-5.28-3.74-8.2-5.42c-4.13-2.38-8.74-4.65-13.92-6.76c3.09,2.31,5.92,4.79,8.51,7.41
		c22.8,23.05,26.58,56.73,22.67,81.79c-11.64,74.63-2.42,116.61-0.45,124.26c0.25,0.98,0.45,1.99,0.56,2.99
		c0.41,3.6,0.53,7.03,0.36,10.27c0,0,0.01,0,0.01,0.01c-0.09,1.88-0.28,3.71-0.57,5.46c-0.56,3.38-4.14,10.92-4.67,11.75
		c-11.33,18.04-8.53,42.94-8.02,51.05c0.39,6.15,2.85,12.32,4.96,18.36c3.87,11.08,6.51,21.7-7.16,30.92
		c-2.03,1.37-4.42,2.71-7.22,4.01c-4.17,1.94-9.3,2.66-14.44,2.24c-6.1-0.49-12.2-2.57-16.7-6.07c3.99,4.51,15.12,10.32,24.81,14.12
		c5.48,2.15,10.51,3.65,13.51,3.92C-4555.58,7989.12-4550.36,7988.42-4546.12,7986.45z"/>
	<path class="st2" d="M-4567.97,7974.47c2.8-1.3,5.19-2.64,7.22-4.01c13.67-9.22,11.02-19.84,7.16-30.92
		c-2.11-6.03-4.57-12.21-4.96-18.36c-0.51-8.12-3.31-33.02,8.02-51.05c0.52-0.83,4.1-8.37,4.67-11.75c0.29-1.75,0.48-3.58,0.57-5.46
		c0,0,0,0-0.01-0.01c0.16-3.24,0.05-6.66-0.36-10.27c-0.11-1-0.31-2.01-0.56-2.99c-1.96-7.65-11.19-49.62,0.45-124.26
		c3.91-25.06,0.12-58.74-22.67-81.79c-2.59-2.62-5.42-5.09-8.51-7.41c-2.47-1.85-5.11-3.6-7.92-5.22
		c-19.93-11.5-51.21-20.47-103.37-20.47c-0.14,0-0.27,0-0.41,0c-0.14,0-0.27,0-0.41,0c-52.16,0-87.13,3.3-110.07,7.46
		c-25.36,4.59-50.92,25.95-46.21,56.13c12.93,82.92,0,178.56,0,178.56c-4.4,25.22,15.17,44.63,40.76,54.37
		c1.63,0.62,3.29,1.2,4.96,1.75c1.58,0.51,4.25,1.1,7.65,1.75c18.15,3.42,57.11,8.21,61.44,8.74c8.09,0.99,20.67,1.96,52.43-0.67
		c7.67-0.64,16.42,1.7,19.73,7.29c0.75,1.27,1.44,2.89,2.19,4.68c1.7,4.05,3.72,9.01,7.52,13c2.84,2.98,6.67,5.41,12.1,6.5
		c2.25,0.45,4.08,0.32,5.66-0.16c3.46-1.05,5.73-3.78,8.51-5.78c2.19-1.57,4.7-2.69,8.36-2.17c8.96,1.25,10.86,13.37,9.36,17.23
		c-0.05,0.12-0.09,0.24-0.13,0.36c-0.9,2.41-1.35,4.69-1.42,6.81c-0.19,6.03,2.69,10.85,7.12,14.29c4.5,3.5,10.6,5.58,16.7,6.07
		C-4577.28,7977.12-4572.14,7976.41-4567.97,7974.47z M-4776.72,7807.5c-16.76,0-30.35-18.85-30.35-42.1
		c0-23.25,13.59-42.1,30.35-42.1c16.76,0,30.35,18.85,30.35,42.1C-4746.37,7788.65-4759.95,7807.5-4776.72,7807.5z
		 M-4689.83,7821.35c-22.91,0-41.49-24.53-41.49-54.78c0-30.25,18.58-54.78,41.49-54.78s41.49,24.53,41.49,54.78
		C-4648.34,7796.82-4666.91,7821.35-4689.83,7821.35z"/>
</g>
<g>
	<path class="st19" d="M10116.64,7944.89c-11.54-8.2-27.59-12.31-48.21-12.31h-64.97v108.97h64.97c4.45,0,8.65-0.25,12.69-0.66
		l42.8-19.78c6.65-8.47,9.99-19.8,9.99-34.04C10133.92,7967.15,10128.15,7953.09,10116.64,7944.89z"/>
	<polygon class="st2" points="8651.33,7995.44 8804.84,8232.23 8881.84,8232.23 8881.84,7866.05 8802.2,7866.05 8802.2,8102.85 
		8649.22,7866.05 8571.7,7866.05 8571.7,8232.23 8651.33,8232.23 	"/>
	<polygon class="st2" points="9190.41,8165.7 9015.95,8165.7 9015.95,8081.37 9144.32,8081.37 9144.32,8017.44 9015.95,8017.44 
		9015.95,7932.58 9190.41,7932.58 9190.41,7866.05 8936.32,7866.05 8936.32,8232.23 9190.41,8232.23 	"/>
	<polygon class="st2" points="9440.83,8232.23 9586.98,7866.05 9502.64,7866.05 9401.53,8126.42 9300.95,7866.05 9216.07,7866.05 
		9362.76,8232.23 	"/>
	<polygon class="st2" points="9710.62,8165.7 9710.62,8081.37 9838.97,8081.37 9838.97,8017.44 9710.62,8017.44 9710.62,7932.58 
		9885.09,7932.58 9885.09,7866.05 9630.99,7866.05 9630.99,8232.23 9666.87,8232.23 9810.9,8165.7 	"/>
	<path class="st2" d="M10068.43,8041.54h-64.97v-108.95h64.97c20.6,0,36.67,4.11,48.21,12.31c11.54,8.22,17.28,22.28,17.28,42.17
		c0,14.24-3.34,25.57-9.99,34.04l90.51-41.81c-1.45-35.33-13.01-62.7-34.67-82.09c-23.23-20.78-55.63-31.18-97.19-31.18h-158.75
		v247.49l157.27-72.66C10077.08,8041.31,10072.88,8041.54,10068.43,8041.54z"/>
	<path class="st2" d="M8984.55,8531.98c-22.34-21.12-33.54-50.03-33.54-86.7c0-36.31,11.08-65.03,33.27-86.17
		c22.16-21.12,52.3-31.7,90.38-31.7c25.14,0,47.57,2.88,67.33,8.65c19.73,5.77,37.29,15.1,52.66,28.02v-75.43
		c-33.88-23.05-76.14-34.58-126.78-34.58c-39.12,0-73.69,7.77-103.73,23.32c-30.04,15.56-53.27,37.72-69.69,66.53
		c-16.42,28.82-24.62,62.6-24.62,101.37c0,38.76,8.2,72.48,24.62,101.12c6.7,11.7,14.58,22.3,23.55,31.81l78.68-36.35
		C8992.43,8538.86,8988.36,8535.56,8984.55,8531.98z"/>
	<polygon class="st2" points="9439.31,8262.41 9361.24,8262.41 9306.93,8398.52 9464.63,8325.68 	"/>
	<polygon class="st20" points="9885.09,8165.7 9810.9,8165.7 9666.87,8232.23 9885.09,8232.23 	"/>
	<path class="st20" d="M10003.46,8232.23v-124.17h62.33l64.44,124.17h81.72l-69.69-134.11c23.05-8.72,40.85-22.62,53.43-41.65
		c12.58-19.03,18.87-42.17,18.87-69.42c0-2.63-0.07-5.22-0.16-7.77l-90.51,41.81c-2.16,2.75-4.68,5.2-7.56,7.36
		c-9.13,6.81-20.91,10.92-35.24,12.42l-157.27,72.66v118.72h79.64V8232.23z"/>
	<path class="st20" d="M8964.13,8612.66c30.04,15.53,64.6,23.32,103.73,23.32c55.18,0,98.82-11.88,130.98-35.63v-75.44
		c-17.12,13.62-35.63,23.5-55.52,29.59c-19.92,6.11-42.78,9.17-68.62,9.17c-31.29,0-57.27-7.29-77.98-21.82l-78.68,36.35
		C8931,8591.97,8946.35,8603.46,8964.13,8612.66z"/>
	<polygon class="st20" points="9812.83,8507.09 9700.18,8261.89 9621.61,8261.89 9621.61,8628.1 9698.09,8628.1 9698.09,8420.12 
		9794.48,8628.1 9831.16,8628.1 9928.07,8420.12 9928.07,8628.1 10004.05,8628.1 10004.05,8261.89 9925.98,8261.89 	"/>
	<path class="st20" d="M10312.6,8294.64c-24.8-21.82-57.97-32.75-99.53-32.75h-154.03v366.21h79.64v-118.92h74.39
		c41.92,0,75.19-10.65,99.8-31.95c24.62-21.3,36.95-51.86,36.95-91.67C10349.8,8346.77,10337.4,8316.48,10312.6,8294.64z
		 M10201.54,8442.64h-62.88v-114.22h62.88c20.96,0,37.47,4.2,49.5,12.58c12.06,8.38,18.08,23.23,18.08,44.53
		C10269.12,8423.61,10246.59,8442.64,10201.54,8442.64z"/>
	<polygon class="st20" points="9299.43,8628.62 9400.53,8368.25 9501.12,8628.62 9585.98,8628.62 9464.63,8325.68 9306.93,8398.52 
		9215.07,8628.62 	"/>
</g>
<path class="st18" d="M4270.49,9368.55c-375.42,31.08-524.06,19.64-619.64,7.96c-60.87-7.44-698.64-85.87-816.62-123.97
	c-21.59-6.97-42.89-14.52-63.85-22.62c90.11,70.2,200.56,125.79,319.46,164.18c117.98,38.1,755.76,116.53,816.62,123.97
	c80.05,9.79,197.34,19.39,453.83,4c-44.93-47.09-68.85-105.73-88.93-153.59C4271.07,9368.51,4270.78,9368.52,4270.49,9368.55z"/>
<path class="st17" d="M3650.85,9376.5c95.58,11.69,244.23,23.12,619.64-7.96c0.29-0.02,0.58-0.04,0.87-0.06
	c-8.89-21.2-17.04-40.28-25.93-55.3c-39.09-66.07-142.47-93.71-233.15-86.2c-375.41,31.08-524.06,19.64-619.64,7.95
	c-51.26-6.27-511.61-62.87-726.16-103.35c-40.23-7.59-71.83-14.61-90.46-20.63c-19.81-6.4-39.38-13.28-58.66-20.62
	c73.2,56.56,159.63,103.53,253.01,139.57c20.96,8.09,42.26,15.64,63.85,22.62C2952.21,9290.63,3589.99,9369.06,3650.85,9376.5z"/>
<g>
	<path class="st21" d="M9397.82,149H7040.18C6571.74,149,6192,528.74,6192,997.18v2357.64c0,374.83,243.14,692.85,580.3,804.99
		c-143.41-104.65-231.3-251.61-200.67-427.27c0,0,126.88-938.16,0-1751.64c-46.18-296.05,204.49-505.58,453.31-550.63
		c225.04-40.76,568.04-73.15,1079.76-73.15c1.35,0,2.69,0,4.01,0c1.34,0,2.66,0,4.01,0c511.72,0,818.6,88.05,1014.09,200.83
		c27.61,15.93,53.47,33.06,77.73,51.2c50.85,20.67,96.12,42.96,136.6,66.31c28.62,16.51,55.4,34.29,80.42,53.18
		c48.89,20.11,92.57,41.72,131.75,64.33c366.59,211.51,429.81,630.2,383.64,926.25c-114.2,732.14-23.7,1143.9-4.46,1218.93
		c2.46,9.61,4.39,19.48,5.52,29.29c1.5,13.1,2.6,25.95,3.3,38.55c186.22-155.59,304.7-389.55,304.7-651.19V997.18
		C10246,528.74,9866.26,149,9397.82,149z"/>
	<path class="st18" d="M9932.48,3938.17c-19.24-75.03-109.74-486.79,4.46-1218.93c46.17-296.04-17.05-714.73-383.64-926.25
		c-39.19-22.61-82.86-44.22-131.75-64.33c295.38,222.97,345.79,600.14,303.23,873.07c-114.2,732.14-23.7,1143.9-4.46,1218.93
		c2.46,9.61,4.39,19.48,5.52,29.29c4.05,35.36,5.18,68.92,3.58,100.73c0.05,0.03,0.05,0.04,0.1,0.07
		c-0.93,18.47-2.73,36.38-5.59,53.59c-5.51,33.16-40.63,107.13-45.77,115.31c-8.96,14.27-17.01,28.98-24.26,44
		c106.42-33.66,203.75-87.74,287.41-157.64c-0.71-12.61-1.8-25.45-3.3-38.55C9936.87,3957.65,9934.94,3947.78,9932.48,3938.17z"/>
	<path class="st17" d="M9288.03,1681.83c223.64,226.12,260.76,556.54,222.42,802.39c-114.2,732.14-23.7,1143.9-4.46,1218.93
		c2.46,9.61,4.39,19.48,5.52,29.29c4.05,35.36,5.18,68.92,3.58,100.73c0.05,0.03,0.05,0.04,0.1,0.07
		c-0.93,18.47-2.73,36.38-5.59,53.59c-5.51,33.16-40.63,107.13-45.77,115.31c-38.94,62.02-60.87,132.3-72.7,200.87h6.7
		c89.25,0,175.27-13.8,256.07-39.35c7.24-15.02,15.3-29.73,24.26-44c5.13-8.18,40.25-82.14,45.77-115.31
		c2.86-17.21,4.67-35.12,5.59-53.59c-0.04-0.03-0.05-0.04-0.1-0.07c1.6-31.81,0.47-65.37-3.58-100.73
		c-1.12-9.81-3.05-19.68-5.52-29.29c-19.24-75.03-109.74-486.79,4.46-1218.93c42.57-272.93-7.84-650.1-303.23-873.07
		c-25.02-18.88-51.79-36.66-80.42-53.18c-40.47-23.35-85.74-45.64-136.6-66.31C9234.87,1631.87,9262.66,1656.18,9288.03,1681.83z"/>
	<ellipse class="st21" cx="7245.07" cy="2974.82" rx="297.75" ry="412.99"/>
	<ellipse class="st21" cx="8097.43" cy="2986.26" rx="407.01" ry="537.38"/>
	<path class="st2" d="M9391.12,4203c11.84-68.56,33.76-138.85,72.7-200.87c5.13-8.18,40.25-82.14,45.77-115.31
		c2.86-17.21,4.67-35.12,5.59-53.59c-0.04-0.03-0.05-0.04-0.1-0.07c1.6-31.81,0.47-65.37-3.58-100.73
		c-1.12-9.81-3.05-19.68-5.52-29.29c-19.24-75.03-109.74-486.79,4.46-1218.93c38.34-245.85,1.22-576.27-222.42-802.39
		c-25.38-25.66-53.16-49.96-83.5-72.66c-24.25-18.14-50.11-35.27-77.73-51.2c-195.49-112.79-502.37-200.83-1014.09-200.83
		c-1.35,0-2.68,0-4.01,0c-1.33,0-2.66,0-4.01,0c-511.72,0-854.71,32.39-1079.76,73.15c-248.82,45.05-499.49,254.57-453.31,550.63
		c126.88,813.47,0,1751.64,0,1751.64c-30.63,175.65,57.26,322.61,200.67,427.27c84.2,28.01,174.27,43.19,267.88,43.19H9391.12z
		 M8097.43,2448.88c224.79,0,407.01,240.59,407.01,537.38s-182.22,537.38-407.01,537.38c-224.79,0-407.01-240.59-407.01-537.38
		S7872.65,2448.88,8097.43,2448.88z M7245.07,2561.82c164.44,0,297.75,184.9,297.75,412.99c0,228.09-133.31,412.99-297.75,412.99
		s-297.75-184.9-297.75-412.99C6947.32,2746.73,7080.62,2561.82,7245.07,2561.82z"/>
</g>
<path class="st19" d="M9581.12,6094.73c3.62-2.71,6.78-5.78,9.5-9.23l-53.9,24.9C9554.77,6108.5,9569.62,6103.31,9581.12,6094.73z"
	/>
<path class="st19" d="M9603.33,6042.43c0-18.85-4.08-33.56-12.28-44.11c8.18,10.54,12.28,25.24,12.28,44.12
	C9603.32,6042.44,9603.33,6042.43,9603.33,6042.43z"/>
<path class="st19" d="M9751.3,6489.58c-15.21-10.59-36.06-15.89-62.54-15.89h-79.44v144.3h79.44c56.92,0,85.38-24.04,85.38-72.15
	C9774.13,6518.93,9766.53,6500.17,9751.3,6489.58z"/>
<path class="st19" d="M8190.94,6268.11h54.75c-0.69-4.91-1.41-9.8-2.17-14.68c-5.73-36.72,6.76-68.13,28.39-91.87h-80.97V6268.11z"
	/>
<path class="st19" d="M9536.72,6110.4l53.9-24.9c0.02-0.02,0.04-0.04,0.06-0.07l0.04-0.02c8.39-10.7,12.61-25,12.61-42.97
	c0-18.88-4.1-33.58-12.28-44.12c-2.73-3.52-5.91-6.57-9.55-9.16c-14.57-10.36-34.88-15.55-60.9-15.55h-82.08v137.64h82.08
	c5.62,0,10.93-0.29,16.01-0.86l-0.16,0.07c0.03,0,0.05,0,0.08-0.01l0.08-0.04C9536.64,6110.41,9536.68,6110.41,9536.72,6110.4z"/>
<polygon class="st2" points="8021.51,5889.55 7920.91,5889.55 7920.91,6188.71 7727.64,5889.55 7629.7,5889.55 7629.7,6352.17 
	7730.31,6352.17 7730.31,6053.01 7924.23,6352.17 8021.51,6352.17 "/>
<path class="st2" d="M8190.94,6268.11v-106.55h80.97c21.15-23.21,51.04-39.09,81.2-45.42v-35.34h-162.17v-107.21h220.41v-84.06
	h-321.02v462.62h163.93c-1.89-28.03-4.67-56.27-8.57-84.05H8190.94z"/>
<path class="st2" d="M8912.35,5889.55h-106.55l-82.33,212c38.13,4.03,70,10.53,96.81,18.68L8912.35,5889.55z"/>
<path class="st2" d="M8629,6097c0.34,0,0.67,0,1.01,0c0.38,0,0.75,0,1.12,0L8551,5889.55h-107.23l83.85,209.32
	c30.17-1.2,63.53-1.87,100.38-1.87C8628.34,6097,8628.67,6097,8629,6097z"/>
<path class="st2" d="M9080.32,6321.2l114.92-53.09h-126.68v-106.55h162.14v-80.76h-162.14v-107.21h220.41v-84.06h-321.01v304.82
	c8.42,3.81,16.18,7.81,23.34,11.94C9039.69,6234.23,9066.99,6276.55,9080.32,6321.2z"/>
<path class="st2" d="M9520.59,6111.28h-82.08v-0.03v-137.64h82.08c26.05,0,46.33,5.19,60.9,15.55c3.64,2.59,6.82,5.65,9.55,9.16
	c8.19,10.55,12.28,25.26,12.28,44.11c0,0,0,0.01,0,0.01c0,0.01,0,0.01,0,0.02c0,17.95-4.2,32.25-12.58,42.94l114.27-52.78
	c0,0,0,0.01,0,0.01l0.03-0.01c-1.84-44.64-16.44-79.21-43.81-103.71c-29.35-26.25-70.28-39.39-122.78-39.39h-200.56v312.67
	l198.53-91.73C9531.39,6110.97,9526.14,6111.28,9520.59,6111.28z"/>
<path class="st2" d="M9591.05,5998.32c-2.73-3.52-5.91-6.57-9.55-9.16C9585.13,5991.75,9588.32,5994.8,9591.05,5998.32z"/>
<path class="st2" d="M9590.75,6085.4c8.37-10.69,12.58-24.99,12.58-42.94c0-0.01,0-0.01,0-0.02c0,17.97-4.21,32.28-12.61,42.97
	L9590.75,6085.4z"/>
<path class="st2" d="M9520.59,6111.25h-82.08v0.03h82.08c5.55,0,10.8-0.31,15.85-0.81l0.16-0.07
	C9531.52,6110.96,9526.21,6111.25,9520.59,6111.25z"/>
<path class="st2" d="M9520.59,5973.61c26.02,0,46.33,5.19,60.9,15.55C9566.92,5978.8,9546.64,5973.61,9520.59,5973.61z"/>
<path class="st2" d="M8255.85,6379.74c-49.15,0.09-92.59,9.9-130.38,29.46c-37.95,19.65-67.3,47.65-88.04,84.05
	s-31.1,79.09-31.1,128.06s10.36,91.57,31.1,127.75c8.46,14.77,18.42,28.17,29.75,40.19l99.4-45.93c-5.36-3.79-10.5-7.95-15.32-12.48
	c-28.23-26.68-42.37-63.2-42.37-109.53c0-45.87,14-82.16,42.03-108.87c26.53-25.28,62.1-38.6,106.68-39.93
	C8257.85,6442.8,8257.38,6411.55,8255.85,6379.74z"/>
<path class="st20" d="M9087.37,6352.17h201.59v-84.05h-93.72l-114.92,53.09C9083.38,6331.45,9085.7,6341.82,9087.37,6352.17z"/>
<path class="st20" d="M9590.7,6085.46l-0.09,0.04c-2.71,3.44-5.88,6.52-9.5,9.23c-11.51,8.59-26.36,13.77-44.4,15.68l-0.09,0.04
	c-0.04,0-0.08,0.01-0.11,0.01l-198.61,91.76v149.98h100.61v-0.03v-156.86h78.75l81.42,156.86h103.25l-88.04-169.43
	c29.12-11.02,51.61-28.57,67.5-52.61c15.89-24.04,23.84-53.27,23.84-87.7c0-3.32-0.09-6.59-0.2-9.8l-114.29,52.79
	C9590.72,6085.43,9590.71,6085.45,9590.7,6085.46z"/>
<path class="st20" d="M9590.72,6085.41l-0.04,0.02c-0.02,0.02-0.04,0.04-0.06,0.07l0.09-0.04c0.01-0.01,0.02-0.03,0.03-0.04
	l-0.03,0.02C9590.71,6085.42,9590.71,6085.42,9590.72,6085.41z"/>
<path class="st20" d="M9536.72,6110.4c-0.04,0-0.08,0.01-0.12,0.01l-0.08,0.04c0.04,0,0.08-0.01,0.11-0.01L9536.72,6110.4z"/>
<path class="st20" d="M9590.75,6085.4c0,0.01-0.01,0.01-0.01,0.02l114.29-52.79c0,0,0-0.01,0-0.01L9590.75,6085.4z"/>
<path class="st20" d="M9590.7,6085.43l0.03-0.02c0-0.01,0.01-0.01,0.01-0.02l-0.03,0.02
	C9590.71,6085.42,9590.71,6085.42,9590.7,6085.43z"/>
<path class="st20" d="M8263.62,6770.87c-38.84-0.24-71.15-9.43-96.97-27.55l-99.4,45.93c16.38,17.38,35.77,31.9,58.24,43.52
	c37.95,19.62,81.62,29.46,131.05,29.46c44.15,0,82.45-6.03,114.92-18.06c-9.92-5.25-19.21-11.16-27.66-17.69
	C8310.94,6813.98,8282.12,6794.99,8263.62,6770.87z"/>
<path class="st20" d="M9197.68,6699.41l-112.55-244.97c-10.62,73.9-12.82,134.08-11.49,180.24l100.86,217.61h46.33l122.44-262.75
	v262.75h95.99v-462.65h-98.63L9197.68,6699.41z"/>
<path class="st20" d="M9829.07,6431c-31.33-27.57-73.24-41.37-125.74-41.37h-194.59v462.65h100.61v-150.24h93.98
	c52.96,0,94.99-13.45,126.08-40.36c31.1-26.91,46.67-65.52,46.67-115.81C9876.06,6496.87,9860.4,6458.6,9829.07,6431z
	 M9688.76,6617.99h-79.44v-144.3h79.44c26.48,0,47.33,5.31,62.54,15.89c15.23,10.59,22.83,29.35,22.83,56.26
	C9774.13,6593.95,9745.67,6617.99,9688.76,6617.99z"/>
<path class="st18" d="M8708.74,6884.4c-78.15,6.47-109.09,4.09-128.99,1.66c-12.67-1.55-145.43-17.88-169.99-25.81
	c-4.49-1.45-8.93-3.02-13.29-4.71c18.76,14.61,41.75,26.18,66.5,34.18c24.56,7.93,157.32,24.26,169.99,25.81
	c16.66,2.04,41.08,4.04,94.47,0.83c-9.35-9.8-14.33-22.01-18.51-31.97C8708.86,6884.39,8708.8,6884.39,8708.74,6884.4z"/>
<path class="st18" d="M8967.95,6194.37c-3.14-1.42-6.37-2.82-9.7-4.2c3.36,2.54,6.59,5.16,9.7,7.85V6194.37z"/>
<path class="st18" d="M9052.72,6852.28h-50.06c-3.02,27.24-0.51,51.8,0.21,63.12c0.96,15.14,7.02,30.32,12.2,45.17
	c10.92,31.3,17.9,61.13-35.37,85.94c-10.42,4.85-23.27,6.58-36.09,5.47c-7.39-0.64-19.75-4.35-33.24-9.63
	c36.74,20.4,98.46,37,119.36,27.27c53.26-24.81,49.47-48.27,38.54-79.57c-5.18-14.85-11.25-30.03-12.2-45.17
	c-1.26-19.97-8.14-81.22,19.73-125.6c1.29-2.05,10.1-20.6,11.48-28.92c0.72-4.32,1.17-8.81,1.4-13.44
	c-0.01-0.01-0.01-0.01-0.02-0.02c0.4-7.98,0.12-16.39-0.9-25.26c-0.28-2.46-0.77-4.93-1.38-7.34
	c-2.69-10.5-10.94-47.28-12.74-109.62l-20.92-45.14V6852.28z"/>
<path class="st18" d="M9036.62,6389.64h18.75l29.77,64.8c0.75-5.21,1.54-10.49,2.37-15.84c4.08-26.19,4.75-56.21-0.13-86.43h-50.12
	C9037.88,6365.02,9037.62,6377.6,9036.62,6389.64z"/>
<path class="st18" d="M9036.5,6341.44l43.82-20.24c-13.33-44.65-40.63-86.97-89.03-114.9c-7.16-4.13-14.92-8.12-23.34-11.94v3.65
	C9012.62,6236.64,9031.96,6290.41,9036.5,6341.44z"/>
<path class="st18" d="M9036.5,6341.44c0.32,3.59,0.57,7.17,0.74,10.73h50.12c-1.67-10.35-3.99-20.72-7.05-30.97L9036.5,6341.44z"/>
<path class="st18" d="M9085.13,6454.43l-29.77-64.8h-18.75c-0.56,6.68-1.34,13.2-2.32,19.49c-28.64,183.61-5.94,286.88-1.12,305.69
	c0.62,2.41,1.1,4.88,1.38,7.35c1.02,8.87,1.3,17.28,0.9,25.26c0.01,0.01,0.01,0.01,0.02,0.02c-0.23,4.63-0.69,9.12-1.4,13.44
	c-1.38,8.32-10.19,26.87-11.48,28.92c-12.08,19.24-17.63,41.64-19.94,62.48h50.06v-262.75l20.92,45.14
	C9072.31,6588.51,9074.51,6528.34,9085.13,6454.43z"/>
<path class="st17" d="M8579.75,6886.05c19.9,2.43,50.84,4.81,128.99-1.66c0.06,0,0.12-0.01,0.18-0.01
	c-1.85-4.41-3.55-8.39-5.4-11.51c-8.14-13.75-29.66-19.51-48.53-17.94c-78.15,6.47-109.09,4.09-128.99,1.66
	c-3.21-0.39-14.12-1.73-29.02-3.64h-54.47l2.75-6.9c-20.19-2.81-40.78-5.85-57.46-8.67c-5.28,2.45-10.73,4.71-16.35,6.8
	c7.97,4.22,16.35,8.02,25.01,11.37c4.36,1.68,8.8,3.26,13.29,4.71C8434.31,6868.18,8567.08,6884.51,8579.75,6886.05z"/>
<path class="st17" d="M8374.84,6835.07c-8.37-1.58-14.95-3.04-18.83-4.29c-4.12-1.33-8.2-2.77-12.21-4.29
	c8.45,6.53,17.74,12.44,27.66,17.69c5.62-2.08,11.08-4.35,16.35-6.8C8383.14,6836.59,8378.79,6835.82,8374.84,6835.07z"/>
<path class="st17" d="M8496.98,6852.94c-14.58-1.87-32.97-4.28-51.72-6.9l-2.75,6.9H8496.98z"/>
<path class="st17" d="M8979.71,7046.5c53.27-24.81,46.29-54.63,35.37-85.94c-5.18-14.85-11.25-30.03-12.2-45.17
	c-0.72-11.31-3.23-35.88-0.21-63.12h-46.56v-64.14c-12.62,39.14-7.99,81.76-6.98,97.79c0.96,15.14,7.02,30.32,12.2,45.17
	c9.51,27.25,16.02,53.39-17.6,76.06c-5,3.37-10.87,6.66-17.76,9.87c-10.26,4.78-22.89,6.53-35.52,5.52
	c-15-1.21-30.01-6.33-41.08-14.94c9.81,11.1,37.19,25.39,61.03,34.73c13.49,5.29,25.85,8.99,33.24,9.63
	C8956.44,7053.09,8969.29,7051.36,8979.71,7046.5z"/>
<path class="st17" d="M9037.25,6352.17h-23.97h-29.86c-0.52,9.5-1.5,18.71-2.87,27.49c-0.52,3.36-1.02,6.68-1.51,9.98h57.58
	C9037.62,6377.6,9037.88,6365.02,9037.25,6352.17z"/>
<path class="st17" d="M8967.95,6246.33v-48.31c-3.11-2.69-6.34-5.31-9.7-7.85c-6.27-4.74-12.99-9.19-20.17-13.34
	c-10.15-5.86-21.5-11.45-34.26-16.63c7.61,5.69,14.58,11.79,20.94,18.22C8944.6,6198.49,8958.58,6221.82,8967.95,6246.33z"/>
<path class="st17" d="M9036.5,6341.44c-4.54-51.03-23.88-104.8-68.55-143.42v48.31c13.34,34.91,17.31,72.21,15.47,105.84h29.86
	L9036.5,6341.44z"/>
<path class="st17" d="M9037.25,6352.17c-0.18-3.56-0.42-7.14-0.74-10.73l-23.22,10.73H9037.25z"/>
<path class="st17" d="M8979.43,6685.35c0.62,2.41,1.1,4.88,1.38,7.34c1.02,8.87,1.3,17.28,0.9,25.26c0.01,0.01,0.01,0.01,0.02,0.02
	c-0.23,4.63-0.68,9.12-1.4,13.44c-1.38,8.32-10.19,26.87-11.48,28.92c-5.5,8.76-9.64,18.18-12.75,27.81v64.14h46.56
	c2.31-20.84,7.86-43.25,19.94-62.48c1.29-2.05,10.1-20.6,11.48-28.92c0.72-4.32,1.17-8.81,1.4-13.44c-0.01-0.01-0.01-0.01-0.02-0.02
	c0.4-7.98,0.12-16.39-0.9-25.26c-0.28-2.46-0.77-4.93-1.38-7.35c-4.83-18.82-27.52-122.08,1.12-305.69
	c0.98-6.29,1.76-12.81,2.32-19.49h-57.58C8952.73,6567.01,8974.69,6666.88,8979.43,6685.35z"/>
<path class="st2" d="M8925.96,7017.03c6.89-3.21,12.77-6.5,17.76-9.87c33.62-22.68,27.12-48.81,17.6-76.06
	c-5.18-14.85-11.25-30.03-12.2-45.17c-1.01-16.03-5.64-58.64,6.98-97.79v-398.51h22.93c0.49-3.3,0.99-6.62,1.51-9.98
	c1.37-8.78,2.35-17.99,2.87-27.49h-15.47v-105.84c-9.37-24.51-23.35-47.84-43.19-67.9c-6.36-6.43-13.33-12.53-20.94-18.22
	c-6.08-4.55-12.57-8.84-19.49-12.84c-17.45-10.07-38.45-19.35-64.04-27.13l-92.57,231.94h-98.63l-101.47-253.3
	c-74.91,2.97-130.18,9.19-170.41,16.48c-1.36,0.25-2.73,0.52-4.09,0.81v45.42h-81.2c-21.63,23.74-34.12,55.15-28.39,91.87
	c0.76,4.88,1.48,9.77,2.17,14.68h165.65v84.05h-157.08c0.62,9.22,1.15,18.42,1.59,27.57c0.22,0,0.45,0,0.67,0
	c49.45,0,92.57,8.71,129.36,26.12c8.24-4.35,17.18-6.73,26.53-6.73c41.24,0,74.67,46.37,74.67,103.57
	c0,57.2-33.43,103.57-74.67,103.57c-41.24,0-74.67-46.37-74.67-103.57c0-7.62,0.6-15.05,1.73-22.2
	c-22.28-5.39-47.06-8.09-74.37-8.09c-2.53,0-5.02,0.05-7.49,0.12c-0.98,123.33-14.08,220.2-14.08,220.2
	c-5.17,29.66,3.14,56.06,20.09,78.15c0.52,0,1.02,0.02,1.54,0.02c32.65,0,61.54-3.87,86.69-11.59
	c25.13-7.69,48.51-20.17,70.14-37.38v95.3c-10.44,7.71-21.84,14.42-34.2,20.15c16.68,2.82,37.27,5.86,57.46,8.67l101.88-255.21
	c-14.39-23.23-23.03-52.92-23.03-85.27c0-74.43,45.7-134.77,102.07-134.77c19.37,0,37.48,7.13,52.91,19.5h46.71l31.99,79.92
	l153.31,382.72h-107.21l-100.28-259.56c-17.6,27.02-43.17,44.73-71.89,46.75l-82.63,212.81h-52.1c14.9,1.91,25.81,3.25,29.02,3.64
	c19.9,2.43,50.84,4.81,128.99-1.66c18.88-1.56,40.4,4.19,48.53,17.94c1.85,3.13,3.55,7.1,5.4,11.51
	c4.18,9.96,9.16,22.17,18.51,31.97c6.99,7.32,16.41,13.3,29.77,16c5.53,1.11,10.03,0.8,13.92-0.39c8.52-2.59,14.09-9.31,20.94-14.22
	c5.38-3.86,11.56-6.61,20.58-5.33c22.03,3.09,26.72,32.9,23.02,42.39c-0.12,0.3-0.22,0.6-0.33,0.9c-2.21,5.94-3.31,11.53-3.48,16.75
	c-0.48,14.83,6.62,26.69,17.51,35.16c11.08,8.61,26.08,13.73,41.08,14.94C8903.07,7023.57,8915.7,7021.82,8925.96,7017.03z"/>
<path class="st2" d="M8723.47,6101.55c-27.4-2.9-58.02-4.51-92.34-4.55l46.92,121.48L8723.47,6101.55z"/>
<path class="st2" d="M8271.91,6161.57h81.2v-45.42C8322.95,6122.48,8293.06,6138.36,8271.91,6161.57z"/>
<path class="st2" d="M8411.35,6268.11H8245.7c3.9,27.78,6.68,56.02,8.57,84.05h157.08V6268.11z"/>
<path class="st2" d="M8727.72,6352.17l92.57-231.94c-26.82-8.15-58.68-14.65-96.81-18.68l-45.41,116.93L8631.14,6097
	c-0.38,0-0.75,0-1.12,0c-0.34,0-0.67,0-1.01,0c-0.33,0-0.67,0-1.01,0c-36.85,0-70.2,0.67-100.38,1.87l101.47,253.3H8727.72z"/>
<path class="st2" d="M8967.95,6246.33v105.84h15.47C8985.26,6318.54,8981.29,6281.25,8967.95,6246.33z"/>
<path class="st2" d="M8339.47,6480.49c5.41-34.37,23.12-62.35,46.42-74.64c-36.8-17.4-79.92-26.12-129.36-26.12
	c-0.22,0-0.45,0-0.67,0c1.52,31.8,1.99,63.06,1.75,92.78c2.47-0.07,4.96-0.12,7.49-0.12
	C8292.41,6472.4,8317.19,6475.1,8339.47,6480.49z"/>
<path class="st2" d="M8727,6484.44l30.79-14.22l-31.99-79.92h-46.71C8704.23,6410.45,8722.24,6444.54,8727,6484.44z"/>
<path class="st2" d="M8343.79,6826.49c4.01,1.53,8.09,2.96,12.21,4.29c3.88,1.25,10.46,2.71,18.83,4.29
	c3.95,0.75,8.31,1.52,12.96,2.31c12.36-5.73,23.76-12.44,34.2-20.15v-95.3c-21.63,17.21-45.01,29.69-70.14,37.38
	c-25.16,7.72-54.05,11.59-86.69,11.59c-0.52,0-1.02-0.02-1.54-0.02C8282.12,6794.99,8310.94,6813.98,8343.79,6826.49z"/>
<path class="st2" d="M8980.33,6731.41c0.72-4.32,1.17-8.81,1.4-13.44c-0.01-0.01-0.01-0.01-0.02-0.02c0.4-7.98,0.12-16.39-0.9-25.26
	c-0.28-2.46-0.77-4.93-1.38-7.34c-4.74-18.47-26.69-118.34-0.4-295.72h-22.93v398.51c3.1-9.63,7.25-19.05,12.75-27.81
	C8970.14,6758.28,8978.95,6739.73,8980.33,6731.41z"/>
<path class="st2" d="M8549.08,6852.94l82.63-212.81c-1.83,0.13-3.68,0.2-5.53,0.2c-31.87,0-60.32-19.29-79.04-49.5l-101.88,255.21
	c18.75,2.61,37.14,5.03,51.72,6.9H8549.08z"/>
<path class="st2" d="M8728.25,6505.56c0,33.55-9.29,64.23-24.65,87.82l100.28,259.56h107.21l-153.31-382.72l-30.79,14.22
	C8727.82,6491.32,8728.25,6498.38,8728.25,6505.56z"/>
<path class="st21" d="M8631.71,6640.13c28.72-2.03,54.29-19.73,71.89-46.75l-26.8-69.37L8631.71,6640.13z"/>
<path class="st21" d="M8627.17,6390.3h51.92c-15.43-12.37-33.54-19.5-52.91-19.5c-56.37,0-102.07,60.34-102.07,134.77
	c0,32.35,8.64,62.04,23.03,85.27l11.41-28.59L8627.17,6390.3z"/>
<path class="st21" d="M8558.55,6562.25l168.45-77.81c-4.76-39.9-22.77-73.99-47.91-94.14h-51.92L8558.55,6562.25z"/>
<path class="st21" d="M8626.18,6640.33c1.86,0,3.7-0.07,5.53-0.2l45.09-116.12l26.8,69.37c15.36-23.59,24.65-54.27,24.65-87.82
	c0-7.19-0.43-14.24-1.25-21.12l-168.45,77.81l-11.41,28.59C8565.86,6621.05,8594.31,6640.33,8626.18,6640.33z"/>
<path class="st21" d="M8416.69,6518.73c-19.42-16.32-41.6-28.11-66.53-35.4c-3.5-1.02-7.06-1.96-10.69-2.84
	c-1.13,7.15-1.73,14.58-1.73,22.2c0,57.2,33.43,103.57,74.67,103.57c41.24,0,74.67-46.37,74.67-103.57
	c0-57.2-33.43-103.57-74.67-103.57c-9.34,0-18.28,2.39-26.53,6.73c10.81,5.11,21.08,10.96,30.8,17.58V6518.73z"/>
<path class="st21" d="M8339.47,6480.49c3.63,0.88,7.2,1.82,10.69,2.84c24.93,7.29,47.1,19.08,66.53,35.4v-95.3
	c-9.72-6.61-19.99-12.46-30.8-17.58C8362.59,6418.14,8344.88,6446.12,8339.47,6480.49z"/>
<ellipse class="st21" cx="2292.42" cy="3121.67" rx="469.86" ry="620.36"/>
<ellipse class="st21" cx="1308.44" cy="3108.46" rx="343.72" ry="476.76"/>
<path class="st21" d="M531.02,1961.09c-53.31-341.77,236.07-583.64,523.3-635.65c259.79-47.05,655.75-84.44,1246.48-84.44
	c1.56,0,3.1,0,4.63,0c1.54,0,3.07,0,4.63,0c590.73,0,945,101.64,1170.67,231.84c31.88,18.39,61.73,38.16,89.73,59.1
	c58.71,23.86,110.96,49.59,157.69,76.55c33.05,19.06,63.95,39.59,92.83,61.39c56.44,23.21,106.86,48.16,152.1,74.26
	c423.19,244.17,496.18,727.51,442.88,1069.26c-50.56,324.17-66.36,593.93-65.38,808.22C4582.61,3256.47,4717,2823.18,4717,2358.5
	C4717,1055.94,3661.06,0,2358.5,0S0,1055.94,0,2358.5c0,573.35,204.59,1098.91,544.75,1507.67
	C577.41,3561.5,648.6,2714.92,531.02,1961.09z"/>
<path class="st18" d="M4415.96,2813.41c53.3-341.75-19.69-825.09-442.88-1069.26c-45.24-26.1-95.66-51.05-152.1-74.26
	c340.99,257.4,399.19,692.8,350.05,1007.88c-93.54,599.74-68.11,1013.24-37.51,1233.78c79.47-90.76,152.09-187.67,217.06-289.91
	C4349.6,3407.34,4365.39,3137.58,4415.96,2813.41z"/>
<path class="st17" d="M4171.03,2677.76c49.14-315.07-9.06-750.48-350.05-1007.88c-28.88-21.8-59.79-42.32-92.83-61.39
	c-46.72-26.96-98.98-52.69-157.69-76.55c35.02,26.2,67.1,54.26,96.39,83.88c258.17,261.03,301.03,642.47,256.76,926.28
	c-131.83,845.19-27.36,1320.53-5.15,1407.15c2.85,11.1,5.07,22.48,6.37,33.81c4.68,40.82,5.98,79.56,4.13,116.28
	c0.05,0.04,0.06,0.05,0.11,0.08c-0.33,6.65-0.78,13.23-1.32,19.76c72.78-64.91,141.51-134.26,205.76-207.64
	C4102.92,3691,4077.49,3277.5,4171.03,2677.76z"/>
<path class="st2" d="M2358.5,4717c602.58,0,1152.37-225.99,1569.26-597.82c0.54-6.52,0.98-13.1,1.32-19.76
	c-0.05-0.04-0.06-0.04-0.11-0.08c1.84-36.72,0.54-75.46-4.13-116.28c-1.3-11.33-3.52-22.71-6.37-33.81
	c-22.21-86.62-126.68-561.96,5.15-1407.15c44.26-283.81,1.41-665.25-256.76-926.28c-29.29-29.62-61.37-57.68-96.39-83.88
	c-28-20.94-57.85-40.71-89.73-59.1C3255.06,1342.64,2900.8,1241,2310.07,1241c-1.56,0-3.09,0-4.63,0c-1.53,0-3.07,0-4.63,0
	c-590.73,0-986.69,37.39-1246.48,84.44c-287.24,52.01-576.61,293.88-523.3,635.65c117.58,753.83,46.39,1600.41,13.73,1905.08
	C977.37,4386.05,1629.28,4717,2358.5,4717z M2292.42,2501.32c259.5,0,469.86,277.74,469.86,620.36s-210.36,620.36-469.86,620.36
	c-259.49,0-469.85-277.74-469.85-620.36S2032.93,2501.32,2292.42,2501.32z M1308.44,2631.7c189.83,0,343.72,213.45,343.72,476.76
	c0,263.31-153.89,476.76-343.72,476.76c-189.83,0-343.72-213.45-343.72-476.76C964.72,2845.15,1118.61,2631.7,1308.44,2631.7z"/>
<circle class="st22" cx="6511.14" cy="9811.97" r="2358.5"/>
<g>
	<path class="st18" d="M6865.09,12078.97c-359.73,29.78-502.16,18.82-593.75,7.62c-58.33-7.13-669.45-82.29-782.5-118.79
		c-20.69-6.68-41.1-13.92-61.18-21.67c86.35,67.27,192.18,120.53,306.11,157.32c113.05,36.51,724.18,111.66,782.5,118.79
		c76.7,9.38,189.09,18.58,434.87,3.84c-43.05-45.12-65.97-101.31-85.21-147.17C6865.65,12078.94,6865.37,12078.95,6865.09,12078.97z
		"/>
	<path class="st18" d="M8609.82,11467.84c-1.3-11.33-3.52-22.71-6.37-33.81c-22.21-86.62-126.68-561.96,5.15-1407.15
		c53.3-341.75-19.68-825.1-442.88-1069.27c-45.24-26.1-95.66-51.05-152.1-74.26c340.99,257.4,399.19,692.8,350.05,1007.88
		c-131.82,845.19-27.36,1320.53-5.15,1407.14c2.84,11.1,5.07,22.48,6.37,33.81c4.67,40.82,5.97,79.56,4.13,116.28
		c0.05,0.04,0.06,0.04,0.11,0.08c-1.07,21.32-3.15,41.99-6.46,61.86c-6.37,38.28-46.91,123.67-52.83,133.11
		c-128.26,204.27-96.61,486.23-90.8,578.15c4.4,69.69,32.32,139.56,56.17,207.9c50.29,144.1,82.39,281.39-162.79,395.58
		c-47.96,22.34-107.1,30.31-166.12,25.17c-34.03-2.97-90.91-20.02-153.01-44.35c169.1,93.89,453.23,170.33,549.44,125.52
		c245.18-114.19,227.7-222.17,177.41-366.27c-23.85-68.34-51.77-138.22-56.17-207.9c-5.82-91.92-37.46-373.88,90.8-578.15
		c5.92-9.44,46.47-94.83,52.83-133.11c3.3-19.87,5.39-40.54,6.46-61.86c-0.05-0.04-0.06-0.04-0.12-0.08
		C8615.8,11547.4,8614.5,11508.66,8609.82,11467.84z"/>
	<path class="st17" d="M6271.34,12086.59c91.59,11.2,234.02,22.15,593.75-7.62c0.27-0.02,0.55-0.03,0.83-0.06
		c-8.52-20.31-16.33-38.6-24.85-52.99c-37.45-63.31-136.52-89.79-223.4-82.6c-359.73,29.78-502.16,18.82-593.75,7.62
		c-49.12-6-490.24-60.25-695.82-99.03c-38.54-7.27-68.83-14-86.68-19.76c-18.98-6.13-37.73-12.73-56.21-19.76
		c70.14,54.19,152.96,99.21,242.44,133.74c20.08,7.75,40.5,14.99,61.18,21.67C5601.89,12004.31,6213.02,12079.46,6271.34,12086.59z"
		/>
	<path class="st17" d="M8112.43,12825.16c245.18-114.19,213.08-251.48,162.79-395.58c-23.85-68.34-51.77-138.22-56.17-207.9
		c-5.81-91.92-37.46-373.88,90.8-578.15c5.93-9.45,46.47-94.83,52.83-133.11c3.3-19.87,5.39-40.54,6.46-61.86
		c-0.05-0.04-0.06-0.05-0.11-0.08c1.84-36.72,0.54-75.46-4.13-116.28c-1.3-11.33-3.53-22.71-6.37-33.81
		c-22.21-86.61-126.68-561.96,5.15-1407.14c49.14-315.07-9.06-750.48-350.05-1007.88c-28.88-21.8-59.79-42.32-92.83-61.39
		c-46.72-26.96-98.98-52.69-157.69-76.55c35.02,26.2,67.1,54.26,96.39,83.88c258.17,261.03,301.03,642.47,256.76,926.28
		c-131.83,845.19-27.36,1320.53-5.15,1407.15c2.85,11.1,5.07,22.48,6.37,33.81c4.68,40.82,5.98,79.56,4.13,116.28
		c0.05,0.04,0.06,0.05,0.11,0.08c-1.07,21.32-3.16,42-6.46,61.86c-6.36,38.29-46.91,123.67-52.83,133.11
		c-128.26,204.27-96.61,486.23-90.8,578.15c4.41,69.69,32.33,139.56,56.17,207.9c43.78,125.46,73.75,245.75-81.03,350.13
		c-23,15.51-50.04,30.68-81.76,45.45c-47.25,22.01-105.36,30.08-163.51,25.39c-69.06-5.56-138.14-29.14-189.12-68.78
		c45.17,51.11,171.18,116.87,280.92,159.87c62.1,24.33,118.97,41.38,153.01,44.35
		C8005.32,12855.47,8064.47,12847.5,8112.43,12825.16z"/>
	<path class="st2" d="M7865.01,12689.51c31.72-14.77,58.77-29.94,81.76-45.45c154.78-104.39,124.81-224.68,81.03-350.13
		c-23.85-68.34-51.77-138.22-56.17-207.9c-5.81-91.92-37.46-373.88,90.8-578.15c5.92-9.44,46.47-94.83,52.83-133.11
		c3.3-19.87,5.38-40.54,6.46-61.86c-0.05-0.04-0.06-0.04-0.11-0.08c1.84-36.72,0.54-75.46-4.13-116.28
		c-1.3-11.33-3.52-22.71-6.37-33.81c-22.21-86.62-126.68-561.96,5.15-1407.15c44.26-283.81,1.41-665.25-256.76-926.28
		c-29.29-29.62-61.37-57.68-96.39-83.88c-28-20.94-57.85-40.71-89.73-59.11c-225.67-130.2-579.94-231.84-1170.67-231.84
		c-1.56,0-3.09,0-4.63,0c-1.53,0-3.07,0-4.63,0c-590.73,0-986.69,37.39-1246.48,84.44c-287.24,52.01-576.61,293.88-523.3,635.65
		c146.47,939.08,0,2022.1,0,2022.1c-49.8,285.57,171.75,505.44,461.55,615.73c18.48,7.03,37.23,13.63,56.21,19.76
		c17.85,5.76,48.14,12.49,86.68,19.76c205.58,38.78,646.71,93.02,695.82,99.03c91.59,11.2,234.02,22.15,593.75-7.62
		c86.89-7.19,185.95,19.29,223.4,82.6c8.52,14.39,16.32,32.68,24.85,52.99c19.24,45.86,42.16,102.05,85.21,147.17
		c32.15,33.7,75.53,61.23,137.02,73.66c25.43,5.13,46.18,3.67,64.09-1.78c39.2-11.91,64.85-42.86,96.37-65.47
		c24.79-17.78,53.21-30.41,94.72-24.55c101.41,14.21,122.99,151.44,105.96,195.11c-0.54,1.39-0.99,2.75-1.5,4.12
		c-10.15,27.34-15.26,53.07-16.03,77.09c-2.19,68.28,30.45,122.84,80.62,161.85c50.98,39.64,120.06,63.22,189.12,68.78
		C7759.65,12719.59,7817.76,12711.52,7865.01,12689.51z M5501.08,10798.69c-189.83,0-343.72-213.45-343.72-476.76
		c0-263.31,153.89-476.76,343.72-476.76c189.83,0,343.72,213.45,343.72,476.76C5844.8,10585.24,5690.91,10798.69,5501.08,10798.69z
		 M6485.06,10955.5c-259.49,0-469.85-277.74-469.85-620.36s210.36-620.36,469.85-620.36c259.49,0,469.86,277.74,469.86,620.36
		S6744.56,10955.5,6485.06,10955.5z"/>
</g>
</svg>
