<?xml version="1.0" encoding="utf-8"?>
<!-- Generator: Adobe Illustrator 24.2.3, SVG Export Plug-In . SVG Version: 6.00 Build 0)  -->
<svg version="1.1" id="Layer_1" xmlns="http://www.w3.org/2000/svg" xmlns:xlink="http://www.w3.org/1999/xlink" x="0px" y="0px"
     viewBox="0 0 299.9 289" style="enable-background:new 0 0 299.9 289;" xml:space="preserve">
<style type="text/css">
	.st0{fill:#FFFFFF;}
	.st1{fill:#191919;}
	.st2{fill:url(#SVGID_1_);}
	.st3{fill:url(#SVGID_2_);}
	.st4{fill:url(#SVGID_3_);}
	.st5{fill:url(#SVGID_4_);}
	.st6{fill:url(#SVGID_5_);}
</style>
    <rect x="1651.1" y="-575.7" class="st0" width="1440" height="1450"/>
    <rect x="1611.1" y="869.3" class="st1" width="1558" height="1483"/>
    <linearGradient id="SVGID_1_" gradientUnits="userSpaceOnUse" x1="2417.5671" y1="-206.435" x2="2499.5706" y2="-112.5037">
	<stop  offset="0" style="stop-color:#FF6399"/>
        <stop  offset="1" style="stop-color:#804EFC"/>
</linearGradient>
    <path class="st2" d="M2406.8-101.2c-0.8-0.7-1.1-1.8-0.9-2.8c0.1-0.6,0.3-1.2,0.3-1.4c4.2-17.7,8.5-35.4,12.7-53.1
	c5.5-22.9,10.9-45.8,16.4-68.6c0.9-3.6,1.9-4.3,6.4-4.3c17.6,0,35.2,0,52.8,0c3,0,4.8,0.8,6.3,2.9c22.4,31.7,44.9,63.4,67.4,95
	c2.9,4.1,1.8,6.2-3.7,7.7c-28.4,7.7-56.8,15.4-85.2,23.1c-4.4,1.2-9,2.9-13.5,3c-17.9,0.3-35.8,0.1-53.6,0.2
	C2409.9-99.6,2408.1-100,2406.8-101.2z M2477.3-110.3c25.9-7,51.4-13.9,77-20.9c2.1-0.6,2.9-3,1.7-4.7c-18-25.3-35.8-50.4-53.9-75.8
	c-1.5-2.1-4.9-1.5-5.5,1.1c-7.8,32.5-15.4,64.5-23.1,96.7C2473-111.7,2475.1-109.7,2477.3-110.3z"/>
    <g>
	<polygon class="st1" points="2580.2,-211.9 2606.7,-170.9 2620.1,-170.9 2620.1,-234.3 2606.3,-234.3 2606.3,-193.3 2579.8,-234.3
		2566.4,-234.3 2566.4,-170.9 2580.2,-170.9 	"/>
        <polygon class="st1" points="2673.5,-182.4 2643.3,-182.4 2643.3,-197 2665.5,-197 2665.5,-208.1 2643.3,-208.1 2643.3,-222.8
		2673.5,-222.8 2673.5,-234.3 2629.5,-234.3 2629.5,-170.9 2673.5,-170.9 	"/>
        <polygon class="st1" points="2716.8,-170.9 2742.1,-234.3 2727.5,-234.3 2710,-189.2 2692.6,-234.3 2677.9,-234.3 2703.3,-170.9
		"/>
        <polygon class="st1" points="2793.7,-222.8 2793.7,-234.3 2749.7,-234.3 2749.7,-170.9 2755.9,-170.9 2793.7,-170.9 2793.7,-182.4
		2780.9,-182.4 2763.5,-182.4 2763.5,-197 2785.7,-197 2785.7,-208.1 2763.5,-208.1 2763.5,-222.8 	"/>
        <path class="st1" d="M2847.5-201.4c2.2-3.3,3.3-7.3,3.3-12c0-0.5,0-0.9,0-1.3l0,0c-0.3-6.1-2.3-10.9-6-14.2
		c-4-3.6-9.6-5.4-16.8-5.4h-27.5v42.8l27.2-12.6c-0.7,0.1-1.4,0.1-2.2,0.1h-11.2v-18.9h11.2c3.6,0,6.3,0.7,8.3,2.1
		c2,1.4,3,3.9,3,7.3c0,2.5-0.6,4.4-1.7,5.9l0,0c-0.4,0.5-0.8,0.9-1.3,1.3c-1.6,1.2-3.6,1.9-6.1,2.1l-27.2,12.6v20.5h13.8v0v-21.5
		h10.8l11.2,21.5h14.1l-12.1-23.2C2842.2-195.7,2845.3-198.1,2847.5-201.4z"/>
        <g>
		<path class="st1" d="M2637.8-119.1c-3.9-3.7-5.8-8.7-5.8-15c0-6.3,1.9-11.3,5.8-14.9c3.8-3.7,9.1-5.5,15.6-5.5
			c4.4,0,8.2,0.5,11.7,1.5c3.4,1,6.5,2.6,9.1,4.8v-13.1c-5.9-4-13.2-6-21.9-6c-6.8,0-12.8,1.3-18,4c-5.2,2.7-9.2,6.5-12.1,11.5
			s-4.3,10.8-4.3,17.5c0,6.7,1.4,12.5,4.3,17.5c1.2,2,2.5,3.9,4.1,5.5l13.6-6.3C2639.2-117.9,2638.5-118.4,2637.8-119.1z"/>
            <path class="st1" d="M2665.3-115.2c-3.4,1.1-7.4,1.6-11.9,1.6c-5.4,0-9.9-1.3-13.5-3.8l-13.6,6.3c2.2,2.4,4.9,4.4,8,6
			c5.2,2.7,11.2,4,18,4c9.6,0,17.1-2.1,22.7-6.2v-13.1C2672-117.9,2668.8-116.2,2665.3-115.2z"/>
	</g>
        <polygon class="st1" points="2781.2,-123.4 2761.7,-165.8 2748.1,-165.8 2748.1,-102.4 2761.3,-102.4 2761.3,-138.4 2778,-102.4
		2784.4,-102.4 2801.1,-138.4 2801.1,-102.4 2814.3,-102.4 2814.3,-165.8 2800.8,-165.8 	"/>
        <path class="st1" d="M2867.7-160.1c-4.3-3.8-10-5.7-17.2-5.7h-26.7v63.4h13.8V-123h12.9c7.3,0,13-1.8,17.3-5.5
		c4.3-3.7,6.4-9,6.4-15.9C2874.1-151.1,2872-156.4,2867.7-160.1z M2848.5-134.5h-10.9v-19.8h10.9c3.6,0,6.5,0.7,8.6,2.2
		c2.1,1.5,3.1,4,3.1,7.7C2860.2-137.8,2856.3-134.5,2848.5-134.5z"/>
        <polygon class="st1" points="2720.9,-154.8 2716.5,-165.7 2703,-165.7 2693.6,-142.2 2677.7,-102.3 2692.3,-102.3 2709.8,-147.4
		2727.2,-102.3 2741.9,-102.3 	"/>
</g>
    <g>
	<polygon class="st1" points="1909,-129.4 1934.8,-89.5 1947.8,-89.5 1947.8,-151.2 1934.4,-151.2 1934.4,-111.3 1908.6,-151.2
		1895.5,-151.2 1895.5,-89.5 1909,-89.5 	"/>
        <polygon class="st1" points="1999.9,-100.7 1970.4,-100.7 1970.4,-114.9 1992.1,-114.9 1992.1,-125.7 1970.4,-125.7 1970.4,-140
		1999.9,-140 1999.9,-151.2 1957,-151.2 1957,-89.5 1999.9,-89.5 	"/>
        <polygon class="st1" points="2042.1,-89.5 2066.7,-151.2 2052.5,-151.2 2035.4,-107.3 2018.5,-151.2 2004.2,-151.2 2028.9,-89.5
		"/>
        <polygon class="st1" points="2117,-140 2117,-151.2 2074.1,-151.2 2074.1,-89.5 2080.2,-89.5 2117,-89.5 2117,-100.7
		2104.5,-100.7 2087.6,-100.7 2087.6,-114.9 2109.2,-114.9 2109.2,-125.7 2087.6,-125.7 2087.6,-140 	"/>
        <path class="st1" d="M2169.3-119.1c2.1-3.2,3.2-7.1,3.2-11.7c0-0.4,0-0.9,0-1.3l0,0c-0.2-6-2.2-10.6-5.8-13.8
		c-3.9-3.5-9.4-5.3-16.4-5.3h-26.8v41.7l26.5-12.3c-0.7,0.1-1.4,0.1-2.1,0.1h-11V-140h11c3.5,0,6.2,0.7,8.1,2.1
		c1.9,1.4,2.9,3.8,2.9,7.1c0,2.4-0.6,4.3-1.7,5.7l0,0c-0.4,0.5-0.8,0.9-1.3,1.2c-1.5,1.1-3.5,1.8-5.9,2.1l-26.5,12.3v20h13.4v0
		v-20.9h10.5l10.9,20.9h13.8l-11.8-22.6C2164.2-113.6,2167.2-115.9,2169.3-119.1z"/>
        <g>
		<path class="st1" d="M1965.1-39c-3.8-3.6-5.7-8.4-5.7-14.6c0-6.1,1.9-11,5.6-14.5c3.7-3.6,8.8-5.3,15.2-5.3c4.2,0,8,0.5,11.4,1.5
			c3.3,1,6.3,2.5,8.9,4.7V-80c-5.7-3.9-12.8-5.8-21.4-5.8c-6.6,0-12.4,1.3-17.5,3.9s-9,6.4-11.8,11.2c-2.8,4.9-4.2,10.6-4.2,17.1
			c0,6.5,1.4,12.2,4.2,17c1.1,2,2.5,3.8,4,5.4l13.3-6.1C1966.5-37.8,1965.8-38.4,1965.1-39z"/>
            <path class="st1" d="M1991.9-35.2c-3.4,1-7.2,1.5-11.6,1.5c-5.3,0-9.7-1.2-13.1-3.7l-13.3,6.1c2.2,2.3,4.8,4.3,7.8,5.8
			c5.1,2.6,10.9,3.9,17.5,3.9c9.3,0,16.7-2,22.1-6v-12.7C1998.4-37.9,1995.3-36.2,1991.9-35.2z"/>
	</g>
        <polygon class="st1" points="2104.8,-43.2 2085.8,-84.5 2072.6,-84.5 2072.6,-22.8 2085.4,-22.8 2085.4,-57.8 2101.7,-22.8
		2107.9,-22.8 2124.2,-57.8 2124.2,-22.8 2137,-22.8 2137,-84.5 2123.9,-84.5 	"/>
        <path class="st1" d="M2189.1-79c-4.2-3.7-9.8-5.5-16.8-5.5h-26v61.7h13.4v-20.1h12.5c7.1,0,12.7-1.8,16.8-5.4
		c4.2-3.6,6.2-8.7,6.2-15.5C2195.3-70.2,2193.2-75.3,2189.1-79z M2170.3-54h-10.6v-19.3h10.6c3.5,0,6.3,0.7,8.3,2.1
		c2,1.4,3,3.9,3,7.5C2181.7-57.2,2177.9-54,2170.3-54z"/>
        <polygon class="st1" points="2046.1,-73.7 2041.8,-84.4 2028.7,-84.4 2019.5,-61.5 2004,-22.7 2018.2,-22.7 2035.3,-66.6
		2052.2,-22.7 2066.5,-22.7 	"/>
</g>
    <linearGradient id="SVGID_2_" gradientUnits="userSpaceOnUse" x1="1907.6802" y1="-284.2613" x2="1993.0648" y2="-186.4571">
	<stop  offset="0" style="stop-color:#FF6399"/>
        <stop  offset="1" style="stop-color:#804EFC"/>
</linearGradient>
    <path class="st3" d="M1896.5-174.7c-0.8-0.7-1.2-1.9-0.9-3c0.1-0.7,0.3-1.3,0.3-1.5c4.4-18.4,8.8-36.8,13.2-55.3
	c5.7-23.8,11.4-47.7,17.1-71.5c0.9-3.8,2-4.5,6.6-4.5c18.3,0,36.6,0,54.9,0c3.1,0,5,0.9,6.5,3c23.4,33,46.8,66,70.2,99
	c3,4.2,1.9,6.5-3.9,8c-29.6,8-59.1,16-88.7,24c-4.6,1.2-9.3,3-14.1,3.1c-18.6,0.4-37.2,0.1-55.8,0.2
	C1899.7-173.1,1897.9-173.5,1896.5-174.7z M1969.9-184.2c27-7.3,53.5-14.5,80.2-21.7c2.1-0.6,3-3.1,1.8-4.9
	c-18.7-26.4-37.3-52.5-56.1-78.9c-1.6-2.2-5.1-1.6-5.7,1.1c-8.1,33.8-16.1,67.1-24.1,100.7C1965.4-185.7,1967.5-183.6,1969.9-184.2z
	"/>
    <path class="st1" d="M2407,453.9c-0.8-0.7-1.1-1.8-0.9-2.8c0.1-0.6,0.3-1.2,0.3-1.4c4.2-17.7,8.5-35.4,12.7-53.1
	c5.5-22.9,10.9-45.8,16.4-68.6c0.9-3.6,1.9-4.3,6.4-4.3c17.6,0,35.2,0,52.8,0c3,0,4.8,0.8,6.3,2.9c22.4,31.7,44.9,63.4,67.4,95
	c2.9,4.1,1.8,6.2-3.7,7.7c-28.4,7.7-56.8,15.4-85.2,23.1c-4.4,1.2-9,2.9-13.5,3c-17.9,0.3-35.8,0.1-53.6,0.2
	C2410.1,455.5,2408.3,455.1,2407,453.9z M2477.5,444.8c25.9-7,51.4-13.9,77-20.9c2.1-0.6,2.9-3,1.7-4.7
	c-18-25.3-35.8-50.4-53.9-75.8c-1.5-2.1-4.9-1.5-5.5,1.1c-7.8,32.5-15.4,64.5-23.1,96.7C2473.2,443.4,2475.2,445.4,2477.5,444.8z"/>
    <g>
	<polygon class="st1" points="2580.3,343.2 2606.9,384.2 2620.2,384.2 2620.2,320.8 2606.5,320.8 2606.5,361.8 2580,320.8
		2566.6,320.8 2566.6,384.2 2580.3,384.2 	"/>
        <polygon class="st1" points="2673.6,372.7 2643.4,372.7 2643.4,358.1 2665.7,358.1 2665.7,347 2643.4,347 2643.4,332.3
		2673.6,332.3 2673.6,320.8 2629.7,320.8 2629.7,384.2 2673.6,384.2 	"/>
        <polygon class="st1" points="2717,384.2 2742.3,320.8 2727.7,320.8 2710.2,365.9 2692.8,320.8 2678.1,320.8 2703.5,384.2 	"/>
        <polygon class="st1" points="2793.9,332.3 2793.9,320.8 2749.9,320.8 2749.9,384.2 2756.1,384.2 2793.9,384.2 2793.9,372.7
		2781,372.7 2763.7,372.7 2763.7,358.1 2785.9,358.1 2785.9,347 2763.7,347 2763.7,332.3 	"/>
        <path class="st1" d="M2847.6,353.8c2.2-3.3,3.3-7.3,3.3-12c0-0.5,0-0.9,0-1.3l0,0c-0.3-6.1-2.3-10.9-6-14.2
		c-4-3.6-9.6-5.4-16.8-5.4h-27.5v42.8l27.2-12.6c-0.7,0.1-1.4,0.1-2.2,0.1h-11.2v-18.9h11.2c3.6,0,6.3,0.7,8.3,2.1
		c2,1.4,3,3.9,3,7.3c0,2.5-0.6,4.4-1.7,5.9l0,0c-0.4,0.5-0.8,0.9-1.3,1.3c-1.6,1.2-3.6,1.9-6.1,2.1l-27.2,12.6v20.5h13.8v0v-21.5
		h10.8l11.2,21.5h14.1l-12.1-23.2C2842.4,359.5,2845.5,357,2847.6,353.8z"/>
        <g>
		<path class="st1" d="M2638,436.1c-3.9-3.7-5.8-8.7-5.8-15c0-6.3,1.9-11.3,5.8-14.9c3.8-3.7,9.1-5.5,15.6-5.5
			c4.4,0,8.2,0.5,11.7,1.5c3.4,1,6.5,2.6,9.1,4.8v-13.1c-5.9-4-13.2-6-21.9-6c-6.8,0-12.8,1.3-18,4c-5.2,2.7-9.2,6.5-12.1,11.5
			c-2.8,5-4.3,10.8-4.3,17.5c0,6.7,1.4,12.5,4.3,17.5c1.2,2,2.5,3.9,4.1,5.5l13.6-6.3C2639.4,437.2,2638.7,436.7,2638,436.1z"/>
            <path class="st1" d="M2665.5,440c-3.4,1.1-7.4,1.6-11.9,1.6c-5.4,0-9.9-1.3-13.5-3.8l-13.6,6.3c2.2,2.4,4.9,4.4,8,6
			c5.2,2.7,11.2,4,18,4c9.6,0,17.1-2.1,22.7-6.2v-13.1C2672.1,437.2,2668.9,438.9,2665.5,440z"/>
	</g>
        <polygon class="st1" points="2781.4,431.7 2761.9,389.3 2748.3,389.3 2748.3,452.7 2761.5,452.7 2761.5,416.7 2778.2,452.7
		2784.5,452.7 2801.3,416.7 2801.3,452.7 2814.5,452.7 2814.5,389.3 2801,389.3 	"/>
        <path class="st1" d="M2867.9,395c-4.3-3.8-10-5.7-17.2-5.7H2824v63.4h13.8v-20.6h12.9c7.3,0,13-1.8,17.3-5.5
		c4.3-3.7,6.4-9,6.4-15.9C2874.3,404,2872.2,398.8,2867.9,395z M2848.7,420.6h-10.9v-19.8h10.9c3.6,0,6.5,0.7,8.6,2.2
		c2.1,1.5,3.1,4,3.1,7.7C2860.3,417.3,2856.5,420.6,2848.7,420.6z"/>
        <polygon class="st1" points="2721.1,400.3 2716.7,389.4 2703.2,389.4 2693.8,413 2677.9,452.8 2692.5,452.8 2710,407.7
		2727.4,452.8 2742.1,452.8 	"/>
</g>
    <g>
	<polygon class="st1" points="1909.1,425.7 1935,465.6 1948,465.6 1948,403.9 1934.6,403.9 1934.6,443.8 1908.8,403.9 1895.7,403.9
		1895.7,465.6 1909.1,465.6 	"/>
        <polygon class="st1" points="2000,454.4 1970.6,454.4 1970.6,440.2 1992.3,440.2 1992.3,429.4 1970.6,429.4 1970.6,415.1
		2000,415.1 2000,403.9 1957.2,403.9 1957.2,465.6 2000,465.6 	"/>
        <polygon class="st1" points="2042.3,465.6 2066.9,403.9 2052.7,403.9 2035.6,447.8 2018.7,403.9 2004.4,403.9 2029.1,465.6 	"/>
        <polygon class="st1" points="2117.2,415.1 2117.2,403.9 2074.3,403.9 2074.3,465.6 2080.4,465.6 2117.2,465.6 2117.2,454.4
		2104.7,454.4 2087.7,454.4 2087.7,440.2 2109.4,440.2 2109.4,429.4 2087.7,429.4 2087.7,415.1 	"/>
        <path class="st1" d="M2169.5,436c2.1-3.2,3.2-7.1,3.2-11.7c0-0.4,0-0.9,0-1.3l0,0c-0.2-6-2.2-10.6-5.8-13.8
		c-3.9-3.5-9.4-5.3-16.4-5.3h-26.8v41.7l26.5-12.3c-0.7,0.1-1.4,0.1-2.1,0.1h-11v-18.4h11c3.5,0,6.2,0.7,8.1,2.1
		c1.9,1.4,2.9,3.8,2.9,7.1c0,2.4-0.6,4.3-1.7,5.7l0,0c-0.4,0.5-0.8,0.9-1.3,1.2c-1.5,1.1-3.5,1.8-5.9,2.1l-26.5,12.3v20h13.4v0
		v-20.9h10.5l10.9,20.9h13.8l-11.8-22.6C2164.4,441.5,2167.4,439.2,2169.5,436z"/>
        <g>
		<path class="st1" d="M1965.3,516.1c-3.8-3.6-5.7-8.4-5.7-14.6c0-6.1,1.9-11,5.6-14.5c3.7-3.6,8.8-5.3,15.2-5.3
			c4.2,0,8,0.5,11.4,1.5c3.3,1,6.3,2.5,8.9,4.7v-12.7c-5.7-3.9-12.8-5.8-21.4-5.8c-6.6,0-12.4,1.3-17.5,3.9s-9,6.4-11.8,11.2
			c-2.8,4.9-4.2,10.6-4.2,17.1c0,6.5,1.4,12.2,4.2,17c1.1,2,2.5,3.8,4,5.4l13.3-6.1C1966.7,517.3,1966,516.8,1965.3,516.1z"/>
            <path class="st1" d="M1992.1,519.9c-3.4,1-7.2,1.5-11.6,1.5c-5.3,0-9.7-1.2-13.1-3.7l-13.3,6.1c2.2,2.3,4.8,4.3,7.8,5.8
			c5.1,2.6,10.9,3.9,17.5,3.9c9.3,0,16.7-2,22.1-6V515C1998.6,517.3,1995.4,518.9,1992.1,519.9z"/>
	</g>
        <polygon class="st1" points="2105,512 2086,470.6 2072.7,470.6 2072.7,532.4 2085.6,532.4 2085.6,497.3 2101.9,532.4 2108.1,532.4
		2124.4,497.3 2124.4,532.4 2137.2,532.4 2137.2,470.6 2124.1,470.6 	"/>
        <path class="st1" d="M2189.2,476.1c-4.2-3.7-9.8-5.5-16.8-5.5h-26v61.7h13.4v-20.1h12.5c7.1,0,12.7-1.8,16.8-5.4
		c4.2-3.6,6.2-8.7,6.2-15.5C2195.5,484.9,2193.4,479.8,2189.2,476.1z M2170.5,501.1h-10.6v-19.3h10.6c3.5,0,6.3,0.7,8.3,2.1
		c2,1.4,3,3.9,3,7.5C2181.9,497.9,2178.1,501.1,2170.5,501.1z"/>
        <polygon class="st1" points="2046.3,481.4 2042,470.7 2028.8,470.7 2019.7,493.6 2004.2,532.4 2018.4,532.4 2035.5,488.5
		2052.4,532.4 2066.7,532.4 	"/>
</g>
    <path class="st1" d="M1896.7,380.4c-0.8-0.7-1.2-1.9-0.9-3c0.1-0.7,0.3-1.3,0.3-1.5c4.4-18.4,8.8-36.8,13.2-55.3
	c5.7-23.8,11.4-47.7,17.1-71.5c0.9-3.8,2-4.5,6.6-4.5c18.3,0,36.6,0,54.9,0c3.1,0,5,0.9,6.5,3c23.4,33,46.8,66,70.2,99
	c3,4.2,1.9,6.5-3.9,8c-29.6,8-59.1,16-88.7,24c-4.6,1.2-9.3,3-14.1,3.1c-18.6,0.4-37.2,0.1-55.8,0.2
	C1899.9,382,1898,381.6,1896.7,380.4z M1970.1,370.9c27-7.3,53.5-14.5,80.2-21.7c2.1-0.6,3-3.1,1.8-4.9
	c-18.7-26.4-37.3-52.5-56.1-78.9c-1.6-2.2-5.1-1.6-5.7,1.1c-8.1,33.8-16.1,67.1-24.1,100.7C1965.6,369.4,1967.7,371.5,1970.1,370.9z
	"/>
    <linearGradient id="SVGID_3_" gradientUnits="userSpaceOnUse" x1="2417.6592" y1="1258.6932" x2="2499.6628" y2="1352.6246">
	<stop  offset="0" style="stop-color:#FF6399"/>
        <stop  offset="1" style="stop-color:#804EFC"/>
</linearGradient>
    <path class="st4" d="M2406.9,1363.9c-0.8-0.7-1.1-1.8-0.9-2.8c0.1-0.6,0.3-1.2,0.3-1.4c4.2-17.7,8.5-35.4,12.7-53.1
	c5.5-22.9,10.9-45.8,16.4-68.6c0.9-3.6,1.9-4.3,6.4-4.3c17.6,0,35.2,0,52.8,0c3,0,4.8,0.8,6.3,2.9c22.4,31.7,44.9,63.4,67.4,95
	c2.9,4.1,1.8,6.2-3.7,7.7c-28.4,7.7-56.8,15.4-85.2,23.1c-4.4,1.2-9,2.9-13.5,3c-17.9,0.3-35.8,0.1-53.6,0.2
	C2410,1365.5,2408.2,1365.1,2406.9,1363.9z M2477.4,1354.8c25.9-7,51.4-13.9,77-20.9c2.1-0.6,2.9-3,1.7-4.7
	c-18-25.3-35.8-50.4-53.9-75.8c-1.5-2.1-4.9-1.5-5.5,1.1c-7.8,32.5-15.4,64.5-23.1,96.7C2473.1,1353.4,2475.2,1355.4,2477.4,1354.8z
	"/>
    <g>
	<polygon class="st0" points="2580.2,1253.2 2606.8,1294.2 2620.1,1294.2 2620.1,1230.8 2606.4,1230.8 2606.4,1271.8 2579.9,1230.8
		2566.5,1230.8 2566.5,1294.2 2580.2,1294.2 	"/>
        <polygon class="st0" points="2673.6,1282.7 2643.4,1282.7 2643.4,1268.1 2665.6,1268.1 2665.6,1257 2643.4,1257 2643.4,1242.3
		2673.6,1242.3 2673.6,1230.8 2629.6,1230.8 2629.6,1294.2 2673.6,1294.2 	"/>
        <polygon class="st0" points="2716.9,1294.2 2742.2,1230.8 2727.6,1230.8 2710.1,1275.9 2692.7,1230.8 2678,1230.8 2703.4,1294.2
		"/>
        <polygon class="st0" points="2793.8,1242.3 2793.8,1230.8 2749.8,1230.8 2749.8,1294.2 2756,1294.2 2793.8,1294.2 2793.8,1282.7
		2780.9,1282.7 2763.6,1282.7 2763.6,1268.1 2785.8,1268.1 2785.8,1257 2763.6,1257 2763.6,1242.3 	"/>
        <path class="st0" d="M2847.6,1263.8c2.2-3.3,3.3-7.3,3.3-12c0-0.5,0-0.9,0-1.3l0,0c-0.3-6.1-2.3-10.9-6-14.2
		c-4-3.6-9.6-5.4-16.8-5.4h-27.5v42.8l27.2-12.6c-0.7,0.1-1.4,0.1-2.2,0.1h-11.2v-18.9h11.2c3.6,0,6.3,0.7,8.3,2.1
		c2,1.4,3,3.9,3,7.3c0,2.5-0.6,4.4-1.7,5.9l0,0c-0.4,0.5-0.8,0.9-1.3,1.3c-1.6,1.2-3.6,1.9-6.1,2.1l-27.2,12.6v20.5h13.8v0v-21.5
		h10.8l11.2,21.5h14.1l-12.1-23.2C2842.3,1269.5,2845.4,1267.1,2847.6,1263.8z"/>
        <g>
		<path class="st0" d="M2637.9,1346.1c-3.9-3.7-5.8-8.7-5.8-15c0-6.3,1.9-11.3,5.8-14.9c3.8-3.7,9.1-5.5,15.6-5.5
			c4.4,0,8.2,0.5,11.7,1.5c3.4,1,6.5,2.6,9.1,4.8V1304c-5.9-4-13.2-6-21.9-6c-6.8,0-12.8,1.3-18,4c-5.2,2.7-9.2,6.5-12.1,11.5
			c-2.8,5-4.3,10.8-4.3,17.5s1.4,12.5,4.3,17.5c1.2,2,2.5,3.9,4.1,5.5l13.6-6.3C2639.3,1347.3,2638.6,1346.7,2637.9,1346.1z"/>
            <path class="st0" d="M2665.4,1350c-3.4,1.1-7.4,1.6-11.9,1.6c-5.4,0-9.9-1.3-13.5-3.8l-13.6,6.3c2.2,2.4,4.9,4.4,8,6
			c5.2,2.7,11.2,4,18,4c9.6,0,17.1-2.1,22.7-6.2v-13.1C2672,1347.2,2668.8,1348.9,2665.4,1350z"/>
	</g>
        <polygon class="st0" points="2781.3,1341.8 2761.8,1299.3 2748.2,1299.3 2748.2,1362.7 2761.4,1362.7 2761.4,1326.7 2778.1,1362.7
		2784.5,1362.7 2801.2,1326.7 2801.2,1362.7 2814.4,1362.7 2814.4,1299.3 2800.9,1299.3 	"/>
        <path class="st0" d="M2867.8,1305c-4.3-3.8-10-5.7-17.2-5.7h-26.7v63.4h13.8v-20.6h12.9c7.3,0,13-1.8,17.3-5.5
		c4.3-3.7,6.4-9,6.4-15.9C2874.2,1314,2872.1,1308.8,2867.8,1305z M2848.6,1330.6h-10.9v-19.8h10.9c3.6,0,6.5,0.7,8.6,2.2
		c2.1,1.5,3.1,4,3.1,7.7C2860.3,1327.3,2856.4,1330.6,2848.6,1330.6z"/>
        <polygon class="st0" points="2721,1310.4 2716.6,1299.4 2703.1,1299.4 2693.7,1323 2677.8,1362.8 2692.4,1362.8 2709.9,1317.7
		2727.3,1362.8 2742,1362.8 	"/>
</g>
    <g>
	<polygon class="st0" points="1909.1,1335.7 1934.9,1375.6 1947.9,1375.6 1947.9,1313.9 1934.5,1313.9 1934.5,1353.8 1908.7,1313.9
		1895.6,1313.9 1895.6,1375.6 1909.1,1375.6 	"/>
        <polygon class="st0" points="1999.9,1364.4 1970.5,1364.4 1970.5,1350.2 1992.2,1350.2 1992.2,1339.4 1970.5,1339.4 1970.5,1325.1
		1999.9,1325.1 1999.9,1313.9 1957.1,1313.9 1957.1,1375.6 1999.9,1375.6 	"/>
        <polygon class="st0" points="2042.2,1375.6 2066.8,1313.9 2052.6,1313.9 2035.5,1357.8 2018.6,1313.9 2004.3,1313.9 2029,1375.6
		"/>
        <polygon class="st0" points="2117.1,1325.1 2117.1,1313.9 2074.2,1313.9 2074.2,1375.6 2080.3,1375.6 2117.1,1375.6 2117.1,1364.4
		2104.6,1364.4 2087.7,1364.4 2087.7,1350.2 2109.3,1350.2 2109.3,1339.4 2087.7,1339.4 2087.7,1325.1 	"/>
        <path class="st0" d="M2169.4,1346c2.1-3.2,3.2-7.1,3.2-11.7c0-0.4,0-0.9,0-1.3l0,0c-0.2-6-2.2-10.6-5.8-13.8
		c-3.9-3.5-9.4-5.3-16.4-5.3h-26.8v41.7l26.5-12.3c-0.7,0.1-1.4,0.1-2.1,0.1h-11v-18.4h11c3.5,0,6.2,0.7,8.1,2.1
		c1.9,1.4,2.9,3.8,2.9,7.1c0,2.4-0.6,4.3-1.7,5.7l0,0c-0.4,0.5-0.8,0.9-1.3,1.2c-1.5,1.1-3.5,1.8-5.9,2.1l-26.5,12.3v20h13.4v0
		v-20.9h10.5l10.9,20.9h13.8l-11.8-22.6C2164.3,1351.6,2167.3,1349.2,2169.4,1346z"/>
        <g>
		<path class="st0" d="M1965.2,1426.2c-3.8-3.6-5.7-8.4-5.7-14.6c0-6.1,1.9-11,5.6-14.5c3.7-3.6,8.8-5.3,15.2-5.3
			c4.2,0,8,0.5,11.4,1.5c3.3,1,6.3,2.5,8.9,4.7v-12.7c-5.7-3.9-12.8-5.8-21.4-5.8c-6.6,0-12.4,1.3-17.5,3.9
			c-5.1,2.6-9,6.4-11.8,11.2c-2.8,4.9-4.2,10.6-4.2,17.1c0,6.5,1.4,12.2,4.2,17c1.1,2,2.5,3.8,4,5.4l13.3-6.1
			C1966.6,1427.3,1965.9,1426.8,1965.2,1426.2z"/>
            <path class="st0" d="M1992,1430c-3.4,1-7.2,1.5-11.6,1.5c-5.3,0-9.7-1.2-13.1-3.7l-13.3,6.1c2.2,2.3,4.8,4.3,7.8,5.8
			c5.1,2.6,10.9,3.9,17.5,3.9c9.3,0,16.7-2,22.1-6V1425C1998.5,1427.3,1995.4,1428.9,1992,1430z"/>
	</g>
        <polygon class="st0" points="2104.9,1422 2085.9,1380.6 2072.6,1380.6 2072.6,1442.4 2085.5,1442.4 2085.5,1407.3 2101.8,1442.4
		2108,1442.4 2124.3,1407.3 2124.3,1442.4 2137.1,1442.4 2137.1,1380.6 2124,1380.6 	"/>
        <path class="st0" d="M2189.2,1386.2c-4.2-3.7-9.8-5.5-16.8-5.5h-26v61.7h13.4v-20.1h12.5c7.1,0,12.7-1.8,16.8-5.4
		c4.2-3.6,6.2-8.7,6.2-15.5C2195.4,1394.9,2193.3,1389.8,2189.2,1386.2z M2170.4,1411.1h-10.6v-19.3h10.6c3.5,0,6.3,0.7,8.3,2.1
		c2,1.4,3,3.9,3,7.5C2181.8,1407.9,2178,1411.1,2170.4,1411.1z"/>
        <polygon class="st0" points="2046.2,1391.4 2041.9,1380.7 2028.7,1380.7 2019.6,1403.7 2004.1,1442.5 2018.3,1442.5 2035.4,1398.6
		2052.3,1442.5 2066.6,1442.5 	"/>
</g>
    <linearGradient id="SVGID_4_" gradientUnits="userSpaceOnUse" x1="1907.7723" y1="1180.8669" x2="1993.157" y2="1278.6711">
	<stop  offset="0" style="stop-color:#FF6399"/>
        <stop  offset="1" style="stop-color:#804EFC"/>
</linearGradient>
    <path class="st5" d="M1896.6,1290.4c-0.8-0.7-1.2-1.9-0.9-3c0.1-0.7,0.3-1.3,0.3-1.5c4.4-18.4,8.8-36.8,13.2-55.3
	c5.7-23.8,11.4-47.7,17.1-71.5c0.9-3.8,2-4.5,6.6-4.5c18.3,0,36.6,0,54.9,0c3.1,0,5,0.9,6.5,3c23.4,33,46.8,66,70.2,99
	c3,4.2,1.9,6.5-3.9,8c-29.6,8-59.1,16-88.7,24c-4.6,1.2-9.3,3-14.1,3.1c-18.6,0.4-37.2,0.1-55.8,0.2
	C1899.8,1292.1,1897.9,1291.6,1896.6,1290.4z M1970,1280.9c27-7.3,53.5-14.5,80.2-21.7c2.1-0.6,3-3.1,1.8-4.9
	c-18.7-26.4-37.3-52.5-56.1-78.9c-1.6-2.2-5.1-1.6-5.7,1.1c-8.1,33.8-16.1,67.1-24.1,100.7C1965.5,1279.5,1967.6,1281.6,1970,1280.9
	z"/>
    <path class="st0" d="M2407.1,1919c-0.8-0.7-1.1-1.8-0.9-2.8c0.1-0.6,0.3-1.2,0.3-1.4c4.2-17.7,8.5-35.4,12.7-53.1
	c5.5-22.9,10.9-45.8,16.4-68.6c0.9-3.6,1.9-4.3,6.4-4.3c17.6,0,35.2,0,52.8,0c3,0,4.8,0.8,6.3,2.9c22.4,31.7,44.9,63.4,67.4,95
	c2.9,4.1,1.8,6.2-3.7,7.7c-28.4,7.7-56.8,15.4-85.2,23.1c-4.4,1.2-9,2.9-13.5,3c-17.9,0.3-35.8,0.1-53.6,0.2
	C2410.2,1920.6,2408.4,1920.2,2407.1,1919z M2477.6,1909.9c25.9-7,51.4-13.9,77-20.9c2.1-0.6,2.9-3,1.7-4.7
	c-18-25.3-35.8-50.4-53.9-75.8c-1.5-2.1-4.9-1.5-5.5,1.1c-7.8,32.5-15.4,64.5-23.1,96.7C2473.3,1908.5,2475.3,1910.5,2477.6,1909.9z
	"/>
    <g>
	<polygon class="st0" points="2580.4,1808.3 2607,1849.3 2620.3,1849.3 2620.3,1785.9 2606.5,1785.9 2606.5,1826.9 2580.1,1785.9
		2566.7,1785.9 2566.7,1849.3 2580.4,1849.3 	"/>
        <polygon class="st0" points="2673.7,1837.8 2643.5,1837.8 2643.5,1823.2 2665.8,1823.2 2665.8,1812.1 2643.5,1812.1 2643.5,1797.4
		2673.7,1797.4 2673.7,1785.9 2629.8,1785.9 2629.8,1849.3 2673.7,1849.3 	"/>
        <polygon class="st0" points="2717.1,1849.3 2742.4,1785.9 2727.8,1785.9 2710.3,1831 2692.9,1785.9 2678.2,1785.9 2703.6,1849.3
		"/>
        <polygon class="st0" points="2794,1797.4 2794,1785.9 2750,1785.9 2750,1849.3 2756.2,1849.3 2794,1849.3 2794,1837.8
		2781.1,1837.8 2763.8,1837.8 2763.8,1823.2 2786,1823.2 2786,1812.1 2763.8,1812.1 2763.8,1797.4 	"/>
        <path class="st0" d="M2847.7,1818.9c2.2-3.3,3.3-7.3,3.3-12c0-0.5,0-0.9,0-1.3l0,0c-0.3-6.1-2.3-10.9-6-14.2
		c-4-3.6-9.6-5.4-16.8-5.4h-27.5v42.8l27.2-12.6c-0.7,0.1-1.4,0.1-2.2,0.1h-11.2v-18.9h11.2c3.6,0,6.3,0.7,8.3,2.1
		c2,1.4,3,3.9,3,7.3c0,2.5-0.6,4.4-1.7,5.9l0,0c-0.4,0.5-0.8,0.9-1.3,1.3c-1.6,1.2-3.6,1.9-6.1,2.1l-27.2,12.6v20.5h13.8v0v-21.5
		h10.8l11.2,21.5h14.1l-12.1-23.2C2842.5,1824.6,2845.6,1822.2,2847.7,1818.9z"/>
        <g>
		<path class="st0" d="M2638.1,1901.2c-3.9-3.7-5.8-8.7-5.8-15c0-6.3,1.9-11.3,5.8-14.9c3.8-3.7,9.1-5.5,15.6-5.5
			c4.4,0,8.2,0.5,11.7,1.5c3.4,1,6.5,2.6,9.1,4.8v-13.1c-5.9-4-13.2-6-21.9-6c-6.8,0-12.8,1.3-18,4s-9.2,6.5-12.1,11.5
			s-4.3,10.8-4.3,17.5s1.4,12.5,4.3,17.5c1.2,2,2.5,3.9,4.1,5.5l13.6-6.3C2639.5,1902.4,2638.8,1901.8,2638.1,1901.2z"/>
            <path class="st0" d="M2665.6,1905.1c-3.4,1.1-7.4,1.6-11.9,1.6c-5.4,0-9.9-1.3-13.5-3.8l-13.6,6.3c2.2,2.4,4.9,4.4,8,6
			c5.2,2.7,11.2,4,18,4c9.6,0,17.1-2.1,22.7-6.2V1900C2672.2,1902.3,2669,1904,2665.6,1905.1z"/>
	</g>
        <polygon class="st0" points="2781.5,1896.9 2762,1854.4 2748.4,1854.4 2748.4,1917.8 2761.6,1917.8 2761.6,1881.8 2778.3,1917.8
		2784.6,1917.8 2801.4,1881.8 2801.4,1917.8 2814.6,1917.8 2814.6,1854.4 2801.1,1854.4 	"/>
        <path class="st0" d="M2868,1860.1c-4.3-3.8-10-5.7-17.2-5.7h-26.7v63.4h13.8v-20.6h12.9c7.3,0,13-1.8,17.3-5.5
		c4.3-3.7,6.4-9,6.4-15.9C2874.4,1869.1,2872.3,1863.9,2868,1860.1z M2848.7,1885.7h-10.9v-19.8h10.9c3.6,0,6.5,0.7,8.6,2.2
		c2.1,1.5,3.1,4,3.1,7.7C2860.4,1882.4,2856.5,1885.7,2848.7,1885.7z"/>
        <polygon class="st0" points="2721.2,1865.5 2716.8,1854.5 2703.3,1854.5 2693.9,1878.1 2678,1917.9 2692.6,1917.9 2710.1,1872.8
		2727.5,1917.9 2742.2,1917.9 	"/>
</g>
    <g>
	<polygon class="st0" points="1909.2,1890.8 1935.1,1930.7 1948.1,1930.7 1948.1,1869 1934.7,1869 1934.7,1908.9 1908.9,1869
		1895.8,1869 1895.8,1930.7 1909.2,1930.7 	"/>
        <polygon class="st0" points="2000.1,1919.5 1970.7,1919.5 1970.7,1905.3 1992.4,1905.3 1992.4,1894.5 1970.7,1894.5 1970.7,1880.2
		2000.1,1880.2 2000.1,1869 1957.3,1869 1957.3,1930.7 2000.1,1930.7 	"/>
        <polygon class="st0" points="2042.4,1930.7 2067,1869 2052.8,1869 2035.7,1912.9 2018.8,1869 2004.5,1869 2029.2,1930.7 	"/>
        <polygon class="st0" points="2117.3,1880.2 2117.3,1869 2074.4,1869 2074.4,1930.7 2080.5,1930.7 2117.3,1930.7 2117.3,1919.5
		2104.7,1919.5 2087.8,1919.5 2087.8,1905.3 2109.5,1905.3 2109.5,1894.5 2087.8,1894.5 2087.8,1880.2 	"/>
        <path class="st0" d="M2169.6,1901.1c2.1-3.2,3.2-7.1,3.2-11.7c0-0.4,0-0.9,0-1.3l0,0c-0.2-6-2.2-10.6-5.8-13.8
		c-3.9-3.5-9.4-5.3-16.4-5.3h-26.8v41.7l26.5-12.3c-0.7,0.1-1.4,0.1-2.1,0.1h-11v-18.4h11c3.5,0,6.2,0.7,8.1,2.1
		c1.9,1.4,2.9,3.8,2.9,7.1c0,2.4-0.6,4.3-1.7,5.7l0,0c-0.4,0.5-0.8,0.9-1.3,1.2c-1.5,1.1-3.5,1.8-5.9,2.1l-26.5,12.3v20h13.4v0
		v-20.9h10.5l10.9,20.9h13.8l-11.8-22.6C2164.5,1906.7,2167.5,1904.3,2169.6,1901.1z"/>
        <g>
		<path class="st0" d="M1965.4,1981.3c-3.8-3.6-5.7-8.4-5.7-14.6c0-6.1,1.9-11,5.6-14.5c3.7-3.6,8.8-5.3,15.2-5.3
			c4.2,0,8,0.5,11.4,1.5c3.3,1,6.3,2.5,8.9,4.7v-12.7c-5.7-3.9-12.8-5.8-21.4-5.8c-6.6,0-12.4,1.3-17.5,3.9s-9,6.4-11.8,11.2
			c-2.8,4.9-4.2,10.6-4.2,17.1s1.4,12.2,4.2,17c1.1,2,2.5,3.8,4,5.4l13.3-6.1C1966.7,1982.4,1966.1,1981.9,1965.4,1981.3z"/>
            <path class="st0" d="M1992.2,1985.1c-3.4,1-7.2,1.5-11.6,1.5c-5.3,0-9.7-1.2-13.1-3.7l-13.3,6.1c2.2,2.3,4.8,4.3,7.8,5.8
			c5.1,2.6,10.9,3.9,17.5,3.9c9.3,0,16.7-2,22.1-6v-12.7C1998.7,1982.4,1995.5,1984,1992.2,1985.1z"/>
	</g>
        <polygon class="st0" points="2105.1,1977.1 2086.1,1935.7 2072.8,1935.7 2072.8,1997.5 2085.7,1997.5 2085.7,1962.4 2102,1997.5
		2108.2,1997.5 2124.5,1962.4 2124.5,1997.5 2137.3,1997.5 2137.3,1935.7 2124.1,1935.7 	"/>
        <path class="st0" d="M2189.3,1941.3c-4.2-3.7-9.8-5.5-16.8-5.5h-26v61.7h13.4v-20.1h12.5c7.1,0,12.7-1.8,16.8-5.4
		c4.2-3.6,6.2-8.7,6.2-15.5C2195.6,1950.1,2193.5,1944.9,2189.3,1941.3z M2170.6,1966.2H2160V1947h10.6c3.5,0,6.3,0.7,8.3,2.1
		c2,1.4,3,3.9,3,7.5C2182,1963,2178.2,1966.2,2170.6,1966.2z"/>
        <polygon class="st0" points="2046.4,1946.5 2042.1,1935.8 2028.9,1935.8 2019.8,1958.8 2004.3,1997.6 2018.5,1997.6 2035.6,1953.7
		2052.5,1997.6 2066.8,1997.6 	"/>
</g>
    <path class="st0" d="M1896.8,1845.6c-0.8-0.7-1.2-1.9-0.9-3c0.1-0.7,0.3-1.3,0.3-1.5c4.4-18.4,8.8-36.8,13.2-55.3
	c5.7-23.8,11.4-47.7,17.1-71.5c0.9-3.8,2-4.5,6.6-4.5c18.3,0,36.6,0,54.9,0c3.1,0,5,0.9,6.5,3c23.4,33,46.8,66,70.2,99
	c3,4.2,1.9,6.5-3.9,8c-29.6,8-59.1,16-88.7,24c-4.6,1.2-9.3,3-14.1,3.1c-18.6,0.4-37.2,0.1-55.8,0.2
	C1900,1847.2,1898.1,1846.8,1896.8,1845.6z M1970.2,1836c27-7.3,53.5-14.5,80.2-21.7c2.1-0.6,3-3.1,1.8-4.9
	c-18.7-26.4-37.3-52.5-56.1-78.9c-1.6-2.2-5.1-1.6-5.7,1.1c-8.1,33.8-16.1,67.1-24.1,100.7C1965.7,1834.6,1967.8,1836.7,1970.2,1836
	z"/>
    <g>
	<polygon class="st0" points="13.5,181 39.4,220.9 52.3,220.9 52.3,159.2 38.9,159.2 38.9,199.1 13.1,159.2 0.1,159.2 0.1,220.9
		13.5,220.9 	"/>
        <polygon class="st0" points="104.4,209.7 75,209.7 75,195.5 96.6,195.5 96.6,184.7 75,184.7 75,170.4 104.4,170.4 104.4,159.2
		61.5,159.2 61.5,220.9 104.4,220.9 	"/>
        <polygon class="st0" points="146.6,220.9 171.2,159.2 157,159.2 140,203.1 123,159.2 108.7,159.2 133.4,220.9 	"/>
        <polygon class="st0" points="221.5,170.4 221.5,159.2 178.7,159.2 178.7,220.9 184.7,220.9 221.5,220.9 221.5,209.7 209,209.7
		192.1,209.7 192.1,195.5 213.7,195.5 213.7,184.7 192.1,184.7 192.1,170.4 	"/>
        <path class="st0" d="M273.9,191.3c2.1-3.2,3.2-7.1,3.2-11.7c0-0.4,0-0.9,0-1.3l0,0c-0.2-6-2.2-10.6-5.8-13.8
		c-3.9-3.5-9.4-5.3-16.4-5.3H228v41.7l26.5-12.3c-0.7,0.1-1.4,0.1-2.1,0.1h-11v-18.4h11c3.5,0,6.2,0.7,8.1,2.1
		c1.9,1.4,2.9,3.8,2.9,7.1c0,2.4-0.6,4.3-1.7,5.7l0,0c-0.4,0.5-0.8,0.9-1.3,1.2c-1.5,1.1-3.5,1.8-5.9,2.1L228,200.9v20h13.4v0V200
		H252l10.9,20.9h13.8l-11.8-22.6C268.7,196.8,271.8,194.5,273.9,191.3z"/>
        <g>
		<path class="st0" d="M69.7,271.4c-3.8-3.6-5.7-8.4-5.7-14.6c0-6.1,1.9-11,5.6-14.5c3.7-3.6,8.8-5.3,15.2-5.3c4.2,0,8,0.5,11.4,1.5
			c3.3,1,6.3,2.5,8.9,4.7v-12.7c-5.7-3.9-12.8-5.8-21.4-5.8c-6.6,0-12.4,1.3-17.5,3.9s-9,6.4-11.8,11.2c-2.8,4.9-4.2,10.6-4.2,17.1
			c0,6.5,1.4,12.2,4.2,17c1.1,2,2.5,3.8,4,5.4l13.3-6.1C71,272.6,70.3,272,69.7,271.4z"/>
            <path class="st0" d="M96.4,275.2c-3.4,1-7.2,1.5-11.6,1.5c-5.3,0-9.7-1.2-13.1-3.7l-13.3,6.1c2.2,2.3,4.8,4.3,7.8,5.8
			c5.1,2.6,10.9,3.9,17.5,3.9c9.3,0,16.7-2,22.1-6v-12.7C102.9,272.5,99.8,274.2,96.4,275.2z"/>
	</g>
        <polygon class="st0" points="209.3,267.2 190.3,225.9 177.1,225.9 177.1,287.6 190,287.6 190,252.6 206.2,287.6 212.4,287.6
		228.7,252.6 228.7,287.6 241.6,287.6 241.6,225.9 228.4,225.9 	"/>
        <path class="st0" d="M293.6,231.4c-4.2-3.7-9.8-5.5-16.8-5.5h-26v61.7h13.4v-20.1h12.5c7.1,0,12.7-1.8,16.8-5.4s6.2-8.7,6.2-15.5
		C299.9,240.2,297.8,235.1,293.6,231.4z M274.9,256.4h-10.6v-19.3h10.6c3.5,0,6.3,0.7,8.3,2.1c2,1.4,3,3.9,3,7.5
		C286.2,253.2,282.5,256.4,274.9,256.4z"/>
        <polygon class="st0" points="150.6,236.7 146.3,226 133.2,226 124,248.9 108.5,287.7 122.8,287.7 139.8,243.8 156.8,287.7
		171.1,287.7 	"/>
</g>
    <linearGradient id="SVGID_5_" gradientUnits="userSpaceOnUse" x1="12.2017" y1="26.1297" x2="97.5864" y2="123.9339">
	<stop  offset="0" style="stop-color:#FF6399"/>
        <stop  offset="1" style="stop-color:#804EFC"/>
</linearGradient>
    <path class="st6" d="M1,135.7c-0.8-0.7-1.2-1.9-0.9-3c0.1-0.7,0.3-1.3,0.3-1.5C4.8,112.8,9.2,94.4,13.6,76
	C19.3,52.2,25,28.3,30.7,4.5c0.9-3.8,2-4.5,6.6-4.5c18.3,0,36.6,0,54.9,0c3.1,0,5,0.9,6.5,3c23.4,33,46.8,66,70.2,99
	c3,4.2,1.9,6.5-3.9,8c-29.6,8-59.1,16-88.7,24c-4.6,1.2-9.3,3-14.1,3.1c-18.6,0.4-37.2,0.1-55.8,0.2C4.2,137.3,2.4,136.9,1,135.7z
	 M74.4,126.2c27-7.3,53.5-14.5,80.2-21.7c2.1-0.6,3-3.1,1.8-4.9c-18.7-26.4-37.3-52.5-56.1-78.9c-1.6-2.2-5.1-1.6-5.7,1.1
	c-8.1,33.8-16.1,67.1-24.1,100.7C69.9,124.7,72.1,126.8,74.4,126.2z"/>
</svg>