<?xml version="1.0" encoding="utf-8"?>
<!-- Generator: Adobe Illustrator 24.2.3, SVG Export Plug-In . SVG Version: 6.00 Build 0)  -->
<svg version="1.1" id="Layer_1" xmlns="http://www.w3.org/2000/svg" xmlns:xlink="http://www.w3.org/1999/xlink" x="0px" y="0px"
	 viewBox="0 0 468.3 134.7" style="enable-background:new 0 0 468.3 134.7;" xml:space="preserve">
<style type="text/css">
	.st0{fill:#FFFFFF;}
	.st1{fill:#191919;}
	.st2{fill:url(#SVGID_1_);}
	.st3{fill:url(#SVGID_2_);}
	.st4{fill:url(#SVGID_3_);}
	.st5{fill:url(#SVGID_4_);}
	.st6{fill:url(#SVGID_5_);}
</style>
<rect x="2442.1" y="210.3" class="st0" width="1440" height="1450"/>
<rect x="2402.1" y="1655.3" class="st1" width="1558" height="1483"/>
<linearGradient id="SVGID_1_" gradientUnits="userSpaceOnUse" x1="3208.5793" y1="579.6039" x2="3290.583" y2="673.5353">
	<stop  offset="0" style="stop-color:#FF6399"/>
	<stop  offset="1" style="stop-color:#804EFC"/>
</linearGradient>
<path class="st2" d="M3197.8,684.8c-0.8-0.7-1.1-1.8-0.9-2.8c0.1-0.6,0.3-1.2,0.3-1.4c4.2-17.7,8.5-35.4,12.7-53.1
	c5.5-22.9,10.9-45.8,16.4-68.6c0.9-3.6,1.9-4.3,6.4-4.3c17.6,0,35.2,0,52.8,0c3,0,4.8,0.8,6.3,2.9c22.4,31.7,44.9,63.4,67.4,95
	c2.9,4.1,1.8,6.2-3.7,7.7c-28.4,7.7-56.8,15.4-85.2,23.1c-4.4,1.2-9,2.9-13.5,3c-17.9,0.3-35.8,0.1-53.6,0.2
	C3200.9,686.4,3199.1,686,3197.8,684.8z M3268.3,675.7c25.9-7,51.4-13.9,77-20.9c2.1-0.6,2.9-3,1.7-4.7
	c-18-25.3-35.8-50.4-53.9-75.8c-1.5-2.1-4.9-1.5-5.5,1.1c-7.8,32.5-15.4,64.5-23.1,96.7C3264,674.3,3266.1,676.3,3268.3,675.7z"/>
<g>
	<polygon class="st1" points="3371.2,574.1 3397.7,615.1 3411.1,615.1 3411.1,551.7 3397.3,551.7 3397.3,592.7 3370.8,551.7 
		3357.4,551.7 3357.4,615.1 3371.2,615.1 	"/>
	<polygon class="st1" points="3464.5,603.6 3434.3,603.6 3434.3,589 3456.5,589 3456.5,577.9 3434.3,577.9 3434.3,563.2 
		3464.5,563.2 3464.5,551.7 3420.5,551.7 3420.5,615.1 3464.5,615.1 	"/>
	<polygon class="st1" points="3507.8,615.1 3533.1,551.7 3518.5,551.7 3501,596.8 3483.6,551.7 3468.9,551.7 3494.3,615.1 	"/>
	<polygon class="st1" points="3584.7,563.2 3584.7,551.7 3540.7,551.7 3540.7,615.1 3546.9,615.1 3584.7,615.1 3584.7,603.6 
		3571.9,603.6 3554.5,603.6 3554.5,589 3576.7,589 3576.7,577.9 3554.5,577.9 3554.5,563.2 	"/>
	<path class="st1" d="M3638.5,584.7c2.2-3.3,3.3-7.3,3.3-12c0-0.5,0-0.9,0-1.3l0,0c-0.3-6.1-2.3-10.9-6-14.2
		c-4-3.6-9.6-5.4-16.8-5.4h-27.5v42.8l27.2-12.6c-0.7,0.1-1.4,0.1-2.2,0.1h-11.2v-18.9h11.2c3.6,0,6.3,0.7,8.3,2.1
		c2,1.4,3,3.9,3,7.3c0,2.5-0.6,4.4-1.7,5.9l0,0c-0.4,0.5-0.8,0.9-1.3,1.3c-1.6,1.2-3.6,1.9-6.1,2.1l-27.2,12.6v20.5h13.8v0v-21.5
		h10.8l11.2,21.5h14.1l-12.1-23.2C3633.2,590.4,3636.3,588,3638.5,584.7z"/>
	<g>
		<path class="st1" d="M3428.8,667c-3.9-3.7-5.8-8.7-5.8-15c0-6.3,1.9-11.3,5.8-14.9c3.8-3.7,9.1-5.5,15.6-5.5
			c4.4,0,8.2,0.5,11.7,1.5c3.4,1,6.5,2.6,9.1,4.8v-13.1c-5.9-4-13.2-6-21.9-6c-6.8,0-12.8,1.3-18,4c-5.2,2.7-9.2,6.5-12.1,11.5
			c-2.8,5-4.3,10.8-4.3,17.5c0,6.7,1.4,12.5,4.3,17.5c1.2,2,2.5,3.9,4.1,5.5l13.6-6.3C3430.2,668.2,3429.5,667.6,3428.8,667z"/>
		<path class="st1" d="M3456.3,670.9c-3.4,1.1-7.4,1.6-11.9,1.6c-5.4,0-9.9-1.3-13.5-3.8l-13.6,6.3c2.2,2.4,4.9,4.4,8,6
			c5.2,2.7,11.2,4,18,4c9.6,0,17.1-2.1,22.7-6.2v-13.1C3463,668.1,3459.8,669.8,3456.3,670.9z"/>
	</g>
	<polygon class="st1" points="3572.2,662.7 3552.7,620.2 3539.1,620.2 3539.1,683.6 3552.3,683.6 3552.3,647.6 3569,683.6 
		3575.4,683.6 3592.1,647.6 3592.1,683.6 3605.3,683.6 3605.3,620.2 3591.8,620.2 	"/>
	<path class="st1" d="M3658.7,625.9c-4.3-3.8-10-5.7-17.2-5.7h-26.7v63.4h13.8V663h12.9c7.3,0,13-1.8,17.3-5.5
		c4.3-3.7,6.4-9,6.4-15.9C3665.1,634.9,3663,629.7,3658.7,625.9z M3639.5,651.5h-10.9v-19.8h10.9c3.6,0,6.5,0.7,8.6,2.2
		c2.1,1.5,3.1,4,3.1,7.7C3651.2,648.2,3647.3,651.5,3639.5,651.5z"/>
	<polygon class="st1" points="3511.9,631.3 3507.6,620.3 3494,620.3 3484.6,643.9 3468.7,683.7 3483.3,683.7 3500.8,638.6 
		3518.3,683.7 3532.9,683.7 	"/>
</g>
<g>
	<polygon class="st1" points="2700,656.6 2725.9,696.5 2738.8,696.5 2738.8,634.8 2725.4,634.8 2725.4,674.7 2699.6,634.8 
		2686.5,634.8 2686.5,696.5 2700,696.5 	"/>
	<polygon class="st1" points="2790.9,685.3 2761.4,685.3 2761.4,671.1 2783.1,671.1 2783.1,660.3 2761.4,660.3 2761.4,646 
		2790.9,646 2790.9,634.8 2748,634.8 2748,696.5 2790.9,696.5 	"/>
	<polygon class="st1" points="2833.1,696.5 2857.7,634.8 2843.5,634.8 2826.5,678.7 2809.5,634.8 2795.2,634.8 2819.9,696.5 	"/>
	<polygon class="st1" points="2908,646 2908,634.8 2865.1,634.8 2865.1,696.5 2871.2,696.5 2908,696.5 2908,685.3 2895.5,685.3 
		2878.6,685.3 2878.6,671.1 2900.2,671.1 2900.2,660.3 2878.6,660.3 2878.6,646 	"/>
	<path class="st1" d="M2960.4,666.9c2.1-3.2,3.2-7.1,3.2-11.7c0-0.4,0-0.9,0-1.3l0,0c-0.2-6-2.2-10.6-5.8-13.8
		c-3.9-3.5-9.4-5.3-16.4-5.3h-26.8v41.7l26.5-12.3c-0.7,0.1-1.4,0.1-2.1,0.1h-11V646h11c3.5,0,6.2,0.7,8.1,2.1
		c1.9,1.4,2.9,3.8,2.9,7.1c0,2.4-0.6,4.3-1.7,5.7l0,0c-0.4,0.5-0.8,0.9-1.3,1.2c-1.5,1.1-3.5,1.8-5.9,2.1l-26.5,12.3v20h13.4v0
		v-20.9h10.5l10.9,20.9h13.8l-11.8-22.6C2955.2,672.5,2958.2,670.1,2960.4,666.9z"/>
	<g>
		<path class="st1" d="M2756.2,747.1c-3.8-3.6-5.7-8.4-5.7-14.6c0-6.1,1.9-11,5.6-14.5c3.7-3.6,8.8-5.3,15.2-5.3
			c4.2,0,8,0.5,11.4,1.5c3.3,1,6.3,2.5,8.9,4.7v-12.7c-5.7-3.9-12.8-5.8-21.4-5.8c-6.6,0-12.4,1.3-17.5,3.9
			c-5.1,2.6-9,6.4-11.8,11.2c-2.8,4.9-4.2,10.6-4.2,17.1s1.4,12.2,4.2,17c1.1,2,2.5,3.8,4,5.4l13.3-6.1
			C2757.5,748.2,2756.8,747.7,2756.2,747.1z"/>
		<path class="st1" d="M2782.9,750.9c-3.4,1-7.2,1.5-11.6,1.5c-5.3,0-9.7-1.2-13.1-3.7l-13.3,6.1c2.2,2.3,4.8,4.3,7.8,5.8
			c5.1,2.6,10.9,3.9,17.5,3.9c9.3,0,16.7-2,22.1-6v-12.7C2789.4,748.2,2786.3,749.9,2782.9,750.9z"/>
	</g>
	<polygon class="st1" points="2895.8,742.9 2876.8,701.5 2863.6,701.5 2863.6,763.3 2876.5,763.3 2876.5,728.2 2892.7,763.3 
		2898.9,763.3 2915.2,728.2 2915.2,763.3 2928,763.3 2928,701.5 2914.9,701.5 	"/>
	<path class="st1" d="M2980.1,707.1c-4.2-3.7-9.8-5.5-16.8-5.5h-26v61.7h13.4v-20.1h12.5c7.1,0,12.7-1.8,16.8-5.4
		c4.2-3.6,6.2-8.7,6.2-15.5C2986.3,715.9,2984.3,710.7,2980.1,707.1z M2961.3,732h-10.6v-19.3h10.6c3.5,0,6.3,0.7,8.3,2.1
		c2,1.4,3,3.9,3,7.5C2972.7,728.8,2968.9,732,2961.3,732z"/>
	<polygon class="st1" points="2837.1,712.3 2832.8,701.6 2819.7,701.6 2810.5,724.6 2795,763.4 2809.2,763.4 2826.3,719.5 
		2843.3,763.4 2857.6,763.4 	"/>
</g>
<linearGradient id="SVGID_2_" gradientUnits="userSpaceOnUse" x1="2698.6926" y1="501.7776" x2="2784.0771" y2="599.5818">
	<stop  offset="0" style="stop-color:#FF6399"/>
	<stop  offset="1" style="stop-color:#804EFC"/>
</linearGradient>
<path class="st3" d="M2687.5,611.4c-0.8-0.7-1.2-1.9-0.9-3c0.1-0.7,0.3-1.3,0.3-1.5c4.4-18.4,8.8-36.8,13.2-55.3
	c5.7-23.8,11.4-47.7,17.1-71.5c0.9-3.8,2-4.5,6.6-4.5c18.3,0,36.6,0,54.9,0c3.1,0,5,0.9,6.5,3c23.4,33,46.8,66,70.2,99
	c3,4.2,1.9,6.5-3.9,8c-29.6,8-59.1,16-88.7,24c-4.6,1.2-9.3,3-14.1,3.1c-18.6,0.4-37.2,0.1-55.8,0.2
	C2690.7,613,2688.9,612.6,2687.5,611.4z M2760.9,601.8c27-7.3,53.5-14.5,80.2-21.7c2.1-0.6,3-3.1,1.8-4.9
	c-18.7-26.4-37.3-52.5-56.1-78.9c-1.6-2.2-5.1-1.6-5.7,1.1c-8.1,33.8-16.1,67.1-24.1,100.7C2756.4,600.4,2758.6,602.5,2760.9,601.8z
	"/>
<path class="st1" d="M3198,1239.9c-0.8-0.7-1.1-1.8-0.9-2.8c0.1-0.6,0.3-1.2,0.3-1.4c4.2-17.7,8.5-35.4,12.7-53.1
	c5.5-22.9,10.9-45.8,16.4-68.6c0.9-3.6,1.9-4.3,6.4-4.3c17.6,0,35.2,0,52.8,0c3,0,4.8,0.8,6.3,2.9c22.4,31.7,44.9,63.4,67.4,95
	c2.9,4.1,1.8,6.2-3.7,7.7c-28.4,7.7-56.8,15.4-85.2,23.1c-4.4,1.2-9,2.9-13.5,3c-17.9,0.3-35.8,0.1-53.6,0.2
	C3201.1,1241.5,3199.3,1241.1,3198,1239.9z M3268.5,1230.8c25.9-7,51.4-13.9,77-20.9c2.1-0.6,2.9-3,1.7-4.7
	c-18-25.3-35.8-50.4-53.9-75.8c-1.5-2.1-4.9-1.5-5.5,1.1c-7.8,32.5-15.4,64.5-23.1,96.7C3264.2,1229.4,3266.3,1231.4,3268.5,1230.8z
	"/>
<g>
	<polygon class="st1" points="3371.4,1129.2 3397.9,1170.2 3411.3,1170.2 3411.3,1106.8 3397.5,1106.8 3397.5,1147.8 3371,1106.8 
		3357.6,1106.8 3357.6,1170.2 3371.4,1170.2 	"/>
	<polygon class="st1" points="3464.7,1158.7 3434.5,1158.7 3434.5,1144.1 3456.7,1144.1 3456.7,1133 3434.5,1133 3434.5,1118.3 
		3464.7,1118.3 3464.7,1106.8 3420.7,1106.8 3420.7,1170.2 3464.7,1170.2 	"/>
	<polygon class="st1" points="3508,1170.2 3533.3,1106.8 3518.7,1106.8 3501.2,1151.9 3483.8,1106.8 3469.1,1106.8 3494.5,1170.2 	
		"/>
	<polygon class="st1" points="3584.9,1118.3 3584.9,1106.8 3540.9,1106.8 3540.9,1170.2 3547.1,1170.2 3584.9,1170.2 3584.9,1158.7 
		3572.1,1158.7 3554.7,1158.7 3554.7,1144.1 3576.9,1144.1 3576.9,1133 3554.7,1133 3554.7,1118.3 	"/>
	<path class="st1" d="M3638.7,1139.8c2.2-3.3,3.3-7.3,3.3-12c0-0.5,0-0.9,0-1.3l0,0c-0.3-6.1-2.3-10.9-6-14.2
		c-4-3.6-9.6-5.4-16.8-5.4h-27.5v42.8l27.2-12.6c-0.7,0.1-1.4,0.1-2.2,0.1h-11.2v-18.9h11.2c3.6,0,6.3,0.7,8.3,2.1
		c2,1.4,3,3.9,3,7.3c0,2.5-0.6,4.4-1.7,5.9l0,0c-0.4,0.5-0.8,0.9-1.3,1.3c-1.6,1.2-3.6,1.9-6.1,2.1l-27.2,12.6v20.5h13.8v0v-21.5
		h10.8l11.2,21.5h14.1l-12.1-23.2C3633.4,1145.5,3636.5,1143.1,3638.7,1139.8z"/>
	<g>
		<path class="st1" d="M3429,1222.1c-3.9-3.7-5.8-8.7-5.8-15c0-6.3,1.9-11.3,5.8-14.9c3.8-3.7,9.1-5.5,15.6-5.5
			c4.4,0,8.2,0.5,11.7,1.5c3.4,1,6.5,2.6,9.1,4.8V1180c-5.9-4-13.2-6-21.9-6c-6.8,0-12.8,1.3-18,4s-9.2,6.5-12.1,11.5
			s-4.3,10.8-4.3,17.5c0,6.7,1.4,12.5,4.3,17.5c1.2,2,2.5,3.9,4.1,5.5l13.6-6.3C3430.4,1223.3,3429.7,1222.7,3429,1222.1z"/>
		<path class="st1" d="M3456.5,1226c-3.4,1.1-7.4,1.6-11.9,1.6c-5.4,0-9.9-1.3-13.5-3.8l-13.6,6.3c2.2,2.4,4.9,4.4,8,6
			c5.2,2.7,11.2,4,18,4c9.6,0,17.1-2.1,22.7-6.2v-13.1C3463.2,1223.2,3459.9,1224.9,3456.5,1226z"/>
	</g>
	<polygon class="st1" points="3572.4,1217.8 3552.9,1175.3 3539.3,1175.3 3539.3,1238.7 3552.5,1238.7 3552.5,1202.7 3569.2,1238.7 
		3575.6,1238.7 3592.3,1202.7 3592.3,1238.7 3605.5,1238.7 3605.5,1175.3 3592,1175.3 	"/>
	<path class="st1" d="M3658.9,1181c-4.3-3.8-10-5.7-17.2-5.7H3615v63.4h13.8v-20.6h12.9c7.3,0,13-1.8,17.3-5.5
		c4.3-3.7,6.4-9,6.4-15.9C3665.3,1190,3663.2,1184.8,3658.9,1181z M3639.7,1206.6h-10.9v-19.8h10.9c3.6,0,6.5,0.7,8.6,2.2
		c2.1,1.5,3.1,4,3.1,7.7C3651.4,1203.3,3647.5,1206.6,3639.7,1206.6z"/>
	<polygon class="st1" points="3512.1,1186.4 3507.7,1175.4 3494.2,1175.4 3484.8,1199 3468.9,1238.8 3483.5,1238.8 3501,1193.8 
		3518.4,1238.8 3533.1,1238.8 	"/>
</g>
<g>
	<polygon class="st1" points="2700.2,1211.7 2726,1251.6 2739,1251.6 2739,1189.9 2725.6,1189.9 2725.6,1229.8 2699.8,1189.9 
		2686.7,1189.9 2686.7,1251.6 2700.2,1251.6 	"/>
	<polygon class="st1" points="2791,1240.4 2761.6,1240.4 2761.6,1226.2 2783.3,1226.2 2783.3,1215.4 2761.6,1215.4 2761.6,1201.1 
		2791,1201.1 2791,1189.9 2748.2,1189.9 2748.2,1251.6 2791,1251.6 	"/>
	<polygon class="st1" points="2833.3,1251.6 2857.9,1189.9 2843.7,1189.9 2826.6,1233.8 2809.7,1189.9 2795.4,1189.9 2820.1,1251.6 
			"/>
	<polygon class="st1" points="2908.2,1201.1 2908.2,1189.9 2865.3,1189.9 2865.3,1251.6 2871.4,1251.6 2908.2,1251.6 2908.2,1240.4 
		2895.7,1240.4 2878.8,1240.4 2878.8,1226.2 2900.4,1226.2 2900.4,1215.4 2878.8,1215.4 2878.8,1201.1 	"/>
	<path class="st1" d="M2960.5,1222c2.1-3.2,3.2-7.1,3.2-11.7c0-0.4,0-0.9,0-1.3l0,0c-0.2-6-2.2-10.6-5.8-13.8
		c-3.9-3.5-9.4-5.3-16.4-5.3h-26.8v41.7l26.5-12.3c-0.7,0.1-1.4,0.1-2.1,0.1h-11v-18.4h11c3.5,0,6.2,0.7,8.1,2.1
		c1.9,1.4,2.9,3.8,2.9,7.1c0,2.4-0.6,4.3-1.7,5.7l0,0c-0.4,0.5-0.8,0.9-1.3,1.2c-1.5,1.1-3.5,1.8-5.9,2.1l-26.5,12.3v20h13.4v0
		v-20.9h10.5l10.9,20.9h13.8l-11.8-22.6C2955.4,1227.6,2958.4,1225.2,2960.5,1222z"/>
	<g>
		<path class="st1" d="M2756.3,1302.2c-3.8-3.6-5.7-8.4-5.7-14.6c0-6.1,1.9-11,5.6-14.5c3.7-3.6,8.8-5.3,15.2-5.3
			c4.2,0,8,0.5,11.4,1.5c3.3,1,6.3,2.5,8.9,4.7v-12.7c-5.7-3.9-12.8-5.8-21.4-5.8c-6.6,0-12.4,1.3-17.5,3.9
			c-5.1,2.6-9,6.4-11.8,11.2c-2.8,4.9-4.2,10.6-4.2,17.1s1.4,12.2,4.2,17c1.1,2,2.5,3.8,4,5.4l13.3-6.1
			C2757.7,1303.3,2757,1302.8,2756.3,1302.2z"/>
		<path class="st1" d="M2783.1,1306c-3.4,1-7.2,1.5-11.6,1.5c-5.3,0-9.7-1.2-13.1-3.7l-13.3,6.1c2.2,2.3,4.8,4.3,7.8,5.8
			c5.1,2.6,10.9,3.9,17.5,3.9c9.3,0,16.7-2,22.1-6V1301C2789.6,1303.3,2786.5,1305,2783.1,1306z"/>
	</g>
	<polygon class="st1" points="2896,1298 2877,1256.6 2863.8,1256.6 2863.8,1318.4 2876.6,1318.4 2876.6,1283.3 2892.9,1318.4 
		2899.1,1318.4 2915.4,1283.3 2915.4,1318.4 2928.2,1318.4 2928.2,1256.6 2915.1,1256.6 	"/>
	<path class="st1" d="M2980.3,1262.2c-4.2-3.7-9.8-5.5-16.8-5.5h-26v61.7h13.4v-20.1h12.5c7.1,0,12.7-1.8,16.8-5.4
		c4.2-3.6,6.2-8.7,6.2-15.5C2986.5,1271,2984.4,1265.9,2980.3,1262.2z M2961.5,1287.1h-10.6v-19.3h10.6c3.5,0,6.3,0.7,8.3,2.1
		c2,1.4,3,3.9,3,7.5C2972.9,1283.9,2969.1,1287.1,2961.5,1287.1z"/>
	<polygon class="st1" points="2837.3,1267.4 2833,1256.7 2819.9,1256.7 2810.7,1279.7 2795.2,1318.5 2809.4,1318.5 2826.5,1274.6 
		2843.4,1318.5 2857.7,1318.5 	"/>
</g>
<path class="st1" d="M2687.7,1166.5c-0.8-0.7-1.2-1.9-0.9-3c0.1-0.7,0.3-1.3,0.3-1.5c4.4-18.4,8.8-36.8,13.2-55.3
	c5.7-23.8,11.4-47.7,17.1-71.5c0.9-3.8,2-4.5,6.6-4.5c18.3,0,36.6,0,54.9,0c3.1,0,5,0.9,6.5,3c23.4,33,46.8,66,70.2,99
	c3,4.2,1.9,6.5-3.9,8c-29.6,8-59.1,16-88.7,24c-4.6,1.2-9.3,3-14.1,3.1c-18.6,0.4-37.2,0.1-55.8,0.2
	C2690.9,1168.1,2689,1167.7,2687.7,1166.5z M2761.1,1156.9c27-7.3,53.5-14.5,80.2-21.7c2.1-0.6,3-3.1,1.8-4.9
	c-18.7-26.4-37.3-52.5-56.1-78.9c-1.6-2.2-5.1-1.6-5.7,1.1c-8.1,33.8-16.1,67.1-24.1,100.7
	C2756.6,1155.5,2758.7,1157.6,2761.1,1156.9z"/>
<linearGradient id="SVGID_3_" gradientUnits="userSpaceOnUse" x1="3208.6716" y1="2044.7322" x2="3290.675" y2="2138.6636">
	<stop  offset="0" style="stop-color:#FF6399"/>
	<stop  offset="1" style="stop-color:#804EFC"/>
</linearGradient>
<path class="st4" d="M3197.9,2150c-0.8-0.7-1.1-1.8-0.9-2.8c0.1-0.6,0.3-1.2,0.3-1.4c4.2-17.7,8.5-35.4,12.7-53.1
	c5.5-22.9,10.9-45.8,16.4-68.6c0.9-3.6,1.9-4.3,6.4-4.3c17.6,0,35.2,0,52.8,0c3,0,4.8,0.8,6.3,2.9c22.4,31.7,44.9,63.4,67.4,95
	c2.9,4.1,1.8,6.2-3.7,7.7c-28.4,7.7-56.8,15.4-85.2,23.1c-4.4,1.2-9,2.9-13.5,3c-17.9,0.3-35.8,0.1-53.6,0.2
	C3201,2151.5,3199.2,2151.1,3197.9,2150z M3268.4,2140.8c25.9-7,51.4-13.9,77-20.9c2.1-0.6,2.9-3,1.7-4.7
	c-18-25.3-35.8-50.4-53.9-75.8c-1.5-2.1-4.9-1.5-5.5,1.1c-7.8,32.5-15.4,64.5-23.1,96.7C3264.1,2139.4,3266.2,2141.4,3268.4,2140.8z
	"/>
<g>
	<polygon class="st0" points="3371.3,2039.2 3397.8,2080.2 3411.2,2080.2 3411.2,2016.9 3397.4,2016.9 3397.4,2057.8 3370.9,2016.9 
		3357.5,2016.9 3357.5,2080.2 3371.3,2080.2 	"/>
	<polygon class="st0" points="3464.6,2068.7 3434.4,2068.7 3434.4,2054.1 3456.6,2054.1 3456.6,2043.1 3434.4,2043.1 3434.4,2028.4 
		3464.6,2028.4 3464.6,2016.9 3420.6,2016.9 3420.6,2080.2 3464.6,2080.2 	"/>
	<polygon class="st0" points="3507.9,2080.2 3533.2,2016.9 3518.6,2016.9 3501.1,2061.9 3483.7,2016.9 3469,2016.9 3494.4,2080.2 	
		"/>
	<polygon class="st0" points="3584.8,2028.4 3584.8,2016.9 3540.8,2016.9 3540.8,2080.2 3547,2080.2 3584.8,2080.2 3584.8,2068.7 
		3572,2068.7 3554.6,2068.7 3554.6,2054.1 3576.8,2054.1 3576.8,2043.1 3554.6,2043.1 3554.6,2028.4 	"/>
	<path class="st0" d="M3638.6,2049.8c2.2-3.3,3.3-7.3,3.3-12c0-0.5,0-0.9,0-1.3l0,0c-0.3-6.1-2.3-10.9-6-14.2
		c-4-3.6-9.6-5.4-16.8-5.4h-27.5v42.8l27.2-12.6c-0.7,0.1-1.4,0.1-2.2,0.1h-11.2v-18.9h11.2c3.6,0,6.3,0.7,8.3,2.1
		c2,1.4,3,3.9,3,7.3c0,2.5-0.6,4.4-1.7,5.9l0,0c-0.4,0.5-0.8,0.9-1.3,1.3c-1.6,1.2-3.6,1.9-6.1,2.1l-27.2,12.6v20.5h13.8v0v-21.5
		h10.8l11.2,21.5h14.1l-12.1-23.2C3633.3,2055.5,3636.4,2053.1,3638.6,2049.8z"/>
	<g>
		<path class="st0" d="M3428.9,2132.1c-3.9-3.7-5.8-8.7-5.8-15c0-6.3,1.9-11.3,5.8-14.9c3.8-3.7,9.1-5.5,15.6-5.5
			c4.4,0,8.2,0.5,11.7,1.5c3.4,1,6.5,2.6,9.1,4.8V2090c-5.9-4-13.2-6-21.9-6c-6.8,0-12.8,1.3-18,4c-5.2,2.7-9.2,6.5-12.1,11.5
			s-4.3,10.8-4.3,17.5s1.4,12.5,4.3,17.5c1.2,2,2.5,3.9,4.1,5.5l13.6-6.3C3430.3,2133.3,3429.6,2132.7,3428.9,2132.1z"/>
		<path class="st0" d="M3456.4,2136c-3.4,1.1-7.4,1.6-11.9,1.6c-5.4,0-9.9-1.3-13.5-3.8l-13.6,6.3c2.2,2.4,4.9,4.4,8,6
			c5.2,2.7,11.2,4,18,4c9.6,0,17.1-2.1,22.7-6.2v-13.1C3463.1,2133.2,3459.9,2135,3456.4,2136z"/>
	</g>
	<polygon class="st0" points="3572.3,2127.8 3552.8,2085.4 3539.2,2085.4 3539.2,2148.8 3552.4,2148.8 3552.4,2112.8 3569.1,2148.8 
		3575.5,2148.8 3592.2,2112.8 3592.2,2148.8 3605.4,2148.8 3605.4,2085.4 3591.9,2085.4 	"/>
	<path class="st0" d="M3658.8,2091c-4.3-3.8-10-5.7-17.2-5.7h-26.7v63.4h13.8v-20.6h12.9c7.3,0,13-1.8,17.3-5.5
		c4.3-3.7,6.4-9,6.4-15.9C3665.2,2100.1,3663.1,2094.8,3658.8,2091z M3639.6,2116.7h-10.9v-19.8h10.9c3.6,0,6.5,0.7,8.6,2.2
		c2.1,1.5,3.1,4,3.1,7.7C3651.3,2113.4,3647.4,2116.7,3639.6,2116.7z"/>
	<polygon class="st0" points="3512,2096.4 3507.6,2085.5 3494.1,2085.5 3484.7,2109 3468.8,2148.8 3483.4,2148.8 3500.9,2103.8 
		3518.3,2148.8 3533,2148.8 	"/>
</g>
<g>
	<polygon class="st0" points="2700.1,2121.7 2725.9,2161.7 2738.9,2161.7 2738.9,2099.9 2725.5,2099.9 2725.5,2139.9 2699.7,2099.9 
		2686.6,2099.9 2686.6,2161.7 2700.1,2161.7 	"/>
	<polygon class="st0" points="2791,2150.5 2761.5,2150.5 2761.5,2136.2 2783.2,2136.2 2783.2,2125.5 2761.5,2125.5 2761.5,2111.1 
		2791,2111.1 2791,2099.9 2748.1,2099.9 2748.1,2161.7 2791,2161.7 	"/>
	<polygon class="st0" points="2833.2,2161.7 2857.8,2099.9 2843.6,2099.9 2826.6,2143.8 2809.6,2099.9 2795.3,2099.9 2820,2161.7 	
		"/>
	<polygon class="st0" points="2908.1,2111.1 2908.1,2099.9 2865.2,2099.9 2865.2,2161.7 2871.3,2161.7 2908.1,2161.7 2908.1,2150.5 
		2895.6,2150.5 2878.7,2150.5 2878.7,2136.2 2900.3,2136.2 2900.3,2125.5 2878.7,2125.5 2878.7,2111.1 	"/>
	<path class="st0" d="M2960.5,2132c2.1-3.2,3.2-7.1,3.2-11.7c0-0.4,0-0.9,0-1.3l0,0c-0.2-6-2.2-10.6-5.8-13.8
		c-3.9-3.5-9.4-5.3-16.4-5.3h-26.8v41.7l26.5-12.3c-0.7,0.1-1.4,0.1-2.1,0.1h-11v-18.4h11c3.5,0,6.2,0.7,8.1,2.1
		c1.9,1.4,2.9,3.8,2.9,7.1c0,2.4-0.6,4.3-1.7,5.7l0,0c-0.4,0.5-0.8,0.9-1.3,1.2c-1.5,1.1-3.5,1.8-5.9,2.1l-26.5,12.3v20h13.4v0
		v-20.9h10.5l10.9,20.9h13.8l-11.8-22.6C2955.3,2137.6,2958.3,2135.2,2960.5,2132z"/>
	<g>
		<path class="st0" d="M2756.2,2212.2c-3.8-3.6-5.7-8.4-5.7-14.6c0-6.1,1.9-11,5.6-14.5c3.7-3.6,8.8-5.3,15.2-5.3
			c4.2,0,8,0.5,11.4,1.5c3.3,1,6.3,2.5,8.9,4.7v-12.7c-5.7-3.9-12.8-5.8-21.4-5.8c-6.6,0-12.4,1.3-17.5,3.9
			c-5.1,2.6-9,6.4-11.8,11.2s-4.2,10.6-4.2,17.1c0,6.5,1.4,12.2,4.2,17c1.1,2,2.5,3.8,4,5.4l13.3-6.1
			C2757.6,2213.4,2756.9,2212.8,2756.2,2212.2z"/>
		<path class="st0" d="M2783,2216c-3.4,1-7.2,1.5-11.6,1.5c-5.3,0-9.7-1.2-13.1-3.7l-13.3,6.1c2.2,2.3,4.8,4.3,7.8,5.8
			c5.1,2.6,10.9,3.9,17.5,3.9c9.3,0,16.7-2,22.1-6V2211C2789.5,2213.3,2786.4,2215,2783,2216z"/>
	</g>
	<polygon class="st0" points="2895.9,2208 2876.9,2166.7 2863.7,2166.7 2863.7,2228.4 2876.6,2228.4 2876.6,2193.3 2892.8,2228.4 
		2899,2228.4 2915.3,2193.3 2915.3,2228.4 2928.1,2228.4 2928.1,2166.7 2915,2166.7 	"/>
	<path class="st0" d="M2980.2,2172.2c-4.2-3.7-9.8-5.5-16.8-5.5h-26v61.7h13.4v-20.1h12.5c7.1,0,12.7-1.8,16.8-5.4
		c4.2-3.6,6.2-8.7,6.2-15.5C2986.4,2181,2984.3,2175.9,2980.2,2172.2z M2961.4,2197.1h-10.6v-19.3h10.6c3.5,0,6.3,0.7,8.3,2.1
		c2,1.4,3,3.9,3,7.5C2972.8,2193.9,2969,2197.1,2961.4,2197.1z"/>
	<polygon class="st0" points="2837.2,2177.4 2832.9,2166.8 2819.8,2166.8 2810.6,2189.7 2795.1,2228.5 2809.3,2228.5 2826.4,2184.6 
		2843.3,2228.5 2857.7,2228.5 	"/>
</g>
<linearGradient id="SVGID_4_" gradientUnits="userSpaceOnUse" x1="2698.7847" y1="1966.9059" x2="2784.1692" y2="2064.7102">
	<stop  offset="0" style="stop-color:#FF6399"/>
	<stop  offset="1" style="stop-color:#804EFC"/>
</linearGradient>
<path class="st5" d="M2687.6,2076.5c-0.8-0.7-1.2-1.9-0.9-3c0.1-0.7,0.3-1.3,0.3-1.5c4.4-18.4,8.8-36.8,13.2-55.3
	c5.7-23.8,11.4-47.7,17.1-71.5c0.9-3.8,2-4.5,6.6-4.5c18.3,0,36.6,0,54.9,0c3.1,0,5,0.9,6.5,3c23.4,33,46.8,66,70.2,99
	c3,4.2,1.9,6.5-3.9,8c-29.6,8-59.1,16-88.7,24c-4.6,1.2-9.3,3-14.1,3.1c-18.6,0.4-37.2,0.1-55.8,0.2
	C2690.8,2078.1,2689,2077.7,2687.6,2076.5z M2761,2067c27-7.3,53.5-14.5,80.2-21.7c2.1-0.6,3-3.1,1.8-4.9
	c-18.7-26.4-37.3-52.5-56.1-78.9c-1.6-2.2-5.1-1.6-5.7,1.1c-8.1,33.8-16.1,67.1-24.1,100.7C2756.5,2065.5,2758.6,2067.6,2761,2067z"
	/>
<path class="st0" d="M3198.1,2705.1c-0.8-0.7-1.1-1.8-0.9-2.8c0.1-0.6,0.3-1.2,0.3-1.4c4.2-17.7,8.5-35.4,12.7-53.1
	c5.5-22.9,10.9-45.8,16.4-68.6c0.9-3.6,1.9-4.3,6.4-4.3c17.6,0,35.2,0,52.8,0c3,0,4.8,0.8,6.3,2.9c22.4,31.7,44.9,63.4,67.4,95
	c2.9,4.1,1.8,6.2-3.7,7.7c-28.4,7.7-56.8,15.4-85.2,23.1c-4.4,1.2-9,2.9-13.5,3c-17.9,0.3-35.8,0.1-53.6,0.2
	C3201.2,2706.6,3199.4,2706.2,3198.1,2705.1z M3268.6,2695.9c25.9-7,51.4-13.9,77-20.9c2.1-0.6,2.9-3,1.7-4.7
	c-18-25.3-35.8-50.4-53.9-75.8c-1.5-2.1-4.9-1.5-5.5,1.1c-7.8,32.5-15.4,64.5-23.1,96.7C3264.3,2694.5,3266.3,2696.5,3268.6,2695.9z
	"/>
<g>
	<polygon class="st0" points="3371.4,2594.4 3398,2635.3 3411.3,2635.3 3411.3,2572 3397.6,2572 3397.6,2612.9 3371.1,2572 
		3357.7,2572 3357.7,2635.3 3371.4,2635.3 	"/>
	<polygon class="st0" points="3464.8,2623.8 3434.6,2623.8 3434.6,2609.2 3456.8,2609.2 3456.8,2598.2 3434.6,2598.2 3434.6,2583.5 
		3464.8,2583.5 3464.8,2572 3420.8,2572 3420.8,2635.3 3464.8,2635.3 	"/>
	<polygon class="st0" points="3508.1,2635.3 3533.4,2572 3518.8,2572 3501.3,2617 3483.9,2572 3469.2,2572 3494.6,2635.3 	"/>
	<polygon class="st0" points="3585,2583.5 3585,2572 3541,2572 3541,2635.3 3547.2,2635.3 3585,2635.3 3585,2623.8 3572.1,2623.8 
		3554.8,2623.8 3554.8,2609.2 3577,2609.2 3577,2598.2 3554.8,2598.2 3554.8,2583.5 	"/>
	<path class="st0" d="M3638.7,2604.9c2.2-3.3,3.3-7.3,3.3-12c0-0.5,0-0.9,0-1.3l0,0c-0.3-6.1-2.3-10.9-6-14.2
		c-4-3.6-9.6-5.4-16.8-5.4h-27.5v42.8l27.2-12.6c-0.7,0.1-1.4,0.1-2.2,0.1h-11.2v-18.9h11.2c3.6,0,6.3,0.7,8.3,2.1
		c2,1.4,3,3.9,3,7.3c0,2.5-0.6,4.4-1.7,5.9l0,0c-0.4,0.5-0.8,0.9-1.3,1.3c-1.6,1.2-3.6,1.9-6.1,2.1l-27.2,12.6v20.5h13.8v0v-21.5
		h10.8l11.2,21.5h14.1l-12.1-23.2C3633.5,2610.6,3636.6,2608.2,3638.7,2604.9z"/>
	<g>
		<path class="st0" d="M3429.1,2687.2c-3.9-3.7-5.8-8.7-5.8-15c0-6.3,1.9-11.3,5.8-14.9c3.8-3.7,9.1-5.5,15.6-5.5
			c4.4,0,8.2,0.5,11.7,1.5c3.4,1,6.5,2.6,9.1,4.8v-13.1c-5.9-4-13.2-6-21.9-6c-6.8,0-12.8,1.3-18,4c-5.2,2.7-9.2,6.5-12.1,11.5
			s-4.3,10.8-4.3,17.5s1.4,12.5,4.3,17.5c1.2,2,2.5,3.9,4.1,5.5l13.6-6.3C3430.5,2688.4,3429.8,2687.8,3429.1,2687.2z"/>
		<path class="st0" d="M3456.6,2691.1c-3.4,1.1-7.4,1.6-11.9,1.6c-5.4,0-9.9-1.3-13.5-3.8l-13.6,6.3c2.2,2.4,4.9,4.4,8,6
			c5.2,2.7,11.2,4,18,4c9.6,0,17.1-2.1,22.7-6.2V2686C3463.2,2688.4,3460,2690.1,3456.6,2691.1z"/>
	</g>
	<polygon class="st0" points="3572.5,2682.9 3553,2640.5 3539.4,2640.5 3539.4,2703.9 3552.6,2703.9 3552.6,2667.9 3569.3,2703.9 
		3575.7,2703.9 3592.4,2667.9 3592.4,2703.9 3605.6,2703.9 3605.6,2640.5 3592.1,2640.5 	"/>
	<path class="st0" d="M3659,2646.1c-4.3-3.8-10-5.7-17.2-5.7h-26.7v63.4h13.8v-20.6h12.9c7.3,0,13-1.8,17.3-5.5
		c4.3-3.7,6.4-9,6.4-15.9C3665.4,2655.2,3663.3,2649.9,3659,2646.1z M3639.8,2671.8h-10.9V2652h10.9c3.6,0,6.5,0.7,8.6,2.2
		c2.1,1.5,3.1,4,3.1,7.7C3651.5,2668.5,3647.6,2671.8,3639.8,2671.8z"/>
	<polygon class="st0" points="3512.2,2651.5 3507.8,2640.6 3494.3,2640.6 3484.9,2664.1 3469,2703.9 3483.6,2703.9 3501.1,2658.9 
		3518.5,2703.9 3533.2,2703.9 	"/>
</g>
<g>
	<polygon class="st0" points="2700.2,2676.9 2726.1,2716.8 2739.1,2716.8 2739.1,2655 2725.7,2655 2725.7,2695 2699.9,2655 
		2686.8,2655 2686.8,2716.8 2700.2,2716.8 	"/>
	<polygon class="st0" points="2791.1,2705.6 2761.7,2705.6 2761.7,2691.3 2783.4,2691.3 2783.4,2680.6 2761.7,2680.6 2761.7,2666.3 
		2791.1,2666.3 2791.1,2655 2748.3,2655 2748.3,2716.8 2791.1,2716.8 	"/>
	<polygon class="st0" points="2833.4,2716.8 2858,2655 2843.8,2655 2826.7,2698.9 2809.8,2655 2795.5,2655 2820.2,2716.8 	"/>
	<polygon class="st0" points="2908.3,2666.3 2908.3,2655 2865.4,2655 2865.4,2716.8 2871.5,2716.8 2908.3,2716.8 2908.3,2705.6 
		2895.8,2705.6 2878.9,2705.6 2878.9,2691.3 2900.5,2691.3 2900.5,2680.6 2878.9,2680.6 2878.9,2666.3 	"/>
	<path class="st0" d="M2960.6,2687.1c2.1-3.2,3.2-7.1,3.2-11.7c0-0.4,0-0.9,0-1.3l0,0c-0.2-6-2.2-10.6-5.8-13.8
		c-3.9-3.5-9.4-5.3-16.4-5.3h-26.8v41.7l26.5-12.3c-0.7,0.1-1.4,0.1-2.1,0.1h-11v-18.4h11c3.5,0,6.2,0.7,8.1,2.1
		c1.9,1.4,2.9,3.8,2.9,7.1c0,2.4-0.6,4.3-1.7,5.7l0,0c-0.4,0.5-0.8,0.9-1.3,1.2c-1.5,1.1-3.5,1.8-5.9,2.1l-26.5,12.3v20h13.4v0
		v-20.9h10.5l10.9,20.9h13.8l-11.8-22.6C2955.5,2692.7,2958.5,2690.4,2960.6,2687.1z"/>
	<g>
		<path class="st0" d="M2756.4,2767.3c-3.8-3.6-5.7-8.4-5.7-14.6c0-6.1,1.9-11,5.6-14.5c3.7-3.6,8.8-5.3,15.2-5.3
			c4.2,0,8,0.5,11.4,1.5c3.3,1,6.3,2.5,8.9,4.7v-12.7c-5.7-3.9-12.8-5.8-21.4-5.8c-6.6,0-12.4,1.3-17.5,3.9
			c-5.1,2.6-9,6.4-11.8,11.2s-4.2,10.6-4.2,17.1c0,6.5,1.4,12.2,4.2,17c1.1,2,2.5,3.8,4,5.4l13.3-6.1
			C2757.8,2768.5,2757.1,2767.9,2756.4,2767.3z"/>
		<path class="st0" d="M2783.2,2771.1c-3.4,1-7.2,1.5-11.6,1.5c-5.3,0-9.7-1.2-13.1-3.7l-13.3,6.1c2.2,2.3,4.8,4.3,7.8,5.8
			c5.1,2.6,10.9,3.9,17.5,3.9c9.3,0,16.7-2,22.1-6v-12.7C2789.7,2768.4,2786.6,2770.1,2783.2,2771.1z"/>
	</g>
	<polygon class="st0" points="2896.1,2763.1 2877.1,2721.8 2863.8,2721.8 2863.8,2783.5 2876.7,2783.5 2876.7,2748.5 2893,2783.5 
		2899.2,2783.5 2915.5,2748.5 2915.5,2783.5 2928.3,2783.5 2928.3,2721.8 2915.2,2721.8 	"/>
	<path class="st0" d="M2980.3,2727.3c-4.2-3.7-9.8-5.5-16.8-5.5h-26v61.7h13.4v-20.1h12.5c7.1,0,12.7-1.8,16.8-5.4
		c4.2-3.6,6.2-8.7,6.2-15.5C2986.6,2736.1,2984.5,2731,2980.3,2727.3z M2961.6,2752.3H2951V2733h10.6c3.5,0,6.3,0.7,8.3,2.1
		c2,1.4,3,3.9,3,7.5C2973,2749,2969.2,2752.3,2961.6,2752.3z"/>
	<polygon class="st0" points="2837.4,2732.5 2833.1,2721.9 2819.9,2721.9 2810.8,2744.8 2795.3,2783.6 2809.5,2783.6 2826.6,2739.7 
		2843.5,2783.6 2857.8,2783.6 	"/>
</g>
<path class="st0" d="M2687.8,2631.6c-0.8-0.7-1.2-1.9-0.9-3c0.1-0.7,0.3-1.3,0.3-1.5c4.4-18.4,8.8-36.8,13.2-55.3
	c5.7-23.8,11.4-47.7,17.1-71.5c0.9-3.8,2-4.5,6.6-4.5c18.3,0,36.6,0,54.9,0c3.1,0,5,0.9,6.5,3c23.4,33,46.8,66,70.2,99
	c3,4.2,1.9,6.5-3.9,8c-29.6,8-59.1,16-88.7,24c-4.6,1.2-9.3,3-14.1,3.1c-18.6,0.4-37.2,0.1-55.8,0.2
	C2691,2633.2,2689.1,2632.8,2687.8,2631.6z M2761.2,2622.1c27-7.3,53.5-14.5,80.2-21.7c2.1-0.6,3-3.1,1.8-4.9
	c-18.7-26.4-37.3-52.5-56.1-78.9c-1.6-2.2-5.1-1.6-5.7,1.1c-8.1,33.8-16.1,67.1-24.1,100.7
	C2756.7,2620.6,2758.8,2622.7,2761.2,2622.1z"/>
<linearGradient id="SVGID_5_" gradientUnits="userSpaceOnUse" x1="11.7186" y1="27.8814" x2="93.7221" y2="121.8127">
	<stop  offset="0" style="stop-color:#FF6399"/>
	<stop  offset="1" style="stop-color:#804EFC"/>
</linearGradient>
<path class="st6" d="M1,133.1c-0.8-0.7-1.1-1.8-0.9-2.8c0.1-0.6,0.3-1.2,0.3-1.4c4.2-17.7,8.5-35.4,12.7-53.1
	C18.6,52.9,24,30,29.5,7.1c0.9-3.6,1.9-4.3,6.4-4.3c17.6,0,35.2,0,52.8,0c3,0,4.8,0.8,6.3,2.9c22.4,31.7,44.9,63.4,67.4,95
	c2.9,4.1,1.8,6.2-3.7,7.7c-28.4,7.7-56.8,15.4-85.2,23.1c-4.4,1.2-9,2.9-13.5,3c-17.9,0.3-35.8,0.1-53.6,0.2
	C4.1,134.7,2.3,134.3,1,133.1z M71.5,124c25.9-7,51.4-13.9,77-20.9c2.1-0.6,2.9-3,1.7-4.7c-18-25.3-35.8-50.4-53.9-75.8
	c-1.5-2.1-4.9-1.5-5.5,1.1C83,56.1,75.4,88.1,67.7,120.3C67.1,122.6,69.2,124.6,71.5,124z"/>
<g>
	<polygon class="st0" points="174.3,22.4 200.9,63.4 214.2,63.4 214.2,0 200.4,0 200.4,41 173.9,0 160.5,0 160.5,63.4 174.3,63.4 	
		"/>
	<polygon class="st0" points="267.6,51.9 237.4,51.9 237.4,37.3 259.6,37.3 259.6,26.2 237.4,26.2 237.4,11.5 267.6,11.5 267.6,0 
		223.6,0 223.6,63.4 267.6,63.4 	"/>
	<polygon class="st0" points="311,63.4 336.3,0 321.7,0 304.2,45.1 286.7,0 272.1,0 297.4,63.4 	"/>
	<polygon class="st0" points="387.8,11.5 387.8,0 343.9,0 343.9,63.4 350.1,63.4 387.8,63.4 387.8,51.9 375,51.9 357.7,51.9 
		357.7,37.3 379.9,37.3 379.9,26.2 357.7,26.2 357.7,11.5 	"/>
	<path class="st0" d="M441.6,33c2.2-3.3,3.3-7.3,3.3-12c0-0.5,0-0.9,0-1.3l0,0c-0.3-6.1-2.3-10.9-6-14.2c-4-3.6-9.6-5.4-16.8-5.4
		h-27.5v42.8l27.2-12.6c-0.7,0.1-1.4,0.1-2.2,0.1h-11.2V11.5h11.2c3.6,0,6.3,0.7,8.3,2.1c2,1.4,3,3.9,3,7.3c0,2.5-0.6,4.4-1.7,5.9
		l0,0c-0.4,0.5-0.8,0.9-1.3,1.3c-1.6,1.2-3.6,1.9-6.1,2.1l-27.2,12.6v20.5h13.8v0V41.9h10.8l11.2,21.5h14.1l-12.1-23.2
		C436.4,38.7,439.4,36.3,441.6,33z"/>
	<g>
		<path class="st0" d="M232,115.3c-3.9-3.7-5.8-8.7-5.8-15c0-6.3,1.9-11.3,5.8-14.9c3.8-3.7,9.1-5.5,15.6-5.5
			c4.4,0,8.2,0.5,11.7,1.5c3.4,1,6.5,2.6,9.1,4.8V73.1c-5.9-4-13.2-6-21.9-6c-6.8,0-12.8,1.3-18,4c-5.2,2.7-9.2,6.5-12.1,11.5
			c-2.8,5-4.3,10.8-4.3,17.5c0,6.7,1.4,12.5,4.3,17.5c1.2,2,2.5,3.9,4.1,5.5l13.6-6.3C233.3,116.5,232.6,115.9,232,115.3z"/>
		<path class="st0" d="M259.5,119.2c-3.4,1.1-7.4,1.6-11.9,1.6c-5.4,0-9.9-1.3-13.5-3.8l-13.6,6.3c2.2,2.4,4.9,4.4,8,6
			c5.2,2.7,11.2,4,18,4c9.6,0,17.1-2.1,22.7-6.2V114C266.1,116.4,262.9,118.1,259.5,119.2z"/>
	</g>
	<polygon class="st0" points="375.3,111 355.8,68.5 342.2,68.5 342.2,131.9 355.5,131.9 355.5,95.9 372.2,131.9 378.5,131.9 
		395.3,95.9 395.3,131.9 408.4,131.9 408.4,68.5 394.9,68.5 	"/>
	<path class="st0" d="M461.8,74.2c-4.3-3.8-10-5.7-17.2-5.7H418v63.4h13.8v-20.6h12.9c7.3,0,13-1.8,17.3-5.5c4.3-3.7,6.4-9,6.4-15.9
		C468.3,83.2,466.1,78,461.8,74.2z M442.6,99.8h-10.9V80h10.9c3.6,0,6.5,0.7,8.6,2.2c2.1,1.5,3.1,4,3.1,7.7
		C454.3,96.5,450.4,99.8,442.6,99.8z"/>
	<polygon class="st0" points="315.1,79.6 310.7,68.6 297.2,68.6 287.8,92.2 271.9,132 286.5,132 304,86.9 321.4,132 336.1,132 	"/>
</g>
</svg>
