<?xml version="1.0" encoding="utf-8"?>
<!-- Generator: Adobe Illustrator 24.2.3, SVG Export Plug-In . SVG Version: 6.00 Build 0)  -->
<svg version="1.1" id="Layer_1" xmlns="http://www.w3.org/2000/svg" xmlns:xlink="http://www.w3.org/1999/xlink" x="0px" y="0px"
	 viewBox="0 0 211.4 241.5" style="enable-background:new 0 0 211.4 241.5;" xml:space="preserve">
<style type="text/css">
	.st0{fill:#FFFFFF;}
	.st1{fill:url(#SVGID_1_);}
	.st2{fill:#804EFC;}
</style>
<path class="st0" d="M722.3,144.4c-16.1,2.1-32.2,4.2-48.7,6.3c-8.4-27-16.7-53.7-24.8-79.7C672.9,95.2,697.5,119.6,722.3,144.4z"/>
<path class="st0" d="M610.3,163.4c16.8,0,33.2,0,50,0c-8.3,22-16.5,43.9-25,66.7C626.7,207.4,618.5,185.5,610.3,163.4z"/>
<linearGradient id="SVGID_1_" gradientUnits="userSpaceOnUse" x1="734.1411" y1="298.1399" x2="819.5256" y2="395.9441">
	<stop  offset="0" style="stop-color:#FF6399"/>
	<stop  offset="0.5114" style="stop-color:#BE58CC"/>
	<stop  offset="1" style="stop-color:#804EFC"/>
</linearGradient>
<path class="st1" d="M722.9,407.7c-0.8-0.7-1.2-1.9-0.9-3c0.1-0.7,0.3-1.3,0.3-1.5c4.4-18.4,8.8-36.8,13.2-55.3
	c5.7-23.8,11.4-47.7,17.1-71.5c0.9-3.8,2-4.5,6.6-4.5c18.3,0,36.6,0,54.9,0c3.1,0,5,0.9,6.5,3c23.4,33,46.8,66,70.2,99
	c3,4.2,1.9,6.5-3.9,8c-29.6,8-59.1,16-88.7,24c-4.6,1.2-9.3,3-14.1,3.1c-18.6,0.4-37.2,0.1-55.8,0.2
	C726.2,409.3,724.3,408.9,722.9,407.7z M796.3,398.2c27-7.3,53.5-14.5,80.2-21.7c2.1-0.6,3-3.1,1.8-4.9
	c-18.7-26.4-37.3-52.5-56.1-78.9c-1.6-2.2-5.1-1.6-5.7,1.1c-8.1,33.8-16.1,67.1-24.1,100.7C791.8,396.7,794,398.8,796.3,398.2z"/>
<path class="st2" d="M211.3,120.7c0,18.5-0.1,36.9,0.1,55.4c0,4.1-1.4,6.6-5,8.7c-31.9,18.3-63.7,36.6-95.5,55.1
	c-3.7,2.1-6.6,2.2-10.4,0c-31.7-18.4-63.4-36.7-95.2-55c-3.8-2.2-5.3-4.9-5.3-9.3C0.1,139.1,0.1,102.5,0,66c0-4.6,1.6-7.3,5.6-9.6
	C37.4,38.3,69.1,20,100.8,1.6c3.5-2.1,6.5-2.1,10.1-0.1c31.8,18.5,63.6,36.9,95.5,55.2c3.7,2.1,5.1,4.8,5.1,9
	C211.2,84,211.3,102.4,211.3,120.7z M99.5,225.1c0.1-1.3,0.2-1.7,0.2-2.2c0-32.2,0-64.4,0.1-96.6c0-2.5-1.3-3.4-3.1-4.4
	C69.7,106.4,42.8,91,15.9,75.6c-1-0.6-2.1-1.1-3.5-1.8c-0.1,1-0.2,1.6-0.2,2.2c0,32.1,0,64.1-0.1,96.2c0,2.4,1.2,3.2,2.9,4.2
	c23.3,13.4,46.6,26.9,69.9,40.3C89.6,219.4,94.3,222.1,99.5,225.1z M111.8,225.1c1.5-0.8,2.4-1.1,3.2-1.6
	c27.2-15.7,54.4-31.4,81.6-47.1c2.2-1.2,2.8-2.6,2.8-5c-0.1-31.1,0-62.1-0.1-93.2c0-1.3-0.1-2.6-0.2-4.3c-1.7,0.9-2.9,1.5-4,2.2
	c-26.7,15.4-53.3,30.8-80.1,46c-2.5,1.4-3.4,3-3.4,5.8c0.1,30.9,0.1,61.9,0.1,92.8C111.8,221.9,111.8,223.2,111.8,225.1z"/>
</svg>
