<?xml version="1.0" encoding="utf-8"?>
<!-- Generator: Adobe Illustrator 24.2.3, SVG Export Plug-In . SVG Version: 6.00 Build 0)  -->
<svg version="1.1" id="Layer_1" xmlns="http://www.w3.org/2000/svg" xmlns:xlink="http://www.w3.org/1999/xlink" x="0px" y="0px"
	 viewBox="0 0 210.7 211.2" style="enable-background:new 0 0 210.7 211.2;" xml:space="preserve">
<style type="text/css">
	.st0{fill:#FFFFFF;}
	.st1{fill:url(#SVGID_1_);}
	.st2{fill:#BE58CC;}
</style>
<path class="st0" d="M582.8-134.9c-16.1,2.1-32.2,4.2-48.7,6.3c-8.4-27-16.7-53.7-24.8-79.7C533.5-184.2,558-159.7,582.8-134.9z"/>
<path class="st0" d="M470.8-115.9c16.8,0,33.2,0,50,0c-8.3,22-16.5,43.9-25,66.7C487.3-72,479.1-93.9,470.8-115.9z"/>
<linearGradient id="SVGID_1_" gradientUnits="userSpaceOnUse" x1="594.6752" y1="18.8124" x2="680.0599" y2="116.6166">
	<stop  offset="0" style="stop-color:#FF6399"/>
	<stop  offset="0.5114" style="stop-color:#BE58CC"/>
	<stop  offset="1" style="stop-color:#804EFC"/>
</linearGradient>
<path class="st1" d="M583.5,128.4c-0.8-0.7-1.2-1.9-0.9-3c0.1-0.7,0.3-1.3,0.3-1.5c4.4-18.4,8.8-36.8,13.2-55.3
	c5.7-23.8,11.4-47.7,17.1-71.5c0.9-3.8,2-4.5,6.6-4.5c18.3,0,36.6,0,54.9,0c3.1,0,5,0.9,6.5,3c23.4,33,46.8,66,70.2,99
	c3,4.2,1.9,6.5-3.9,8c-29.6,8-59.1,16-88.7,24c-4.6,1.2-9.3,3-14.1,3.1c-18.6,0.4-37.2,0.1-55.8,0.2
	C586.7,130,584.8,129.6,583.5,128.4z M656.9,118.9c27-7.3,53.5-14.5,80.2-21.7c2.1-0.6,3-3.1,1.8-4.9
	c-18.7-26.4-37.3-52.5-56.1-78.9c-1.6-2.2-5.1-1.6-5.7,1.1c-8.1,33.8-16.1,67.1-24.1,100.7C652.4,117.4,654.5,119.5,656.9,118.9z"/>
<path class="st2" d="M105.5,211.2C48.1,211.8,0.5,164.5,0,106.3C-0.5,48.5,46.4,0.5,104,0c58.6-0.5,106.3,46.3,106.8,104.7
	C211.2,163.3,164.5,210.7,105.5,211.2z M75.4,149.9C79,165.4,83.1,180,93.2,192c1.2,1.4,2.6,2.7,4.1,3.8c5.4,4,10.6,4.3,15.8,0.1
	c3.3-2.6,6.2-5.8,8.5-9.3c6-8.9,9.3-19,12-29.3c0.6-2.3,1-4.7,1.6-7.4C115.2,152.6,95.7,152.7,75.4,149.9z M135,60.7
	c-1.5-11.2-7.9-28.1-14-36.9c-1.5-2.1-3.2-4.2-5-6c-7-6.8-14-6.8-21-0.1c-2,1.9-3.7,4-5.2,6.3c-7.1,10.8-11,22.8-13.7,35.3
	c-0.1,0.4,0,0.9,0,1.3c10-0.5,19.7-1.3,29.4-1.3C115.1,59.4,124.9,60.2,135,60.7z M130.7,16c0.1,0.4,0.1,0.8,0.3,1
	c8.4,13.4,14,27.8,16.4,43.4c0.4,2.5,1.9,2.8,3.8,3.2c14.8,2.6,28.5,7.9,41.2,15.8c0.7,0.5,1.6,0.8,2.6,1.2
	C187.6,49.3,159,22.2,130.7,16z M194.9,130.1c-13.8,8.9-28.1,14.7-43.7,17.3c-2.9,0.5-3.5,1.8-4.1,4.2c-1.8,7.1-3.3,14.4-5.9,21.2
	c-2.9,7.6-6.8,14.9-10.2,22.1C160.1,188.6,188.2,160.2,194.9,130.1z M80.2,16c-25.8,3.6-64.6,42.3-63.7,64
	C30.3,71.5,45.1,66,60.9,63.1c1-0.2,2.1-1.7,2.4-2.9c2.6-8.4,4.5-17.1,7.6-25.4C73.4,28.4,77.1,22.3,80.2,16z M16.3,131.4
	c2.3,24.4,41.9,63.8,63.9,63.4C71.5,180.9,65.9,166,63.1,150c-0.1-0.9-1.7-1.8-2.8-2.2c-8.7-2.6-17.5-4.7-26-7.7
	C28.1,137.8,22.3,134.3,16.3,131.4z"/>
</svg>
